<?xml version="1.0" standalone="no"?>
<!DOCTYPE svg PUBLIC "-//W3C//DTD SVG 1.1//EN" "http://www.w3.org/Graphics/SVG/1.1/DTD/svg11.dtd" >
<!--
2013-9-30: Created.
-->
<svg>
<metadata>
Created by iconfont
</metadata>
<defs>

<font id="iconfont" horiz-adv-x="1024" >
  <font-face
    font-family="iconfont"
    font-weight="500"
    font-stretch="normal"
    units-per-em="1024"
    ascent="896"
    descent="-128"
  />
    <missing-glyph />
    
    <glyph glyph-name="dianhua" unicode="&#59056;" d="M825.6-212c-70.4 0-160 32-256 83.2-89.6 51.2-185.6 128-275.2 217.6C204.8 184.8 134.4 274.4 83.2 370.4c-25.6 44.8-44.8 89.6-64 134.4C6.4 543.2 0 581.6 0 613.6c0 19.2 6.4 38.4 19.2 51.2C25.6 677.6 44.8 703.2 64 716c19.2 19.2 70.4 64 89.6 76.8l19.2 12.8C179.2 812 192 812 204.8 805.6c0 0 0 0 6.4-6.4 6.4-6.4 19.2-12.8 25.6-25.6C256 754.4 275.2 728.8 294.4 696.8c32-51.2 57.6-102.4 70.4-128 0-6.4 0-12.8 0-12.8 0-6.4-6.4-12.8-25.6-38.4C326.4 504.8 313.6 492 313.6 485.6c-6.4-12.8-6.4-25.6 0-44.8l0-6.4c6.4-32 12.8-64 44.8-102.4C377.6 300 403.2 268 435.2 236c32-32 64-57.6 89.6-83.2C569.6 120.8 595.2 108 620.8 108c38.4 0 70.4 19.2 96 32 19.2 6.4 32 19.2 51.2 19.2 6.4 0 6.4 0 12.8 0 19.2-6.4 64-32 134.4-76.8 70.4-51.2 102.4-83.2 108.8-89.6C1024-13.6 1024-20 1024-32.8c-6.4-38.4-64-108.8-89.6-128-19.2-19.2-38.4-32-57.6-38.4C857.6-205.6 844.8-212 825.6-212zM185.6 754.4 185.6 754.4C166.4 741.6 115.2 696.8 102.4 677.6 83.2 664.8 70.4 652 64 632.8 57.6 620 51.2 613.6 51.2 613.6c0-25.6 6.4-57.6 19.2-89.6C83.2 479.2 102.4 440.8 128 396c51.2-89.6 121.6-179.2 204.8-262.4 83.2-89.6 172.8-160 262.4-211.2 89.6-51.2 166.4-76.8 230.4-76.8 6.4 0 19.2 0 32 6.4 12.8 6.4 25.6 19.2 38.4 25.6 25.6 19.2 57.6 64 70.4 89.6-12.8 12.8-44.8 38.4-89.6 70.4-57.6 38.4-96 57.6-108.8 70.4-6.4 0-19.2-6.4-25.6-12.8-32-12.8-70.4-38.4-121.6-38.4-38.4 0-76.8 19.2-128 57.6-32 25.6-64 51.2-96 89.6-32 32-64 70.4-83.2 96C275.2 344.8 268.8 383.2 262.4 421.6L256 428C249.6 453.6 243.2 479.2 262.4 511.2c6.4 6.4 12.8 19.2 25.6 38.4C294.4 556 300.8 562.4 307.2 562.4 294.4 588 275.2 626.4 249.6 671.2 230.4 696.8 211.2 722.4 192 741.6 192 741.6 185.6 748 185.6 754.4z"  horiz-adv-x="1024" />

    
    <glyph glyph-name="liuyan" unicode="&#59204;" d="M511.913993-32.016126c-8.256677 0-16.341341 3.096254-22.705863 9.460776l-95.983874 95.983874c-12.55703 12.55703-12.55703 32.682681 0 45.239711s32.682681 12.55703 45.239711 0l73.450025-73.450025 73.450025 73.450025c6.020494 6.020494 14.105157 9.460776 22.705863 9.460776l223.962372 0c17.717453 0 31.994625 14.277171 31.994625 31.994625L864.026877 672.037628c0 17.545439-14.277171 31.994625-31.994625 31.994625l-639.892491 0c-17.545439 0-31.994625-14.449185-31.994625-31.994625l0-511.913993c0-17.717453 14.449185-31.994625 31.994625-31.994625l95.983874 0c17.717453 0 31.994625-14.277171 31.994625-31.994625s-14.277171-31.994625-31.994625-31.994625l-95.983874 0c-52.980346 0-95.983874 43.003528-95.983874 95.983874L96.155888 672.037628c0 52.980346 43.003528 95.983874 95.983874 95.983874l639.892491 0c52.980346 0 95.983874-43.003528 95.983874-95.983874l0-511.913993c0-52.980346-43.003528-95.983874-95.983874-95.983874L621.142953 64.139761 534.619856-22.55535C528.427348-28.747858 520.17067-32.016126 511.913993-32.016126zM335.943558 384.086007c-26.490173 0-47.991937 21.501764-47.991937 47.991937s21.501764 47.991937 47.991937 47.991937 47.991937-21.501764 47.991937-47.991937S362.433731 384.086007 335.943558 384.086007zM527.911305 384.086007c-26.490173 0-47.991937 21.501764-47.991937 47.991937s21.501764 47.991937 47.991937 47.991937 47.991937-21.501764 47.991937-47.991937S554.401478 384.086007 527.911305 384.086007zM720.051067 384.086007c-26.490173 0-47.991937 21.501764-47.991937 47.991937s21.501764 47.991937 47.991937 47.991937c26.490173 0 47.991937-21.501764 47.991937-47.991937S746.369226 384.086007 720.051067 384.086007z"  horiz-adv-x="1024" />

    
    <glyph glyph-name="daixiedingzhi" unicode="&#58971;" d="M934.7 546.5h-81.4v236.1c0 36.9-30 66.9-66.9 66.9h-686c-36.9 0-66.9-30-66.9-66.9v-531.7c0-36.9 30-66.9 66.9-66.9h1.7v-158.1L338.7 184h32.1v-87.1c0-30.8 25-55.8 55.8-55.8h291.6l183.4-122.5V41.10000000000002h33.2c30.8 0 55.8 25 55.8 55.8V490.7c-0.1 30.7-25.1 55.8-55.9 55.8zM324.1 232l-174-116.3V232h-49.7c-10.4 0-18.9 8.5-18.9 18.9v531.7c0 10.4 8.5 18.9 18.9 18.9h686c10.4 0 18.9-8.5 18.9-18.9v-531.7c0-10.4-8.5-18.9-18.9-18.9H324.1z m618.4-135.1c0-4.3-3.5-7.7-7.8-7.7h-81.2v-80.7l-120.8 80.7H426.6c-4.3 0-7.8 3.5-7.8 7.7V184h367.6c36.9 0 66.9 30 66.9 66.9V498.4h81.4c4.3 0 7.8-3.5 7.8-7.7v-393.8zM257.6 522.4m-45.7 0a45.7 45.7 0 1 1 91.4 0 45.7 45.7 0 1 1-91.4 0ZM446.3 522.4m-45.7 0a45.7 45.7 0 1 1 91.4 0 45.7 45.7 0 1 1-91.4 0ZM634.9 522.4m-45.7 0a45.7 45.7 0 1 1 91.4 0 45.7 45.7 0 1 1-91.4 0Z"  horiz-adv-x="1024" />

    
    <glyph glyph-name="ziyuanguanli" unicode="&#58948;" d="M834.084 341.268V0.82h-733.27V734.092H441.26v52.375H100.813c-28.926 0-52.375-23.448-52.375-52.375v-733.27c0-28.927 23.449-52.376 52.375-52.376h733.271c28.926 0 52.376 23.449 52.376 52.375V341.268h-52.376z m-274.59 147.993h-379.87v67.514h379.87v-67.514z m154.099-189.317H178.09v67.513h535.503v-67.513z m30.687-193.333H179.625v67.513H744.28v-67.513zM936.621 651.54h-19.95c-8.265 0-17.012 6.447-19.469 14.333l-10.347 25.13c-3.886 7.269-2.284 17.996 3.526 23.834l14.158 14.132a13.056 13.056 0 0 1 3.829 9.243 13 13 0 0 1-3.83 9.25l-24.025 23.985c-2.359 2.361-5.618 3.821-9.219 3.821s-6.878-1.468-9.24-3.82L847.9 757.293c-5.81-5.831-16.577-7.431-23.855-3.525l-25.11 10.334c-7.85 2.44-14.328 11.202-14.328 19.462V803.539c0 3.335-1.274 6.68-3.827 9.23a13.004 13.004 0 0 1-9.224 3.832h-33.93a13.01 13.01 0 0 1-9.239-3.832 13.027 13.027 0 0 1-3.83-9.23v-19.974c0-8.26-6.418-17.023-14.306-19.462l-25.13-10.334c-7.296-3.906-18.005-2.324-23.813 3.525l-14.214 14.144a13.025 13.025 0 0 1-9.24 3.81c-3.6 0-6.86-1.467-9.223-3.82l-23.965-23.964a13.077 13.077 0 0 1-3.83-9.23c0-3.602 1.467-6.87 3.83-9.235l14.134-14.161c5.847-5.85 7.45-16.568 3.524-23.834l-10.344-25.15c-2.441-7.887-11.185-14.336-19.45-14.336l-19.97 0.022a12.996 12.996 0 0 1-9.235-3.833 13.021 13.021 0 0 1-3.831-9.24v-33.921a13.03 13.03 0 0 1 3.83-9.242 13.025 13.025 0 0 1 9.236-3.82h19.97c8.265-0.018 16.991-6.467 19.43-14.335l10.364-25.13c3.888-7.287 2.306-18.043-3.524-23.852l-14.174-14.136a13.03 13.03 0 0 1-3.83-9.25c0-3.6 1.467-6.876 3.83-9.24l24.026-23.985a12.976 12.976 0 0 1 9.218-3.82 13.04 13.04 0 0 1 9.243 3.82l14.172 14.143c5.814 5.824 16.518 7.422 23.776 3.478l25.188-10.336c7.888-2.449 14.305-11.192 14.305-19.457v-19.91c0-3.334 1.277-6.686 3.831-9.236a13.067 13.067 0 0 1 9.24-3.813h33.911a13.07 13.07 0 0 1 9.241 3.813 13.03 13.03 0 0 1 3.83 9.236v19.91c0 8.264 6.474 17.007 14.326 19.457l25.15 10.336c7.275 3.943 18.02 2.342 23.87-3.478l14.079-14.133a12.985 12.985 0 0 1 9.242-3.85c3.6-0.009 6.878 1.448 9.236 3.821l24.026 24.004a12.998 12.998 0 0 1 3.829 9.248c0 3.612-1.466 6.879-3.83 9.242l-14.154 14.136c-5.814 5.813-7.41 16.565-3.525 23.853l10.343 25.13c2.457 7.866 11.242 14.316 19.472 14.316h19.947c3.335 0 6.67 1.278 9.22 3.83a13.027 13.027 0 0 1 3.83 9.24v33.93c0 3.346-1.276 6.688-3.83 9.241a12.98 12.98 0 0 1-9.217 3.832zM754.638 546.515c-41.453 0-75.044 33.568-75.044 75.015 0 41.439 33.59 75.024 75.044 75.024 41.44 0 75.027-33.585 75.027-75.024 0-41.447-33.587-75.015-75.027-75.015z m313.221 198.602"  horiz-adv-x="1068" />

    
    <glyph glyph-name="denglutouxiang" unicode="&#58969;" d="M960 384c0 247.4-200.6 448-448 448S64 631.4 64 384c0-140.3 64.5-265.5 165.5-347.7 19.4 99.9 107.2 175.1 212.5 175.1h139.9c105.3 0 193.2-75.2 212.5-175.1C895.5 118.5 960 243.7 960 384zM504.9 266.5c-92.8 0-168 74.1-168 165.4 0 91.4 75.2 165.4 168 165.4s168-74.1 168-165.4c0-91.4-75.2-165.4-168-165.4zM336.9 431.9a168 165.4 0 1 1 336 0 168 165.4 0 1 1-336 0ZM581.9 211.4H442.1c-105.3 0-193.2-75.2-212.5-175.1C306.6-26.4 404.9-64 512-64c107.1 0 205.4 37.6 282.5 100.3-19.4 99.9-107.3 175.2-212.6 175.1z"  horiz-adv-x="1024" />

    
    <glyph glyph-name="DOC1" unicode="&#58958;" d="M860.9 12.5c0-27.9-22.6-50.6-50.6-50.6H179.2c-27.9 0-50.6 22.6-50.6 50.6V781.4c0 27.9 22.6 50.6 50.6 50.6h631.1c27.9 0 50.6-22.6 50.6-50.6v-768.9zM843.6 781.4c0 18.4-14.9 33.3-33.3 33.3H179.2c-18.4 0-33.3-14.9-33.3-33.3v-768.9c0-18.4 14.9-33.3 33.3-33.3h631.1c18.4 0 33.3 14.9 33.3 33.3V781.4zM895.3-27.4c0-20.2-16.3-36.5-36.5-36.5H673.4c-20.2 0-36.5 16.3-36.5 36.5V158c0 20.2 16.3 36.5 36.5 36.5h185.4c20.2 0 36.5-16.3 36.5-36.5v-185.4zM237.5 659.6H763c4.8 0 8.6 3.9 8.6 8.6 0 4.8-3.9 8.6-8.6 8.6H237.5c-4.8 0-8.6-3.9-8.6-8.6 0-4.7 3.9-8.6 8.6-8.6zM763 599.4H237.5c-4.8 0-8.6-3.9-8.6-8.6 0-4.8 3.9-8.6 8.6-8.6H763c4.8 0 8.6 3.9 8.6 8.6 0 4.7-3.9 8.6-8.6 8.6zM763 521.8H237.5c-4.8 0-8.6-3.9-8.6-8.6s3.9-8.6 8.6-8.6H763c4.8 0 8.6 3.9 8.6 8.6s-3.9 8.6-8.6 8.6zM763 409.8H237.5c-4.8 0-8.6-3.9-8.6-8.6s3.9-8.6 8.6-8.6H763c4.8 0 8.6 3.9 8.6 8.6s-3.9 8.6-8.6 8.6zM763 332.3H237.5c-4.8 0-8.6-3.9-8.6-8.6 0-4.8 3.9-8.6 8.6-8.6H763c4.8 0 8.6 3.9 8.6 8.6 0 4.8-3.9 8.6-8.6 8.6zM504.5 211.7h-267c-4.8 0-8.6-3.9-8.6-8.6 0-4.8 3.9-8.6 8.6-8.6h267c4.8 0 8.6 3.9 8.6 8.6 0.1 4.8-3.8 8.6-8.6 8.6zM504.5 134.2h-267c-4.8 0-8.6-3.9-8.6-8.6 0-4.8 3.9-8.6 8.6-8.6h267c4.8 0 8.6 3.9 8.6 8.6 0.1 4.7-3.8 8.6-8.6 8.6zM734.2-3.6l26.8 98.9 26.7-98.9h28.1l32.1 129.2h-26.8l-20-92.2-22.7 92.2h-32.1l-25.4-90.9-20.1 90.9h-28l32-129.2z"  horiz-adv-x="1024" />

    
    <glyph glyph-name="PDF1" unicode="&#58959;" d="M860.9 12.5c0-27.9-22.6-50.6-50.6-50.6H179.2c-27.9 0-50.6 22.6-50.6 50.6V781.4c0 27.9 22.6 50.6 50.6 50.6h631.1c27.9 0 50.6-22.6 50.6-50.6v-768.9zM843.6 781.4c0 18.4-14.9 33.3-33.3 33.3H179.2c-18.4 0-33.3-14.9-33.3-33.3v-768.9c0-18.4 14.9-33.3 33.3-33.3h631.1c18.4 0 33.3 14.9 33.3 33.3V781.4zM895.3-27.4c0-20.2-16.3-36.5-36.5-36.5H673.4c-20.2 0-36.5 16.3-36.5 36.5V158c0 20.2 16.3 36.5 36.5 36.5h185.4c20.2 0 36.5-16.3 36.5-36.5v-185.4zM237.5 659.6H763c4.8 0 8.6 3.9 8.6 8.6 0 4.8-3.9 8.6-8.6 8.6H237.5c-4.8 0-8.6-3.9-8.6-8.6 0-4.7 3.9-8.6 8.6-8.6zM763 599.4H237.5c-4.8 0-8.6-3.9-8.6-8.6 0-4.8 3.9-8.6 8.6-8.6H763c4.8 0 8.6 3.9 8.6 8.6 0 4.7-3.9 8.6-8.6 8.6zM763 521.8H237.5c-4.8 0-8.6-3.9-8.6-8.6 0-4.8 3.9-8.6 8.6-8.6H763c4.8 0 8.6 3.9 8.6 8.6 0 4.8-3.9 8.6-8.6 8.6zM763 409.8H237.5c-4.8 0-8.6-3.9-8.6-8.6 0-4.8 3.9-8.6 8.6-8.6H763c4.8 0 8.6 3.9 8.6 8.6 0 4.8-3.9 8.6-8.6 8.6zM763 332.3H237.5c-4.8 0-8.6-3.9-8.6-8.6 0-4.8 3.9-8.6 8.6-8.6H763c4.8 0 8.6 3.9 8.6 8.6 0 4.8-3.9 8.6-8.6 8.6zM504.5 211.7h-267c-4.8 0-8.6-3.9-8.6-8.6s3.9-8.6 8.6-8.6h267c4.8 0 8.6 3.9 8.6 8.6s-3.8 8.6-8.6 8.6zM504.5 134.2h-267c-4.8 0-8.6-3.9-8.6-8.6s3.9-8.6 8.6-8.6h267c4.8 0 8.6 3.9 8.6 8.6s-3.8 8.6-8.6 8.6zM681.3-14.8l4.2-2.2c2.4-1.4 4.9-1.6 6.6-1.6 11.2 0 23.9 13.3 41 43 18.9 6.2 40.6 11.3 59.7 14.1 15.4-8.4 33.3-14 44.9-14 2.2 0 4.2 0.2 5.7 0.7 2.7 0.7 4.9 2.2 6.3 4.4 2.2 3.4 3 8.3 2.3 13.7 0 1.9-1.2 4.2-2.8 5.6-3.9 3.8-11.9 5.7-23.8 5.7-8.3 0-17.5-0.7-26.6-1.9l-0.4 0.2c-4 2.4-8.1 4.8-11.2 7.8-9.3 8.7-17.1 20.8-22.1 34 0.3 1.1 0.5 2.2 0.7 3.3 0.2 1.3 5.5 31.2 4 41.9-0.2 1.3-0.4 1.9-0.7 2.8l-0.6 5.6c-1.7 4-5.1 11.7-10.6 11.7H755c-5.9 0-10.9-7-12.1-11.6-3.3-12.3-0.1-31.7 6.1-56l-1.4-4.2c-4.4-10.5-9.6-21.5-14.7-31.4l-0.6-1.4c-4.3-8.5-8.4-16-12-22.5l-1.6-2.9-3.9-2c-0.1 0-7.9-4.1-9.6-5.3-15.6-9.3-25.5-19.6-27.3-28.2-0.9-4.1 0.5-7.7 3.4-9.3z m144 54.2c6.2 0 7.8 1 13.7-0.6 2.7-0.6 3.8-1.1 4.1-1.5-0.9-0.3-2.9-1.3-4.5-1.3-4.4 0-9.5 3.4-16.3 3.4h3z m-67.7 103.2c1.1-1.8 2.6-6.4 2.8-13.9 0.1-5.1-0.7-9-1.7-12.1-1 5.3-1.5 11.7-1.5 16.6 0 3.3 0.1 7.3 0.4 9.4z m-11.9-94.4c4.8 9.3 8.6 17.5 11.6 24.8 5.4-9.1 12.1-17 19.9-23.6l0.2-0.2c-13.4-3-25.5-6.3-36.5-10.2 1.7 3.2 3.3 6.2 4.8 9.2z m-35.1-32c0.6 0.6 2.4 2.2 4 3.8-11.7-18.9-19.6-26.4-24.8-28.8 2.1 5.3 9.5 15.8 20.8 25z"  horiz-adv-x="1024" />

    
    <glyph glyph-name="PPT1" unicode="&#58960;" d="M813.1-41.7H179.4c-28 0-50.8 22.8-50.8 50.8V781.2c0 28 22.8 50.8 50.8 50.8h633.7c28 0 50.8-22.8 50.8-50.8v-772.1c0-28-22.8-50.8-50.8-50.8zM179.4 814.6c-18.5 0-33.5-15-33.5-33.5V9c0-18.5 15-33.5 33.5-33.5h633.7c18.5 0 33.5 15 33.5 33.5V781.2c0 18.5-15 33.5-33.5 33.5H179.4zM858.7-63.9H672.5c-20.2 0-36.6 16.4-36.6 36.6V158.9c0 20.2 16.4 36.6 36.6 36.6h186.2c20.2 0 36.6-16.4 36.6-36.6v-186.2c0-20.2-16.4-36.6-36.6-36.6zM833.5 122.4c-3.5 6.9-8.1 12.4-13.8 16.3-5.7 3.8-12.7 6.7-21 8.1-5.8 1-14.3 1.8-25.2 1.8h-56.7v-173h25.9v69.2h32.6c23.6 0 40.2 6.9 49.5 16.8 9.2 9.8 13.8 22.9 13.8 37 0.1 8.2-1.7 16.9-5.1 23.8zM812 98.9c0-8.7-2.6-15.7-8-20.4-5.4-4.7-14.9-7.7-28.3-7.7h-32.9v51.9h32.5c9.6 0 16.1 0.6 19.6-0.3 5.2-1.4 9.2-3.7 12.4-8.1 3.1-4.4 4.7-9.2 4.7-15.4zM552.5 656h216.2c4.8 0 8.6 3.7 8.6 8.5s-3.9 8.5-8.6 8.5H552.5c-4.8 0-8.6-3.7-8.6-8.5s3.8-8.5 8.6-8.5zM768.7 595H552.5c-4.8 0-8.6-3.7-8.6-8.5s3.9-8.5 8.6-8.5h216.2c4.8 0 8.6 3.7 8.6 8.5s-3.8 8.5-8.6 8.5zM768.7 526H552.5c-4.8 0-8.6-3.7-8.6-8.5s3.9-8.5 8.6-8.5h216.2c4.8 0 8.6 3.7 8.6 8.5s-3.8 8.5-8.6 8.5zM768.7 405H241.1c-4.8 0-8.6-3.7-8.6-8.5s3.9-8.5 8.6-8.5h527.6c4.8 0 8.6 3.7 8.6 8.5s-3.8 8.5-8.6 8.5zM768.7 327H241.1c-4.8 0-8.6-3.7-8.6-8.5s3.9-8.5 8.6-8.5h527.6c4.8 0 8.6 3.7 8.6 8.5s-3.8 8.5-8.6 8.5zM509.3 206H241.1c-4.8 0-8.6-3.7-8.6-8.5s3.9-8.5 8.6-8.5h268.1c4.8 0 8.6 3.7 8.6 8.5s-3.8 8.5-8.5 8.5zM509.3 128H241.1c-4.8 0-8.6-3.7-8.6-8.5s3.9-8.5 8.6-8.5h268.1c4.8 0 8.6 3.7 8.6 8.5s-3.8 8.5-8.5 8.5zM458 664.4c0 4.8-3.9 8.6-8.6 8.6H241.6c-4.8 0-8.6-3.9-8.6-8.6v-155.7c0-4.8 3.9-8.6 8.6-8.6h207.7c4.8 0 8.6 3.9 8.6 8.6V664.4zM250 656h190v-139H250z"  horiz-adv-x="1024" />

    
    <glyph glyph-name="RTF1" unicode="&#58961;" d="M860.9 12.5c0-27.9-22.6-50.6-50.6-50.6H179.2c-27.9 0-50.6 22.6-50.6 50.6V781.4c0 27.9 22.6 50.6 50.6 50.6h631.1c27.9 0 50.6-22.6 50.6-50.6v-768.9zM843.6 781.4c0 18.4-14.9 33.3-33.3 33.3H179.2c-18.4 0-33.3-14.9-33.3-33.3v-768.9c0-18.4 14.9-33.3 33.3-33.3h631.1c18.4 0 33.3 14.9 33.3 33.3V781.4zM895.3-27.4c0-20.2-16.3-36.5-36.5-36.5H673.4c-20.2 0-36.5 16.3-36.5 36.5V158c0 20.2 16.3 36.5 36.5 36.5h185.4c20.2 0 36.5-16.3 36.5-36.5v-185.4zM237.5 659.6H763c4.8 0 8.6 3.9 8.6 8.6 0 4.8-3.9 8.6-8.6 8.6H237.5c-4.8 0-8.6-3.9-8.6-8.6 0-4.7 3.8-8.6 8.6-8.6zM763 599.4H237.5c-4.8 0-8.6-3.9-8.6-8.6 0-4.8 3.9-8.6 8.6-8.6H763c4.8 0 8.6 3.9 8.6 8.6 0 4.7-3.9 8.6-8.6 8.6zM763 530.4H237.5c-4.8 0-8.6-3.9-8.6-8.6 0-4.8 3.9-8.6 8.6-8.6H763c4.8 0 8.6 3.9 8.6 8.6 0 4.8-3.9 8.6-8.6 8.6zM763 409.8H237.5c-4.8 0-8.6-3.9-8.6-8.6 0-4.8 3.9-8.6 8.6-8.6H763c4.8 0 8.6 3.9 8.6 8.6 0 4.8-3.9 8.6-8.6 8.6zM763 332.3H237.5c-4.8 0-8.6-3.9-8.6-8.6 0-4.8 3.9-8.6 8.6-8.6H763c4.8 0 8.6 3.9 8.6 8.6 0 4.8-3.9 8.6-8.6 8.6zM504.5 211.7h-267c-4.8 0-8.6-3.9-8.6-8.6s3.9-8.6 8.6-8.6h267c4.8 0 8.6 3.9 8.6 8.6s-3.8 8.6-8.6 8.6zM504.5 134.2h-267c-4.8 0-8.6-3.9-8.6-8.6s3.9-8.6 8.6-8.6h267c4.8 0 8.6 3.9 8.6 8.6s-3.8 8.6-8.6 8.6zM671.4 142.8H792v-17.2H671.4zM671.4 108.4h86.1v-17.2h-86.1zM671.4 73.9h51.7v-17.2h-51.7zM731.7-12.2l16.4 17.2h78.3v-17.3h34.5V125.6h-44.7L684.1-12.2h47.6z m94.7 97.5v-45.9h-46.1l46.1 45.9z"  horiz-adv-x="1024" />

    
    <glyph glyph-name="XLS1" unicode="&#58962;" d="M860.9 12.5c0-27.9-22.6-50.6-50.6-50.6H179.2c-27.9 0-50.6 22.6-50.6 50.6V781.4c0 27.9 22.6 50.6 50.6 50.6h631.1c27.9 0 50.6-22.6 50.6-50.6v-768.9zM843.6 781.4c0 18.4-14.9 33.3-33.3 33.3H179.2c-18.4 0-33.3-14.9-33.3-33.3v-768.9c0-18.4 14.9-33.3 33.3-33.3h631.1c18.4 0 33.3 14.9 33.3 33.3V781.4zM895.3-27.4c0-20.2-16.3-36.5-36.5-36.5H673.4c-20.2 0-36.5 16.3-36.5 36.5V158c0 20.2 16.3 36.5 36.5 36.5h185.4c20.2 0 36.5-16.3 36.5-36.5v-185.4zM734.2-3.6l26.8 98.9 26.7-98.9h28.1l32.1 129.2h-26.8l-20-92.2-22.7 92.2h-32.1l-25.4-90.9-20.1 90.9h-28l32-129.2zM754.3 668.3H237.5c-4.8 0-5.5-3.7-5.5-8.5v-525.5c0-4.8 0.7-8.8 5.5-8.8h258.4c4.8 0 11.8 4 11.8 8.8V263.4h246.7c4.8 0 11.8 4 11.8 8.8V659.8c-0.1 4.8-7.1 8.5-11.9 8.5z m-505-275.7h241.2v-112H249.3v112z m0 17.2v112h241.2v-112H249.3z m258.4 112h241.2v-112H507.7v112z m241.2 17.3H507.7V651h241.2v-111.9zM249.3 651h241.2v-112H249.3V651z m241.2-508.2H249.3V263.4h241.2v-120.6z m17.2 249.8h241.2v-112H507.7v112z"  horiz-adv-x="1024" />

    
    <glyph glyph-name="DOC" unicode="&#58907;" d="M64 832v-896h896V832zM120 776h784v-784H120zM420.8 160l92.6 342.9L606.1 160h97.3l111.3 448H722l-69.5-319.8L573.7 608H462.5l-88.1-315.1L304.9 608h-97.3l111.2-448z"  horiz-adv-x="1024" />

    
    <glyph glyph-name="PDF" unicode="&#58903;" d="M64 841.5v-915h896v915zM121.2 784.3h781.6v-800.7H121.2zM203.7 62l16-8.4c9.3-5.2 18.8-6.3 25.1-6.3 43 0 91.4 50.8 156.7 164.6 72.5 23.8 155.4 43.4 228.3 54.1 58.8-32.2 127.5-53.7 171.7-53.7 8.5 0 16.1 0.9 21.9 2.6 10.3 2.8 18.6 8.6 24.1 16.9 8.5 13.2 11.6 31.6 8.9 52.4 0 7.2-4.4 16-10.8 21.4-14.8 14.5-45.4 21.9-91.2 21.9-31.9 0-67.1-2.6-101.9-7.4l-1.5 0.9c-15.3 9-31.1 18.3-42.8 30-35.6 33.4-65.6 79.5-84.5 130 1.2 4.3 1.9 8.4 2.6 12.4 0.9 4.8 21 119.5 15.5 160.3-0.7 5.1-1.4 7.2-2.7 10.7l-2.4 19.7c-6.3 15.4-19.6 43.1-40.5 43.1h-10.8c-22.5 0-41.5-24.8-46.2-42.4-12.6-47.1-0.4-120.5 23.3-213.4l-5.3-15.6c-16.7-40.2-36.8-82.1-56.1-119.9l-2.3-5.4c-16.3-32.6-32-61.1-45.9-85.9l-6.1-11.1-15-7.6c-0.3-0.1-30.4-15.5-36.7-20.4-59.7-35.5-97.7-74.9-104.3-107.8-3.6-15.6 1.4-29.5 12.9-35.7z m550.7 215.1c23.6 0 29.9 0 52.4-6 10.4-2.4 14.4-5.9 15.6-7.7-3.6-1.1-11.3-2.2-17.1-2.2-16.7 0-36.5 5.7-62.3 15.9h11.4z m-259 387.1c4.2-6.7 9.8-24.7 10.5-53.3 0.5-19.4-2.5-34.5-6.5-46.3-3.8 20.5-5.6 44.8-5.6 63.5-0.1 13 0.5 28 1.6 36.1z m-45.4-361c18.4 35.6 32.9 66.8 44.2 94.8 20.6-34.9 46.2-65.1 76.2-90.1l0.8-0.7c-51.4-11.4-97.5-24.3-139.8-39.2 6.7 12.1 12.8 23.7 18.6 35.2zM315.7 180.79999999999995c2.3 2.3 9.3 8.5 15.4 14.7-44.7-72.5-74.8-101-94.8-110.3 7.6 20.1 36.2 60.1 79.4 95.6z"  horiz-adv-x="1024" />

    
    <glyph glyph-name="PPT" unicode="&#58905;" d="M64 832v-896h896V832zM120 776h784v-784H120zM325.3 141.29999999999995v504h188.1c34 0 59.9-2.8 77.9-6 25.1-4.1 46.2-12.5 63.2-24s30.7-28 41-48.8c10.3-20.8 15.5-43.8 15.5-68.7 0-42.7-13.9-78-41.5-107.6-27.7-29.6-77.8-43.6-150.1-43.6h-138v-205.3h-56.1z m56 261.4h139c43.8 0 74.8 8.7 93.2 24.7 18.4 16 27.6 38.8 27.6 67.9 0 21-5.4 39.2-16.2 54.2-10.8 14.9-25.1 27.8-42.8 32.5-11.4 3-32.5 7.4-63.2 7.4H381.3v-186.7zM400 141.29999999999995h-93.3v504h206.7c34.1 0 60.7 0.6 79.1-2.7 25.9-4.2 48.1-11.3 65.9-23.4 17.9-12.2 32.5-28.8 43.3-50.6 10.8-21.7 16.3-45.5 16.3-71.3 0-44.3-14.6-77.8-43.4-108.6-28.9-30.9-81.1-42.1-155.2-42.1H400v-205.3z m0 261.4h120.4c41.9 0 71.7 11.7 88.7 26.5s25.2 37.2 25.2 64.4c0 19.4-5 37.3-14.9 51-10 13.8-22.7 20.1-39 24.5-10.7 2.8-31.4 1.7-61.4 1.7H400v-168.1z"  horiz-adv-x="1024" />

    
    <glyph glyph-name="RTF" unicode="&#58908;" d="M64 832v-896h896V832zM120 776h784v-784H120zM176 608h392v-56H176zM176 496h280v-56H176zM176 384h168v-56H176zM390.6 104l53.4 56h236v-56h112V552H665.4L235.9 104h154.7zM680 419v-147H548.6L680 419z"  horiz-adv-x="1024" />

    
    <glyph glyph-name="XLS" unicode="&#58906;" d="M912.2 832H64v-896h896V832zM120 776h784v-784H120zM512 104v56h-50.5l49.9 91.7L622.3 104h139.9L580 369.4 741.5 608H606.8l-95.3-139.8L416.1 608H281.4l161.5-238.6L260.7 104z"  horiz-adv-x="1024" />

    
    <glyph glyph-name="huanyihuan" unicode="&#58965;" d="M139.5712 488.07936l3.26144 0c47.57504 166.57408 198.33856 288.62976 376.83712 288.62976 177.88416 0 328.29952-121.43104 376.36096-287.24224l0.62464 0.20992c3.95264-8.73984 12.41088-14.90944 22.26176-14.90944 13.66528 0 24.68864 11.65312 24.68864 25.9328 0 2.6368-0.55808 5.13024-1.24928 7.49056l0 0c-0.07168 0.07168-0.13824 0.20992-0.13824 0.34816-0.20992 0.90112-0.41472 1.59744-0.75776 2.49856-56.10496 183.14752-223.7184 316.16-421.9136 316.16-201.74336 0-371.78368-137.86624-424.83712-326.28736L32.3584 518.9376l49.58208-150.8352 126.2848 100.28032L139.5712 488.07936 139.5712 488.07936 139.5712 488.07936zM1003.24352 229.82656l-49.5872 150.8352-126.14656-100.352 67.6864-19.48672c-48.75264-164.36224-198.54336-284.68224-375.53152-284.68224-176.55808 0-325.93408 119.76704-375.10656 283.63776l-0.2048 0c-2.98496 10.60864-12.416 18.72384-23.78752 18.72384-13.66016 0-24.76032-11.58656-24.76032-25.87136 0-1.53088 0.13824-3.05664 0.4864-4.37248l-0.4864-0.27648c54.23104-186.48064 223.37024-322.33472 423.6544-322.33472 200.1408 0 369.0752 135.57248 423.51616 321.50016L1003.24352 229.82656 1003.24352 229.82656 1003.24352 229.82656z"  horiz-adv-x="1024" />

    
    <glyph glyph-name="shouye" unicode="&#58915;" d="M940.555469 335.073792 534.314496 740.136448l-6.889165 7.276749c0 0-8.859136 10.247373-14.951014 11.184742-0.230298 0.049152-0.459469 0-0.71936 0.049152-0.261939-0.049152-0.523981 0-0.752128-0.049152-6.417408-2.759885-15.10144-11.965542-15.10144-11.965542l-6.709043-6.494925L83.736166 335.843328c-34.625843 9.382707-63.433011 32.582042-79.520973 64.00256L436.77655 833.027891c42.50665 42.587853 111.466701 42.587853 153.974374 0l433.248051-433.91785C1007.192576 366.77161 976.783974 343.541658 940.555469 335.073792zM885.75232 297.112269l0-331.98545c0-36.29353-30.408704-65.721754-67.945984-65.721754L649.346585-100.594935c0.162714 2.044518 0.555725 4.006195 0.555725 6.09792L649.90231 165.573682c0 37.519462-27.794022 67.943322-62.061773 67.943322L444.428082 233.517003c-34.300416 0-62.061773-30.423859-62.061773-67.943322l0-260.069681c0-2.091622 0.361267-4.053299 0.555725-6.09792L212.172989-100.593919c-37.536256 0-67.945984 29.428224-67.945984 65.721754L144.227005 304.094272 511.753933 699.265638 885.75232 297.112269z"  horiz-adv-x="1024" />

    
    <glyph glyph-name="fanhuidingbu" unicode="&#58914;" d="M853.303828 292.420235 537.476743 610.320539c-6.996344 7.033184-16.140609 10.414187-25.248034 10.345626-1.233084 0.100284-2.286066 0.697895-3.518127 0.697895-5.132904 0-9.91686-1.195222-14.308891-3.164063-4.433986-1.693572-8.652054-4.25593-12.239765-7.846712l-284.98566-284.489356c-13.753235-13.715373-13.784958-35.978423-0.037862-49.726541 6.859221-6.890944 15.860223-10.340509 24.898063-10.340509 9.001001 0 17.971303 3.450589 24.865317 10.271948l226.643903 226.289839 0-457.391265c0-19.446911 15.753799-35.168987 35.163871-35.168987 19.415189 0 35.168987 15.727193 35.168987 35.168987l0 459.116559 259.559571-261.248026c6.858198-6.894014 15.932878-10.376325 24.929786-10.376325 9.006118 0 17.938558 3.416819 24.795732 10.234085C866.983385 256.376321 867.019201 278.671093 853.303828 292.420235L853.303828 292.420235 853.303828 292.420235zM895.542838 691.697941 121.887536 691.697941c-19.415189 0-35.168987 15.753799-35.168987 35.159778 0 19.415189 15.753799 35.168987 35.168987 35.168987l773.654278 0c19.441794 0 35.159778-15.753799 35.159778-35.168987C930.701592 707.45174 914.984632 691.697941 895.542838 691.697941L895.542838 691.697941 895.542838 691.697941zM895.542838 691.697941"  horiz-adv-x="1024" />

    
    <glyph glyph-name="tupian" unicode="&#58912;" d="M329.143 457.143c40.393 0 73.143 32.75 73.143 73.143 0 40.411-32.75 73.143-73.143 73.143-40.357 0-73.143-32.732-73.143-73.143 0-40.393 32.786-73.143 73.143-73.143zM658.286 502.857l-216.75-305.642-112.393 156.036-182.857-261.822h731.428zM950.857 804.571H73.143c-20.215 0-36.572-16.374-36.572-36.571v-768c0-20.215 16.357-36.571 36.572-36.571h877.714c20.215 0 36.572 16.356 36.572 36.571V768c0 20.197-16.357 36.571-36.572 36.571z m-36.571-768H109.714V731.43h804.572V36.57z"  horiz-adv-x="1024" />

    
    <glyph glyph-name="star_full" unicode="&#58919;" d="M958.733 484.651l-299.475 57.753-147.26 268.060-147.257-268.060-299.476-57.753 208.463-223.396-37.841-303.719 276.111 129.984 276.093-129.984-37.841 303.719z"  horiz-adv-x="1024" />

    
    <glyph glyph-name="wujiaoxing" unicode="&#58920;" d="M913.22368 460.45184c12.02176 11.71456 16.65024 25.45664 12.6976 37.66272-3.97312 12.20608-15.79008 20.5824-32.41984 23.01952l-209.03936 30.37184c-17.32608 2.51904-39.34208 18.49344-47.104 34.2016l-93.47072 189.41952c-7.41376 15.07328-19.06688 23.71584-31.90784 23.71584s-24.45312-8.64256-31.88736-23.71584l-93.4912-189.41952c-7.76192-15.70816-29.75744-31.68256-47.104-34.2016L130.47808 521.13408c-16.62976-2.43712-28.44672-10.81344-32.41984-23.01952-3.95264-12.20608 0.67584-25.94816 12.6976-37.66272l151.26528-147.43552c12.53376-12.24704 20.95104-38.11328 17.98144-55.37792l-35.69664-208.1792c-2.84672-16.56832 1.47456-30.39232 11.85792-37.94944 5.09952-3.70688 11.18208-5.55008 17.79712-5.55008 6.90176 0 14.37696 2.02752 21.95456 5.98016l186.96192 98.304c15.50336 8.15104 42.7008 8.15104 58.22464 0l186.96192-98.28352c14.90944-7.84384 29.3888-7.9872 39.75168-0.43008 10.36288 7.53664 14.70464 21.38112 11.85792 37.94944l-35.69664 208.15872c-2.99008 17.28512 5.44768 43.15136 17.98144 55.3984L913.22368 460.45184zM713.68704 252.43648l35.71712-208.1792c0.79872-4.64896 0.3072-7.04512 0.512-7.59808-0.96256 0-3.3792 0.3072-7.55712 2.47808l-186.96192 98.304c-24.35072 12.77952-62.48448 12.75904-86.81472 0l-186.96192-98.304c-4.17792-2.17088-6.59456-2.47808-7.0656-2.82624-0.3072 0.90112-0.77824 3.29728 0.02048 7.94624l35.71712 208.1792c4.62848 27.11552-7.14752 63.3856-26.8288 82.57536l-151.26528 147.43552c-3.3792 3.29728-4.38272 5.50912-4.87424 5.85728 0.75776 0.53248 2.88768 1.7408 7.5776 2.41664l209.01888 30.37184c27.21792 3.95264 58.0608 26.37824 70.22592 51.01568l93.47072 189.41952c2.10944 4.23936 3.8912 5.89824 4.07552 6.4512 0.75776-0.55296 2.56-2.21184 4.64896-6.4512l93.4912-189.41952c12.16512-24.63744 43.008-47.06304 70.20544-51.01568l209.03936-30.37184c4.7104-0.67584 7.29088-1.4336 7.3728-1.86368-0.28672-0.90112-1.29024-3.11296-4.68992-6.41024l-151.26528-147.43552C720.83456 315.82208 709.03808 279.552 713.68704 252.43648"  horiz-adv-x="1024" />

    
    <glyph glyph-name="guanbi" unicode="&#59060;" d="M812.672 73.576L541.184 345.128l-271.544-271.544a27.56 27.56 0 0 0-38.872 0 27.544 27.544 0 0 0 0 38.872l271.608 271.488-271.544 271.6a27.544 27.544 0 0 0 0 38.872 27.56 27.56 0 0 0 38.872 0l271.488-271.608 271.544 271.488a27.44 27.44 0 0 0 38.872 0 27.488 27.488 0 0 0 0-38.816L580 383.936l271.544-271.608a27.408 27.408 0 0 0 0-38.752 27.56 27.56 0 0 0-38.872 0z"  horiz-adv-x="1024" />

    
    <glyph glyph-name="xie" unicode="&#58942;" d="M717.024 556.578L599.081 674.004 245.244 321.726l117.944-117.422z m117.95 117.426c16.28 16.21 16.28 42.496 0 58.711l-58.977 58.71c-16.285 16.21-42.688 16.21-58.973 0l-88.455-88.07 117.945-117.422 88.46 88.071zM215.521 292.396l-39.257-156.533 157.226 39.093z m700.903-242.34H106.468c-23.136 0-41.894-18.715-41.894-41.792 0-23.083 18.758-41.8 41.894-41.8h809.955c23.135 0 41.894 18.717 41.894 41.8 0 23.077-18.758 41.792-41.893 41.792z"  horiz-adv-x="1024" />

    
    <glyph glyph-name="jiantouyou" unicode="&#58978;" d="M227.995823-153.172173l55.053059-55.050804 508.518058 508.606717L283.048882 808.930081l-55.053059-55.050804 453.561194-453.528284L227.995823-153.172173zM227.995823-153.172173"  horiz-adv-x="1024" />

    
    <glyph glyph-name="fenxiang" unicode="&#58909;" d="M813.815808 143.920896c-47.316992 0-89.266176-22.638592-115.88608-57.590784L391.732224 268.657408c3.479552 13.412352 5.520384 27.387904 5.520384 41.885696 0 4.209664-0.329728 8.311808-0.622592 12.433408l306.341888 184.58112c26.740736-31.304704 66.44224-51.22048 110.843904-51.22048 80.526336 0 145.801216 65.28 145.801216 145.800192S894.34112 747.934464 813.815808 747.934464c-80.521216 0-145.795072-65.27488-145.795072-145.796096 0-15.977472 2.64704-31.286272 7.397376-45.676544l-303.73888-157.503488c-29.49632 46.927872-81.562624 78.209024-141.05088 78.209024-92.014592 0-166.624256-74.60352-166.624256-166.624256s74.609664-166.622208 166.624256-166.622208c49.321984 0 93.500416 21.556224 124.012544 55.607296l318.255104-164.604928c-3.060736-11.764736-4.856832-24.052736-4.856832-36.800512 0-80.524288 65.278976-145.798144 145.801216-145.798144 80.521216 0 145.795072 65.273856 145.795072 145.798144C959.635456 78.646016 894.34112 143.920896 813.815808 143.920896L813.815808 143.920896zM813.815808 143.920896"  horiz-adv-x="1024" />

    
    <glyph glyph-name="icon-test" unicode="&#58910;" d="M512.125355 15.131885c-21.550829 0-39.087227 18.830881-39.087227 41.994439v166.246325H302.348608c-21.549805 0-39.071877 18.838044-39.071878 41.978067 0 23.156396 17.522072 41.99444 39.071878 41.99444h170.68952v119.644961H303.555086c-21.533432 0-39.087227 18.839067-39.087227 41.994439 0 23.156396 17.552771 41.99444 39.087227 41.99444h151.364383L296.424688 681.197796c-7.382131 7.937786-11.456936 18.485003-11.456936 29.691229 0 11.213389 4.074805 21.76163 11.456936 29.692253 7.381108 7.937786 17.207917 12.286838 27.630291 12.286837 10.437723 0 20.249183-4.349051 27.631314-12.286837l158.746514-170.524768 157.289325 168.957063c7.397481 7.937786 17.207917 12.310374 27.646664 12.310373 10.406001 0 20.23281-4.372587 27.613918-12.310373 7.397481-7.930623 11.456936-18.454304 11.456936-29.667694 0-11.206226-4.059456-21.738094-11.456936-29.668716L565.944098 510.978996h155.691945c21.549805 0 39.086204-18.838044 39.086203-41.99444 0-23.155373-17.537422-41.99444-39.086203-41.994439H551.211559v-119.643938h169.466669c21.549805 0 39.087227-18.838044 39.087227-41.994439 0-23.140023-17.538445-41.978067-39.087227-41.978067H551.211559v-166.246325c0-23.164582-17.552771-41.995463-39.086204-41.995463z"  horiz-adv-x="1024" />

    
    <glyph glyph-name="duigou" unicode="&#58972;" d="M355.680257 321.242813 450.514135 137.429391c0 0 154.103774 373.570207 397.098064 498.089176-5.907547-88.942705-29.623691-166.029384 11.868305-260.907265-106.685811-23.716144-325.982376-290.549376-397.11546-421.00352-100.759845 124.519991-219.311915 219.397872-302.280558 249.049193L355.680257 321.242813z"  horiz-adv-x="1024" />

    
    <glyph glyph-name="jiaguanzhu" unicode="&#58957;" d="M515.208065-60.862927c-119.772874 0-232.367255 46.421262-317.065286 130.699738-84.727707 84.346013-131.402749 196.461487-131.402749 315.78513 0 119.29499 46.675042 231.444233 131.367957 315.756477 84.699054 84.282568 197.297528 130.698714 317.071426 130.698714s232.372372-46.416146 317.036633-130.698714c84.762499-84.312244 131.402749-196.461487 131.402749-315.722708 0.028653-119.323643-46.64025-231.472885-131.402749-315.78513C747.58146-14.410965 634.981962-60.862927 515.208065-60.862927L515.208065-60.862927zM515.208065 768.039653c-102.728686 0-199.280696-39.783075-271.866874-112.051005-72.557526-72.204485-112.536053-168.242795-112.536053-270.366707 0-102.118795 39.949874-198.157105 112.500237-270.327822 72.591295-72.26793 169.137165-112.056122 271.873014-112.056122 102.700033 0 199.281719 39.788192 271.867898 112.056122 72.556503 72.233138 112.534006 168.237679 112.500237 270.361591 0 102.124935-39.944757 198.128453-112.500237 270.299169C714.489784 728.222809 617.909122 768.039653 515.208065 768.039653L515.208065 768.039653zM515.208065 768.039653M739.448222 417.657564 547.243689 417.657564 547.243689 609.861074c0 17.679661-14.350846 32.031531-32.036647 32.031531-17.678638 0-32.029484-14.350846-32.029484-32.031531l0-192.204533L290.974048 417.656541c-17.679661 0-32.029484-14.349823-32.029484-32.034601 0-17.679661 14.349823-32.031531 32.029484-32.031531L483.178581 353.59041l0-192.20351c0-17.714454 14.350846-32.031531 32.029484-32.031531 17.684778 0 32.036647 14.316054 32.036647 32.031531L547.244712 353.591433l192.204533 0c17.71343 0 32.029484 14.350846 32.029484 32.031531C771.477706 403.307741 757.161652 417.657564 739.448222 417.657564L739.448222 417.657564zM739.448222 417.657564"  horiz-adv-x="1024" />

    
    <glyph glyph-name="guanyuwomen" unicode="&#59838;" d="M512.007675 831.696462c-247.25636 0-447.704648-200.448288-447.704648-447.703625s200.448288-447.689299 447.704648-447.689299c247.255337 0 447.688275 200.433962 447.688275 447.689299S759.263012 831.696462 512.007675 831.696462zM512.007675 15.93518c-203.290009 0-368.087333 164.781974-368.087333 368.071983 0 203.27466 164.797323 368.07096 368.087333 368.07096 203.288986 0 368.07096-164.7963 368.07096-368.07096C880.078635 180.718177 715.296661 15.93518 512.007675 15.93518zM467.053834 468.621283l89.87596 0 0-382.010437-89.87596 0 0 382.010437ZM467.024158 638.829849l89.87596 0 0-91.929736-89.87596 0 0 91.929736Z"  horiz-adv-x="1024" />

    
    <glyph glyph-name="starhollow" unicode="&#58937;" d="M542.72 760.32l76.8-163.328c24.576-51.712 81.92-95.744 136.704-103.936l172.032-26.112-124.416-126.976c-39.424-40.448-61.44-111.104-52.224-167.936l29.184-179.2-154.112 84.48c-30.208 16.896-62.464 20.48-84.48 20.48-21.504 0-53.76-3.584-84.48-20.48l-153.6-84.48 29.184 179.2c9.216 56.832-12.8 128-52.224 167.936l-124.416 126.976 172.032 26.112c54.784 8.192 112.128 52.224 136.704 103.936l77.312 163.328M542.72 878.080c-17.92 0-35.84-14.336-49.152-43.008l-95.744-202.752c-13.312-28.672-49.152-55.808-79.872-60.416l-213.504-32.256c-60.416-9.216-74.24-53.248-30.208-97.792l154.624-157.696c22.016-22.528 35.84-66.56 30.208-98.304l-36.352-222.72c-7.68-45.568 9.216-72.704 39.424-72.704 11.776 0 25.088 4.096 39.936 12.288l190.976 104.96c13.312 7.68 31.232 11.264 49.152 11.264s35.84-3.584 49.152-11.264l190.976-104.96c14.848-8.192 28.672-12.288 39.936-12.288 30.208 0 47.104 26.624 39.424 72.704l-36.352 222.72c-5.12 31.744 8.192 75.776 30.208 98.304l154.624 157.696c44.032 44.544 30.208 88.576-30.208 97.792l-213.504 32.256c-30.208 4.608-66.048 31.744-79.872 60.416l-95.744 202.752c-12.8 28.672-30.72 43.008-48.128 43.008z"  horiz-adv-x="1024" />

    
    <glyph glyph-name="AI" unicode="&#58892;" d="M609.7 170.6h-61.6l-44 115.9h-179.6l-41.5-115.9h-61.6l164.4 423.6h59.6l164.3-423.6zM486.9 334.4l-65.2 176.1c-2 5.7-4.3 15.5-6.7 29.5h-1.4c-2-12.8-4.4-22.6-7-29.5l-64.6-176.1h144.9zM658.5 579.7c0 9.5 3.3 17.5 9.9 23.9 6.6 6.5 14.7 9.7 24.4 9.7 9.8 0 18.2-3.2 24.9-9.6 6.8-6.4 10.2-14.4 10.2-24.1 0-9.5-3.4-17.4-10.2-23.7s-15.1-9.4-24.9-9.4-18 3.1-24.5 9.4-9.8 14.3-9.8 23.8zM664.9 170.6v302.4h54.6v-302.4h-54.6zM64.4 831.9v-896h896v896h-896zM904.4-8.1h-784v784h616l168-168v-616z"  horiz-adv-x="1024" />

    
    <glyph glyph-name="CDR" unicode="&#58893;" d="M182.8 490.7c-27.7-27.6-41.6-64.2-41.6-109.6 0-42.3 12.3-76.2 36.9-101.9 24.6-25.7 57.5-38.5 98.7-38.5 31.9 0 58.4 5.5 79.6 16.4h0.1v34.8c-21-12.6-45.8-18.9-74.2-18.9-30.5 0-55.1 9.9-73.9 29.8-18.8 19.8-28.2 46.6-28.2 80.4 0 35.6 10.1 63.9 30.3 84.8 20.2 20.9 46.3 31.4 78.3 31.4 24.6 0 47.2-5.6 67.7-16.8v38.1c-17.9 7.7-40.6 11.5-68.1 11.5-42.7 0-77.9-13.9-105.6-41.5zM576.1 490.3c-28.9 24.9-65.2 37.3-108.7 37.3h-82v-282.1h79.1c45.5 0 82.7 13.2 111.6 39.5 28.9 26.4 43.3 61.4 43.3 105.1 0 41.9-14.4 75.3-43.3 100.2zM549.7 307c-20.5-19.5-49-29.3-85.5-29.3h-41.7v217.5l43.5-0.1c34.2 0 61.9-8.9 82.9-26.6 21-17.7 31.5-44.2 31.5-79.4s-10.2-62.5-30.7-82.1zM646.4 527.6v-282h37.1v118.7h26.7c11 0 20.5-2.9 28.4-8.5 8-5.7 16.7-16.3 26.2-32l47.7-78.3h43.8l-53.8 84.6c-9.2 14.6-16.7 25-22.4 31.1s-12.6 10.7-20.5 14v0.9c42.5 11.6 63.8 37 63.8 76.1 0 23.7-7.9 42.3-23.7 55.5-15.9 13.3-37.7 19.9-65.7 19.9h-87.6zM784.5 448.9c0-15.7-5.3-28.5-15.9-38.2s-24.3-14.6-41.3-14.6h-43.8v99.6h44.4c18.4 0 32.4-4.1 42.1-12.4 9.7-8.2 14.5-19.7 14.5-34.4zM64 832v-896h896v896h-896zM904-6h-783v783h615.7l167.3-169.2v-613.8z"  horiz-adv-x="1024" />

    
    <glyph glyph-name="DWG" unicode="&#58894;" d="M329.9 473.4c-24.1 22.4-54.4 33.6-90.8 33.6h-68.5v-253.9l66-0.1c38.1 0 69.2 11.9 93.3 35.6s36.2 55.3 36.2 94.6c0 37.7-12.1 67.8-36.2 90.2zM307.9 308.5c-17.1-17.6-40.9-26.4-71.4-26.4h-34.9v195.7h36.3c28.6 0 51.7-7.9 69.3-23.9s26.4-39.8 26.4-71.5c0-31.7-8.6-56.3-25.7-73.9zM635.5 507l-47.2-192.7c-2.5-9.5-4-17.8-4.5-24.9h-0.6c-1 9.9-2.4 18-4 24.3l-49.6 193.3h-30.5l-52-191.8c-2.9-10.9-4.6-19.5-5.1-26.1h-0.9c-0.4 8.8-1.7 17.5-3.9 26.1l-49 191.8h-34.3l69.7-254h35.8l48.8 183.3c2.2 8.2 3.7 16.8 4.3 25.9h0.6c0.4-9.2 1.8-17.9 3.9-26.2l48.4-182.9h36.1l67.3 253.9h-33.3zM691.7 473.4c-23.5-25.2-35.2-57.5-35.2-96.7 0-38.8 10.7-69.8 31.9-93 21.3-23.2 49.3-34.8 84-34.8 30.2 0 57.3 7.2 81.3 21.6v116.3h-83.3v-29h52.1v-68.7c-12.8-7.4-28.4-11.1-46.7-11.1-26.6 0-47.7 8.9-63.3 26.6-15.6 17.7-23.4 42.5-23.4 74.3 0 30.9 8.4 55.8 25.4 74.7 17 18.9 38.5 28.4 64.7 28.4 26.6 0 49.5-6.4 68.7-19.2v35.4c-18 8.7-39.9 13.1-65.9 13.1-36.7 0-66.8-12.7-90.3-37.9zM64 832v-896h896v896h-896zM904-9h-783v783h615.3l167.7-167.5v-615.5z"  horiz-adv-x="1024" />

    
    <glyph glyph-name="EPS" unicode="&#58895;" d="M251.4 372.7h102.8v32.2h-102.8v90.3h111v32.4h-148.1v-282.1h154.6v32.3h-117.5zM577.2 505.6c-17.2 14.7-41.2 22-72.3 22h-81.6v-282.2h37.1v105.5l37.3 0.1c30-1 55 7.1 75.1 24.3s30.1 39.6 30.1 67.3c0 27.3-8.6 48.3-25.7 63zM546.3 398c-11.8-10-29-15-51.6-15h-34.3v112.6h37.8c43.8 0 65.7-18.2 65.7-54.5 0-18.7-5.8-33.1-17.6-43.1zM642.6 456c0-15.5 4.6-29.3 13.7-41.4 9.2-12 28.2-25.1 57-39.2 20.8-10.1 34.9-17.5 42.5-22.4 7.5-4.9 13.5-10.5 17.8-16.8s6.5-13.4 6.5-21.3c0-28.2-20.2-42.3-60.5-42.3-13.2 0-27.2 2.4-41.9 7.3-14.8 4.9-26.5 11.1-35.3 18.6v-41.5c6.9-4.7 17.9-8.5 33.1-11.6s28.4-4.6 39.8-4.6c32.6 0 58 6.7 76.3 19.9s27.5 32.2 27.5 57c0 16.5-5.6 31.4-16.9 44.6s-31 26.5-59.2 39.7c-25.6 12.4-42.2 22.1-49.9 29.3s-11.5 16.5-11.5 27.9c0 12.8 5.5 22.9 16.6 30.1s25.4 10.8 43 10.8c26.5 0 48.4-5.9 65.7-17.7v39.7c-13.4 6.8-34.3 10.2-62.9 10.2-29.3 0-53.4-6.9-72.6-20.6-19.2-13.7-28.8-32.3-28.8-55.7zM64 832v-896h896v896h-896zM904-6h-784v783h615.4l168.6-169.2v-613.8z"  horiz-adv-x="1024" />

    
    <glyph glyph-name="JPG" unicode="&#58896;" d="M237.9 347.8c0-49.8-15.1-74.7-45.3-74.7-11.6 0-21.2 2.7-28.9 8.2v-35.5c7.6-3.4 17.4-5.1 29.1-5.1 25.4 0 45.4 9.4 60.1 28 14.7 18.6 22.1 45 22.1 79.1v179.8h-37.1v-179.8zM500.7 505.6c-17.2 14.7-41.2 22-72.3 22h-81.6v-282.2h37.1v105.5l37.3 0.1c30-1 55 7.1 75.1 24.3s30.1 39.6 30.1 67.3c0 27.3-8.6 48.3-25.7 63zM469.8 398c-11.8-10-29-15-51.6-15h-34.3v112.6h37.8c43.8 0 65.7-18.2 65.7-54.5 0-18.7-5.9-33.1-17.6-43.1zM707.6 499.9c31.8 0 59.2-7.1 82.2-21.3v39.3c-21.6 9.7-47.8 14.6-78.9 14.6-43.9 0-79.9-14-108-42.1-28.1-28.1-42.1-63.9-42.1-107.5 0-43.1 12.7-77.6 38.1-103.4 25.4-25.8 58.9-38.7 100.5-38.7 36.1 0 68.5 8 97.2 24v129.5h-99.6v-32.2h62.4v-76.3c-15.4-8.3-34-12.4-55.9-12.4-31.8 0-57 9.8-75.7 29.5s-28 47.2-28 82.5c0 34.3 10.1 62 30.4 83 20.3 21 46.1 31.5 77.4 31.5zM64 832v-896h896v896h-896zM905-6h-784v783h615.1l168.9-169.2v-613.8z"  horiz-adv-x="1024" />

    
    <glyph glyph-name="MAX" unicode="&#58897;" d="M303.6 341.5c-2.3-6.1-6.5-17.7-12.4-34.9h-1.2c-1.9 8.2-5.8 19.6-11.7 34.2l-77.8 191.2h-46.2v-278.9h32.5v183.1c0 24.7-0.6 43.5-1.7 56.5h1c3.1-15 5.8-24.9 7.8-29.7l86.9-209.9h18.9l87 211.5c2.2 5.3 4.8 14.7 7.8 28.1h0.8c-1.7-21.4-2.5-39.7-2.5-54.9v-184.7h33.9v278.9h-43.9l-79.2-190.5zM648.1 532l80.6-138.8-70.9-113.2-90.9 252h-36.4l-100.5-278.9h37.6l25.4 76.3h110l26.9-76.3h52.7l60.6 104.8c3.8 8.8 5.9 13.6 6.1 14.6h0.9c2.6-7.2 4.6-12 6-14.4l58.9-105h41.4l-83.5 140.6 82.4 138.3h-39l-54.5-95.6c-4-7.3-7.4-14.2-10.1-20.7h-0.7c-3.1 7.6-6.1 14.2-9.2 19.8l-52.1 96.5h-41.7zM503.7 361l39.5 115.9c1.6 4.5 3.1 11 4.3 19.4h0.9c1.5-9.2 2.8-15.7 4.1-19.4l39.8-116-88.6 0.1zM64.5 832v-896h895v896h-895zM902.5-9h-783v783h616.1l166.9-167.5v-615.5z"  horiz-adv-x="1024" />

    
    <glyph glyph-name="PNG" unicode="&#58898;" d="M312.9 504.3c-17.2 14.7-41.2 22-72.3 22h-81.6v-282.1h37.1v105.5h37.2c30.1-1 55.2 7.1 75.2 24.3 20.1 17.2 30.1 39.6 30.1 67.3 0 27.3-8.6 48.3-25.7 63zM282 396.7c-11.8-10-29-15-51.6-15h-34.3v112.6h37.8c43.8 0 65.7-18.2 65.7-54.5 0-18.7-5.8-33.1-17.6-43.1zM551.7 332.4c0-19.5 0.6-33.2 1.8-41.2h-0.7c-1.3 2.8-5.2 9.3-11.9 19.5l-140.7 215.6h-46.6v-282h36.7v198.3c0 20-0.5 33.2-1.5 39.5h1.1c2.4-6.1 5.7-12.2 9.8-18.4l144.6-219.5h44.1v282.2h-36.7v-194zM606 381.6c0-43.1 12.7-77.6 38.1-103.4s58.9-38.7 100.5-38.7c36.1 0 68.5 8 97.2 24l0.1 129.5h-99.7v-32.2h62.4v-76.3c-15.4-8.3-34-12.4-55.9-12.4-31.8 0-57 9.8-75.7 29.5s-28 47.2-28 82.5c0 34.3 10.1 62 30.4 83 20.3 21 46.1 31.5 77.4 31.5 31.8 0 59.2-7.1 82.2-21.3v39.3c-21.6 9.7-47.8 14.6-78.9 14.6-43.9 0-79.9-14.1-108-42.1-28.1-28.1-42.1-63.9-42.1-107.5zM64 832v-896h896v896h-896zM904-9h-783v783h615.1l167.9-167.5v-615.5z"  horiz-adv-x="1024" />

    
    <glyph glyph-name="PS" unicode="&#58899;" d="M463.8 560.9c-25.7 22.1-61.8 33.1-108.4 33.1h-122.5v-423.2h55.7v158.2h56c45.1-1.4 82.6 10.7 112.7 36.5 30.1 25.7 45.1 59.4 45.1 100.9 0 41-12.9 72.5-38.6 94.5zM417.5 399.7c-17.7-15-43.4-22.5-77.4-22.5h-51.5v168.8h56.8c65.7 0 98.5-27.2 98.5-81.7 0-28-8.8-49.6-26.4-64.6zM629.7 425.8c11 7.5 25.2 11.2 42.6 11.2 29.1 0 55.2-7.3 78.2-21.9v51.6c-22.4 8.9-46.7 13.4-72.9 13.4-33.8 0-62.2-8.1-85.3-24.2-23.1-16.1-34.6-37.5-34.6-64.3 0-18.7 5.1-34.7 15.3-47.9s32.4-26.5 66.5-40c28.4-10.4 47.2-19.3 56.5-26.9 9.3-7.5 13.9-17.1 13.9-28.8 0-27.3-21.2-41-63.7-41-31.7 0-61.3 9.7-88.8 29.2v-54.6c23.7-11.9 51.6-17.8 83.5-17.8 36.8 0 66.7 8 89.8 23.9 23.1 15.9 34.6 37.7 34.6 65.4 0 19.9-6 36.5-18.1 50s-35.3 26.5-69.6 39.1c-27.1 10.6-44.6 19.3-52.5 26-7.9 6.7-11.8 16.1-11.8 28.1 0 12.2 5.5 22 16.4 29.5zM64.5 832v-896h895v896h-895zM902.5-6h-783v783h615.9l167.1-169.2v-613.8z"  horiz-adv-x="1024" />

    
    <glyph glyph-name="RAR" unicode="&#58900;" d="M297.7 368.8c-5.4 6.1-11.7 10.7-19.1 14v0.9c39.5 11.6 59.3 37 59.3 76.1 0 23.7-7.4 42.3-22.1 55.5-14.7 13.3-35 19.9-61 19.9h-81.3v-282h34.5v118.7h24.7c10.3 0 19.1-2.9 26.4-8.5 7.4-5.7 15.4-16.3 24.3-32l44.3-78.3h40.7l-49.9 84.6c-8.5 14.6-15.5 25-20.8 31.1zM248.7 403.7h-40.7v99.6h41.2c17.1 0 30.1-4.1 39.1-12.4 8.9-8.2 13.4-19.7 13.4-34.4 0-15.7-4.9-28.5-14.7-38.2s-22.6-14.6-38.3-14.6zM475.1 535.2l-101.7-282.1h38.1l25.7 77.2h111.1l27.2-77.2h38.1l-101.6 282.1h-36.9zM448 362.2l40 117.3c1.6 4.6 3 11.2 4.3 19.7h0.9c1.5-9.4 2.8-15.9 4.1-19.7l40.3-117.3h-89.6zM652.1 535.2v-282h34.5v118.7h24.8c10.3 0 19.1-2.9 26.4-8.5 7.4-5.7 15.4-16.3 24.3-32l44.3-78.3h40.7l-50 84.6c-8.5 14.6-15.5 25-20.8 31.1-5.4 6.1-11.7 10.7-19.1 14v0.9c39.5 11.6 59.3 37 59.3 76.1 0 23.7-7.4 42.3-22.1 55.5-14.7 13.3-35 19.9-61 19.9h-81.3zM780.4 456.5c0-15.7-4.9-28.5-14.7-38.2s-22.6-14.6-38.3-14.6h-40.7v99.6h41.2c17.1 0 30.1-4.1 39.1-12.4 8.9-8.2 13.4-19.7 13.4-34.4zM64 832v-896h896v896h-896zM904-9h-784v783h615.9l168.1-167.5v-615.5z"  horiz-adv-x="1024" />

    
    <glyph glyph-name="TIF" unicode="&#58901;" d="M223.4 527.6v-32.4h82.6v-249.7h37.3v249.7h83l-0.1 32.4zM461.8 496.8h27.6v-220.6h-27.6v-30.8h92.4v30.8h-27.6v220.6h27.6v30.8h-92.4zM620.2 245.5h37.1v123.3h102.8v32.1h-102.8v94.3h111v32.4h-148.1zM64 832v-896h896v896h-896zM904-6h-783v783h615.4l167.6-169.2v-613.8z"  horiz-adv-x="1024" />

    
    <glyph glyph-name="ZIP" unicode="&#58902;" d="M232.4 502.8h140.8l-152.8-237.3v-12.4h200.9v32.2h-150.4l153.8 239v10.9h-192.3zM468.1 504.4h25.7v-220.6h-25.7v-30.8h85.8v30.8h-25.7v220.6h25.7v30.8h-85.8zM623.9 535.2v-282.1h34.5v105.5h34.6c27.9-1 51.2 7.1 69.8 24.3 18.6 17.2 27.9 39.6 27.9 67.3 0 27.3-8 48.3-23.9 63-15.9 14.7-38.3 22-67.1 22h-75.8zM754.6 448.7c0-18.7-5.5-33.1-16.4-43.1s-26.9-15-47.9-15h-31.9v112.6h35.2c40.7 0 61-18.2 61-54.5zM64 832v-896h896v896h-896zM905-9h-784v783h615.2l168.8-167.5v-615.5z"  horiz-adv-x="1024" />

    
    <glyph glyph-name="chongzhi2" unicode="&#58917;" d="M512 863.744c-265.216 0-480.256-215.040-480.256-480.256s215.040-480.256 480.256-480.256 480.256 215.040 480.256 480.256-215.040 480.256-480.256 480.256zM512-11.776c-218.624 0-395.776 177.152-395.776 395.776s177.152 395.776 395.776 395.776c218.624 0 395.776-177.152 395.776-395.776 0-218.624-177.152-395.776-395.776-395.776zM640 351.744c17.92 0 32.256 14.336 32.256 32.256s-14.336 32.256-32.256 32.256h-68.096l94.72 142.336c9.728 14.848 5.632 34.816-8.704 44.544-14.848 9.728-34.816 5.632-44.544-8.704l-101.376-152.064-101.376 152.064c-9.728 14.848-29.696 18.432-44.544 8.704-14.848-9.728-18.944-29.696-8.704-44.544l94.72-142.336h-68.096c-17.92 0-32.256-14.336-32.256-32.256s14.336-32.256 32.256-32.256h96.256v-64h-96.256c-17.92 0-32.256-14.336-32.256-32.256s14.336-32.256 32.256-32.256h96.256v-95.232c0-17.92 14.336-32.256 32.256-32.256s32.256 14.336 32.256 32.256v96.256h96.256c17.92 0 32.256 14.336 32.256 32.256s-14.336 32.256-32.256 32.256h-96.256v64h95.232z"  horiz-adv-x="1024" />

    
    <glyph glyph-name="duihuakuangneirong_xian" unicode="&#58918;" d="M512 896C228.8 896 0 696 0 448c0-140.8 75.2-267.2 192-348.8V-128l224 136c32-4.8 64-8 96-8 283.2 0 512 200 512 448S795.2 896 512 896z m0-832c-36.8 0-73.6 4.8-108.8 11.2L252.8-16l1.6 148.8C139.2 203.2 64 318.4 64 448 64 660.8 264 832 512 832s448-171.2 448-384-200-384-448-384zM736 544H288c-17.6 0-32-14.4-32-32s14.4-32 32-32h448c17.6 0 32 14.4 32 32s-14.4 32-32 32zM672 352H352c-17.6 0-32-14.4-32-32s14.4-32 32-32h320c17.6 0 32 14.4 32 32s-14.4 32-32 32z"  horiz-adv-x="1024" />

    
    <glyph glyph-name="qiuzhu" unicode="&#58922;" d="M512 782.336c44.544-10.752 190.464-49.152 343.04-104.448V362.496c0-3.072 4.608-258.56-343.04-376.832-344.576 116.736-343.04 366.08-343.04 376.832v315.392c151.04 55.296 296.96 93.696 343.04 104.448m0 62.976h-6.144c-35.328-9.216-218.112-53.76-398.336-122.88v-355.328s-10.752-312.32 404.48-444.416c416.768 130.56 404.48 444.416 404.48 444.416v353.792c-181.248 69.12-364.544 115.2-399.872 122.88-1.536 1.536-3.072 1.536-4.608 1.536zM279.04 218.624l-6.144 49.664h15.872c8.192 1.536 13.824 2.048 17.92 2.048v362.496h183.296v-344.576l26.112 4.096v-24.064c29.184 40.96 45.056 114.688 47.616 221.184 0 2.56 0.512 6.656 2.048 11.776v9.728h-51.712v49.664h51.712l2.048 95.744h51.712c-1.536-22.528-2.048-54.272-2.048-95.744h117.76c-2.56-151.552-5.12-251.904-8.192-301.056-1.536-42.496-22.528-64.512-64-65.536-10.752-1.536-33.28-2.048-67.584-2.048-2.56 15.872-6.144 32.768-9.728 49.664 20.992-1.536 39.936-2.048 55.808-2.048 22.528 0 34.304 11.264 35.84 33.792v15.872c4.096 96.768 6.144 170.496 6.144 221.184h-67.584v-11.776c-1.536-5.12-2.048-9.216-2.048-11.776 1.536-144.896-31.744-246.272-99.84-305.152-2.56 2.56-6.656 7.168-11.776 13.824-9.216 10.752-17.408 19.968-24.064 27.648l17.92 15.872c-57.344-1.536-129.536-8.704-217.088-20.48z m75.776 370.688v-75.776h85.504v75.776h-85.504z m0-117.76v-73.728h85.504v73.728h-85.504z m0-195.072h6.144c25.088 1.536 51.712 4.096 79.872 8.192v71.68h-85.504V276.48z"  horiz-adv-x="1024" />

    
    <glyph glyph-name="shouzhijilu" unicode="&#58941;" d="M961.431783 255.355138c-13.899715 32.857326-33.798307 62.364721-59.138787 87.700202s-54.852875 45.233072-87.715201 59.132787c-34.036302 14.388705-70.180561 21.687555-107.427797 21.687555s-73.392495-7.29785-107.427797-21.687555c-32.861326-13.899715-62.374721-33.795307-87.714201-59.132787s-45.233072-54.843875-59.139787-87.700202c-14.391705-34.032302-21.691555-70.170561-21.691555-107.412797s7.29985-73.382495 21.696555-107.412797c13.899715-32.858326 33.794307-62.364721 59.134787-87.701202 25.34148-25.33648 54.852875-45.231072 87.720201-59.130787 34.030302-14.393705 70.174561-21.687555 107.421797-21.687555 37.253236 0 73.397495 7.29885 107.427797 21.687555 1.094978 0.46399 2.164956 0.921981 3.229934 1.385972 13.711719 5.937878 27.074445 12.642741 39.533189 20.93957 4.496908 2.997939 8.931817 6.185873 13.076732 9.601803 6.647864 5.467888 7.637843 15.283687 2.199955 21.97355-5.453888 6.709862-15.318686 7.729841-22.033549 2.268953a134.448243 134.448243 0 0 0-9.056814-6.714862c-30.170381-20.557578-66.986626-32.68533-102.969888-37.649228a230.302277 230.302277 0 0 0-31.409356-2.169956c-65.34366 0-126.7784 25.443478-172.985453 71.644531s-71.65853 107.629793-71.65853 172.966453 25.452478 126.7624 71.65853 172.965453c46.208052 46.200053 107.641793 71.643531 172.986453 71.643531 65.35066 0 126.7844-25.443478 172.990452-71.643531 46.208052-46.203052 71.655531-107.629793 71.655531-172.966453a246.504945 246.504945 0 0 0-5.502887-51.868936 14.789697 14.789697 0 0 1-0.374993-1.645967c-0.005-0.024-0.049999-0.272994-0.138997-0.731985a242.037036 242.037036 0 0 0-13.477723-41.741143c-0.352993-0.824983-0.649987-1.566968-0.909982-2.248954a214.955592 214.955592 0 0 0-4.976898-10.389787c-3.948919-7.697842-0.912981-17.134649 6.785861-21.088568a15.62768 15.62768 0 0 1 7.139854-1.728964c5.689883 0 11.174771 3.109936 13.949714 8.515825 14.907694 29.049404 20.747575 55.11587 22.157545 62.252723 4.439909 19.770595 6.682863 40.056179 6.682863 60.674756-0.006 37.242236-7.29985 73.380495-21.697555 107.412797z m-382.178162-55.752856c0-12.497744 10.131792-22.628536 22.628536-22.628536h208.847717a22.621536 22.621536 0 0 1 19.884592 11.825757 22.623536 22.623536 0 0 1-0.894982 23.121526l-52.032933 80.198355c-6.799861 10.489785-20.812573 13.476724-31.302358 6.673863-10.488785-6.801861-13.473724-20.818573-6.668863-31.301358l29.357398-45.259072H601.882157c-12.496744 0-22.628536-10.131792-22.628536-22.630535zM835.051375 96.276401c0 12.499744-10.131792 22.629536-22.632536 22.629535H603.568122a22.625536 22.625536 0 0 1-19.885592-11.826757 22.621536 22.621536 0 0 1 0.894982-23.117526l52.033932-80.201355c4.333911-6.677863 11.596762-10.315788 19.009611-10.315789 4.217913 0 8.490826 1.176976 12.296747 3.647926 10.484785 6.797861 13.469724 20.810573 6.669864 31.294358l-29.364398 45.259072H812.413839c12.505744 0.005 22.637536 10.135792 22.637536 22.629536zM229.070802 196.980335c-12.499744 0-22.632536-10.130792-22.632536-22.629536s10.133792-22.631536 22.632536-22.631535H342.233482c12.495744 0 22.627536 10.131792 22.627535 22.630535s-10.132792 22.630536-22.627535 22.630536H229.070802z m482.390107 392.450952c0 12.499744-10.132792 22.629536-22.629535 22.629536H219.657995c-12.495744 0-22.627536-10.131792-22.627536-22.629536s10.131792-22.629536 22.627536-22.629536h469.175379c12.495744 0 22.627536 10.129792 22.627535 22.629536zM409.144109 1.72234H303.269281c-2.993939 0-5.882879-0.454991-8.603824-1.293974H143.307561c-24.3845 0-44.219093 19.836593-44.219093 44.214093V741.514168c0 24.3765 19.839593 44.212093 44.219093 44.212093h628.674107c24.3855 0 44.225093-19.835593 44.225093-44.212093v-265.917546c0-16.06767 13.023733-29.096403 29.099404-29.096404 15.067691 0 27.463437 11.452765 28.946406 26.129464l0.152997-0.009999v268.894485c0 56.465842-45.948058 102.4029-102.4229 102.4029H143.307561c-56.472842 0-102.4179-45.936058-102.4179-102.4029v-696.865709c0-56.468842 45.944058-102.4089 102.4179-102.408899l174.197428 1.292973h91.64112c16.07067 0 29.099403 13.029733 29.099404 29.095403-0.001 16.06967-13.029733 29.094403-29.099404 29.094404z m88.709181 385.971084c0 12.498744-10.132792 22.629536-22.627536 22.629536H219.655995c-12.495744 0-22.627536-10.130792-22.627536-22.629536 0-12.499744 10.131792-22.629536 22.627536-22.629536h255.569759c12.494744 0 22.627536 10.129792 22.627536 22.629536z"  horiz-adv-x="1024" />

    
    <glyph glyph-name="qqkongjian" unicode="&#59356;" d="M1024 448.16c0 11.328 0 8.256-11.328 8.256l-113.408 0-192.768 0-45.44 80.832L536.384 776.928c-11.392 0-11.392 0-22.72 0L400.256 537.248 354.88 456.416 162.048 456.416 0 456.416l0-5.184 64-45.376 179.456-158.848-40.704-363.136c0-11.328 2.304-11.328 25.024-11.328l296 181.568 295.424-181.568c11.392 0 11.712 0 22.976 11.328l-56.576 363.136 170.176 145.984L1024 448.16zM275.52 100.256l328.896 268.032-306.176 52.48 465.024 0-283.584-256.704 294.848-63.808L275.52 100.256z"  horiz-adv-x="1024" />

    
    <glyph glyph-name="weixinpengyouquan" unicode="&#59004;" d="M682.368 485.504 682.368 756.096c-50.24 21.376-105.536 33.28-163.584 33.28-42.496 0-83.456-6.464-122.048-18.24L682.368 485.504zM721.92 730.752l0-403.968 191.36 191.36c-20.416 50.688-51.072 98.112-92.16 139.2C791.104 687.36 757.568 711.808 721.92 730.752zM628.544 198.784l270.528-5.248c22.336 49.856 35.328 104.832 36.416 162.88 0.832 42.496-4.8 83.52-15.808 122.368L628.544 198.784zM652.608-14.336c51.648 17.856 100.544 46.144 143.616 85.12 31.488 28.48 57.536 60.736 78.272 95.424L471.04 186.304 652.608-14.336zM356.608 267.392l-13.504-270.272c49.152-23.872 103.744-38.464 161.728-41.408 42.432-2.112 83.648 2.24 122.816 12.096L356.608 267.392zM217.856 102.016c28.48-31.488 60.736-57.536 95.424-78.272L333.44 427.2l-200.64-181.568C150.656 194.048 178.944 145.088 217.856 102.016zM414.528 541.696 144.256 555.136C120.384 506.048 105.792 451.456 102.848 393.408 100.736 351.04 105.152 309.76 115.008 270.656L414.528 541.696zM230.976 671.296C199.488 642.816 173.44 610.56 152.704 575.872L556.16 555.776 374.592 756.416C323.008 738.56 274.048 710.272 230.976 671.296z"  horiz-adv-x="1024" />

    
    <glyph glyph-name="shangsanjiao" unicode="&#58880;" d="M34.875 37.9375 468.75 630.75 902.5 37.9375Z"  horiz-adv-x="1000" />

    
    <glyph glyph-name="xiasanjiao" unicode="&#58891;" d="M959.568037 812 64.43094 812 511.999488 300.355087Z"  horiz-adv-x="1024" />

    
    <glyph glyph-name="QQ" unicode="&#58887;" d="M971.464704 143.341312 968.998912 160.979712 965.843968 178.185984 963.337216 187.0272 960.917504 196.430592 957.71648 205.401856 954.430464 215.387904 950.668288 224.791296 946.562048 234.454784 939.254784 250.234624 932.769792 264.1344 926.285824 276.562688 920.62208 288.151296 914.138112 298.698496 909.382656 308.383488 899.309568 322.84544 886.64064 342.105856 883.70176 346.861312 882.707456 348.892928 882.707456 350.49344 884.825088 356.999936 887.763968 362.792704 890.314752 374.227712 891.742208 380.130048 891.742208 386.22592 892.478464 391.132928 892.478464 396.06144 891.742208 401.72416 890.92096 406.350592 889.061376 415.73248 886.64064 424.854272 884.435968 433.220352 880.97792 441.348864 877.08672 448.135936 874.015744 454.512384 870.601728 460.586752 865.240064 469.536512 863.25248 472.71296 862.646272 475.479808 860.182528 492.838656 858.58304 504.274688 856.767488 518.432512 853.957632 533.06752 849.547264 549.841664 847.040512 559.245056 845.049856 567.200512 842.284032 576.452352 839.171072 586.287872 836.058112 595.409664 832.079872 605.22368 823.953408 624.182016 819.15392 633.15328 813.359104 643.442432 807.913472 652.26112 802.465792 662.248192 794.769408 671.501056 788.286464 680.47232 780.374016 689.72416 772.332544 698.11072 764.203008 706.216704 754.562048 714.626816 749.504512 717.651712 744.706048 721.846016 734.329856 729.216768 722.312192 737.193728 710.032384 744.413952 697.365504 750.920448 683.531264 756.864768 670.560256 762.507008 657.027072 767.43552 642.24256 771.478272 628.7104 775.087872 614.31296 778.24384 600.694784 781.572864 585.996288 783.172352 571.597824 784.923392 557.246464 786.80448 542.416896 786.80448 528.106496 786.80448 514.271232 786.80448 499.70176 785.960704 486.040576 784.059136 472.421376 782.178048 458.587136 779.864832 444.88192 777.249536 431.911936 774.072064 418.941952 769.878784 406.880256 765.68448 394.81856 761.642752 382.712832 755.698432 371.299328 750.920448 361.182208 745.126656 350.63296 738.62016 340.90496 731.832064 331.308032 724.180736 323.396608 717.069056 310.9888 705.373952 300.698624 694.50112 290.8416 683.951872 281.8048 673.229568 273.332224 662.248192 265.895936 651.548416 258.676736 640.84864 255.304704 636.070656 252.191744 630.277888 245.446656 620.139264 240.086016 610.022144 235.33056 600.469248 231.179264 590.351104 227.115008 581.100288 223.742976 572.4096 220.63104 563.158784 217.474048 554.619648 213.279744 539.141888 210.210816 524.246784 208.525312 511.796992 206.795776 501.074688 206.795776 492.838656 206.795776 486.181632 206.795776 480.258816 203.855872 477.058816 201.17504 472.71296 199.057408 468.822784 197.240832 464.629504 194.950144 455.506688 192.442368 447.119104 191.62112 439.618304 191.058944 434.106112 191.058944 428.183296 185.265152 419.774208 181.157888 411.386624 178.045952 403.302144 175.75424 396.06144 173.98272 389.121792 172.296192 382.594816 172.296192 377.124608 172.296192 371.028736 172.296192 365.9712 173.290496 361.928448 174.716928 354.535168 176.489472 348.892928 173.290496 346.429184 164.210688 339.641088 152.236032 328.660736 144.88576 322.153216 137.709568 315.776768 132.781056 310.696704 128.7168 306.221824 119.983104 296.819456 111.68256 287.416064 105.197568 279.309056 97.415168 267.592448 89.979904 257.045248 82.629632 245.306112 76.447744 234.454784 71.303168 222.910208 65.855488 212.189952 61.877248 201.63968 57.683968 190.637824 54.571008 179.938048 51.501056 168.935168 48.77824 159.380224 47.263744 149.111552 45.57824 139.578112 44.150784 130.304768 43.287552 112.233216 43.287552 95.459072 43.287552 87.936768 44.150784 80.543488 46.44352 67.9616 47.263744 62.427904 48.77824 56.809216 50.6368 51.489536 52.366336 47.730432 55.133184 40.76928 57.25184 39.341824 58.548224 36.402944 60.191744 35.711744 61.186048 35.711744 61.877248 35.711744 69.097472 36.402944 76.447744 38.303488 82.629632 40.76928 89.114624 44.96256 95.03744 48.85376 100.39808 53.955328 106.191872 59.27296 111.077376 64.764672 115.745792 70.989568 119.983104 76.611328 123.961344 81.277696 126.425088 86.63936 131.267584 95.459072 132.781056 99.069696 133.645312 101.230336 134.076416 103.695104 135.201792 105.72672 136.066048 106.158848 137.709568 107.025152 138.74688 107.025152 139.179008 106.158848 140.000256 106.158848 140.822528 105.72672 143.545344 93.729536 146.485248 84.044544 150.419456 73.88544 154.396672 64.764672 157.72672 55.68384 162.871296 47.730432 166.631424 39.341824 170.86976 31.647488 175.75424 24.990464 179.472384 18.590464 189.329408 6.745856 197.933056-3.804416 206.2336-12.018944 214.40512-19.412224 221.495296-25.204992 232.044544-34.58688 236.281856-36.661504 237.707264-38.650112 237.707264-39.644416 236.713984-40.552704 236.281856-40.552704 234.1632-41.244928 226.250752-41.850112 218.901504-42.844416 212.718592-43.709696 206.2336-45.135104 200.569856-46.907648 194.950144-48.637184 190.021632-51.275008 186.131456-53.696768 181.157888-55.296256 178.045952-57.890048 174.716928-59.921664 171.127808-62.816512 166.631424-68.438272 164.94592-71.076096 162.871296-73.366784 160.017408-79.290624 158.461952-84.22016 156.601344-89.146624 156.212224-93.470976 156.212224-99.133696 156.212224-101.598464 155.390976-105.618688 155.390976-109.726976 154.396672-113.7472 154.396672-117.33632 155.390976-121.269504 156.212224-124.77056 158.461952-131.516672 160.017408-134.715648 162.006016-137.9136 164.210688-141.069568 166.631424-143.838464 169.875456-146.993408 172.296192-149.5872 179.472384-154.948864 186.692608-159.444224 194.950144-163.50848 203.855872-167.139584 213.279744-171.02976 223.742976-173.452544 234.1632-176.9536 245.446656-179.289344 256.688128-180.974848 268.273664-182.748416 280.249344-184.477952 303.855616-186.940672 328.195072-187.3728 350.63296-187.3728 361.182208-187.3728 371.299328-187.3728 381.847552-186.940672 390.884352-185.905408 399.617024-185.213184 407.788544-184.477952 420.931584-181.883136 430.398464-179.289344 439.392256-176.9536 455.993344-169.994496 463.516672-167.139584 470.69184-163.50848 482.53952-156.85248 493.216768-151.489792 501.129216-146.43328 506.921984-141.069568 515.95776-142.063872 522.96192-142.843136 536.79616-143.838464 543.281152-143.838464 548.770816-143.838464 552.96512-144.70272 557.246464-146.43328 564.033536-148.893952 571.597824-151.489792 585.996288-155.986176 600.694784-161.345792 615.005184-165.496064 629.445632-168.438016 644.187136-172.155136 659.448832-174.359808 673.931264-175.959296 688.458752-177.990912 702.03392-179.289344 716.560384-180.108544 730.481664-180.108544 744.013824-180.108544 756.854784-180.108544 769.823744-178.554112 782.534656-177.990912 794.769408-175.959296 806.052864-173.452544 817.337344-171.02976 828.147712-168.438016 832.641024-167.139584 837.6576-165.496064 847.040512-161.778944 855.384064-157.887744 863.25248-153.823488 870.601728-149.5872 877.08672-144.70272 879.637504-142.063872 882.707456-138.4768 886.64064-133.677312 890.92096-127.754496 892.478464-124.77056 893.169664-122.264832 894.984192-119.064832 895.676416-115.60576 895.676416-112.275712 896.54272-108.947712 895.676416-104.063232 894.984192-99.868928 893.169664-94.940416 891.742208-90.87616 889.061376-85.946624 885.820416-81.452288 882.707456-77.561088 878.513152-74.275072 869.866496-66.751744 860.182528-59.488512 850.41152-53.696768 840.121344-47.772928 816.603136-36.186368 810.9824-32.727296 809.426944-31.127808 808.430592-30.090496 819.759104-18.675968 824.644608-13.056256 828.70784-7.867648 836.619264 3.588864 844.09856 15.305472 850.41152 25.724672 856.377344 35.711744 864.375808 55.68384 870.601728 72.285952 874.707968 84.044544 877.08672 87.936768 878.513152 91.092736 880.97792 92.995328 882.015232 92.995328 882.707456 92.561152 888.759296 80.543488 894.163968 68.957952 897.968128 62.427904 901.901312 56.809216 905.793536 49.892096 910.808064 43.058944 915.001344 38.303488 917.552128 35.711744 920.059904 33.374976 922.351616 31.647488 924.557312 30.046976 929.398784 27.582208 931.90656 26.717952 933.593088 26.717952 935.839744 26.717952 938.391552 27.582208 941.548544 29.18272 945.050624 30.783232 947.945472 33.374976 950.668288 36.402944 953.73824 40.164096 956.158976 43.058944 958.88384 47.730432 960.917504 51.489536 963.337216 56.809216 964.6336 61.304576 968.136704 72.285952 970.426368 84.434688 972.068864 97.902336 973.193216 105.72672 973.193216 112.233216 973.193216 119.194368 973.193216 127.712Z"  horiz-adv-x="1024" />

    
    <glyph glyph-name="weixin" unicode="&#58888;" d="M669.029188 494.604186c10.181291 0 20.235686-0.748037 30.23789-1.865487C672.100256 619.271534 536.831031 713.269371 382.414962 713.269371c-172.618362 0-314.03484-117.659747-314.03484-267.066545 0-86.2422 47.044337-157.061129 125.674313-211.988112l-31.406554-94.467535 109.75511 55.05285c39.302708-7.78122 70.80955-15.765055 110.010947-15.765055 9.849726 0 19.624747 0.481977 29.323017 1.243317-6.144182 20.996197-9.69827 42.982954-9.69827 65.792449C402.040732 383.267449 519.845498 494.604186 669.029188 494.604186zM500.167537 579.743262c23.639342 0 39.302708-15.550161 39.302708-39.185464 0-23.536043-15.66439-39.300075-39.302708-39.300075-23.535984 0-47.146672 15.765055-47.146672 39.300075C453.021889 564.193101 476.632577 579.743262 500.167537 579.743262zM280.402504 501.2567c-23.537007 0-47.300174 15.765055-47.300174 39.300075 0 23.635303 23.76419 39.185464 47.300174 39.185464 23.53496 0 39.200373-15.550161 39.200373-39.185464C319.602877 517.021755 303.937464 501.2567 280.402504 501.2567zM955.617831 249.85288c0 125.543298-125.622123 227.882104-266.733643 227.882104-149.41292 0-267.090791-102.338806-267.090791-227.882104 0-125.770472 117.677871-227.879034 267.090791-227.879034 31.278636 0 62.837668 7.896854 94.243199 15.765055l86.119862-47.170323-23.612735 78.473259C908.675829 116.327794 955.617831 179.034974 955.617831 249.85288zM602.306891 289.141698c-15.638806 0-31.431114 15.549138-31.431114 31.416524 0 15.651468 15.792308 31.405267 31.431114 31.405267 23.73963 0 39.302708-15.754822 39.302708-31.405267C641.609599 304.690836 626.04652 289.141698 602.306891 289.141698zM775.027587 289.141698c-15.538518 0-31.201884 15.549138-31.201884 31.416524 0 15.651468 15.66439 31.405267 31.201884 31.405267 23.535984 0 39.300661-15.754822 39.300661-31.405267C814.329272 304.690836 798.563571 289.141698 775.027587 289.141698z"  horiz-adv-x="1024" />

    
    <glyph glyph-name="unie61d" unicode="&#58890;" d="M-56.57 852.89v0 0zM743.314 324.4q-16.558 3.318-21.501 9.921t-1.659 12.145l3.318 5.508q1.094 1.094 2.224 3.318t4.414 9.391 4.978 14.334 2.753 17.652-0.564 19.877-6.638 20.407-13.805 19.877q-15.463 15.463-40.284 19.877t-49.641 0.564-46.885-9.921-36.4-11.581l-14.334-6.638q-11.050-3.318-18.218-4.414t-11.050 0.564-6.073 3.318-1.659 7.732 1.094 10.485 2.753 13.805 3.318 14.899q0 13.239-1.659 24.819t-7.167 25.914-15.994 23.161-26.48 14.334-41.379 3.318-57.372-13.239q-38.624-13.239-78.342-39.154t-68.951-54.052-53.523-54.618-37.53-43.038l-12.145-17.652q-36.4-47.451-54.052-94.901t-16.558-71.707v-23.161q6.638-52.958 32.551-94.901t61.785-67.857 84.415-44.132 93.242-26.48 94.337-11.581q81.662-6.638 169.36 12.675t163.289 66.763 106.481 113.649q18.747 38.624 19.313 72.836t-11.581 55.712-31.457 38.060-36.4 24.29-30.327 9.921zM406.816-18.735q-119.156-5.508-202.443 46.356t-83.285 131.301q0 78.342 82.756 135.15t203.007 62.35 203.007-39.718 82.756-123.569q0-79.438-84.415-142.882t-201.348-68.951zM374.83 286.906q-31.986-3.318-57.372-14.899t-39.718-26.48-24.29-31.986-13.805-33.646-4.978-30.327-1.094-21.501l1.094-8.827v-4.414q0-3.318 2.224-13.239t6.073-18.218 12.675-18.218 20.972-16.558q72.836-35.306 135.714-21.501t101.503 63.443q15.463 18.747 20.407 46.356t-2.224 55.712-24.819 51.299-52.394 35.871-80.003 7.167zM335.11 78.355q-6.638-1.094-12.675-0.564t-11.050 2.224-9.921 3.847-8.261 6.073-6.073 7.732-4.414 8.827-1.659 10.485q0 12.145 6.638 23.725t18.218 19.877 25.914 9.391q9.921 1.094 19.313-0.564t15.994-5.508 11.581-8.827 7.167-11.581 2.224-14.334q0-12.145-7.167-23.161t-19.313-18.747-26.48-8.827zM428.882 157.793q-7.732-5.508-15.994-4.978t-11.581 7.167l-2.224 4.414q-1.094 2.224-1.094 4.414v4.414q0 3.318 1.094 5.508l2.224 4.414q1.094 2.224 3.318 3.318l3.318 4.414q8.827 6.638 17.088 5.508t11.581-8.827q3.318-4.414 2.753-9.921t-3.318-10.485-7.167-9.391zM820.562 388.409q6.638 0 12.145 3.318t8.827 8.261 4.414 10.485q1.094 1.094 1.094 3.318 13.239 125.794-88.265 143.446-29.798 5.508-55.182 1.094-7.732 0-13.239-3.847t-9.391-9.921-3.847-12.675q0-11.050 7.732-18.747t18.747-7.732q86.075 19.877 92.677-55.182 2.224-18.747-2.224-35.306 0-11.050 7.732-18.747t18.747-7.732zM801.815 699.522q-48.545 11.050-130.207-4.414-1.094 0-2.224-1.094l-1.094-2.224-1.094-1.094q-12.145-3.318-19.877-13.805t-7.732-22.63q0-16.558 11.050-27.574t26.48-11.050h3.318q1.094 0 4.978 1.094t8.261 1.659 9.391 2.224 8.827 3.318 14.899 1.659 27.044-1.659 35.306-8.261 38.624-16.558 38.624-27.574 33.646-40.813q28.704-65.104 11.050-125.794 0-1.094-0.564-2.224t-1.659-5.508-2.224-8.261-2.224-9.921-1.094-10.485q0-9.921 5.508-16.558t13.805-9.391 19.313-2.753q30.893 0 36.4 37.53 13.239 43.038 14.899 82.192t-5.508 68.951-21.501 55.712-33.116 44.132-41.943 33.116-44.697 23.725-44.697 14.334z"  horiz-adv-x="1024" />

    
    <glyph glyph-name="zhifubao" unicode="&#58889;" d="M665.600029 197.6c70.4 128 96 249.6 96 249.6l-12.8 0 0 0L640.000029 447.2 524.800029 447.2 524.800029 536.8l281.6 0L806.400029 575.2 524.800029 575.2 524.800029 709.6l-128 0 0-134.4-256 0 0-38.4 256 0 0-89.6L179.200029 447.2l0-38.4 441.6 0c0-6.4 0-6.4-6.4-12.8C614.400029 351.2 582.400029 287.2 556.800029 236 230.400029 364 134.400029 287.2 108.800029 274.4c-217.6-153.6-12.8-345.6 19.2-339.2 230.4-51.2 377.6 44.8 480 166.4 6.4-6.4 12.8-6.4 19.2-6.4 70.4-38.4 409.6-198.4 409.6-198.4s0 140.8 0 192C985.600029 88.8 800.000029 152.8 665.600029 197.6zM499.200029 140c-160-204.8-352-140.8-384-128C38.400029 31.2 12.800029 172 108.800029 216.8c160 51.2 300.8-6.4 403.2-57.6C505.600029 146.4 499.200029 140 499.200029 140z"  horiz-adv-x="1037" />

    
    <glyph glyph-name="xianshimima" unicode="&#58970;" d="M514.656503 506.999358c-92.491531 0-167.481456-74.989925-167.481456-167.481456s74.989925-167.481456 167.481456-167.481456 167.481456 74.989925 167.481456 167.481456S607.148034 506.999358 514.656503 506.999358zM514.656503 227.862917c-61.566194 0-112.936165 51.30141-112.936165 112.882953 0 61.565171 50.087768 111.652939 111.652939 111.652939 61.58052 0 111.653963-50.087768 111.653963-111.652939C625.028263 279.164327 576.237023 227.862917 514.656503 227.862917zM957.975261 347.232608c-0.326435 1.403976-0.161682 2.902096-0.597611 4.27742-0.164752 0.589424-0.547469 0.929162-0.73678 1.434675-0.301875 0.789992-0.218988 1.727341-0.629333 2.492774-81.204463 185.879478-256.152984 292.872281-442.637236 292.872281-186.466855 0-364.946806-106.799398-446.166619-292.695249-0.354064-0.778736-0.299829-1.595334-0.572028-2.481518-0.191358-0.543376-0.599657-0.846274-0.777713-1.362021-0.435928-1.403976-0.25992-2.879584-0.532119-4.294816-0.51677-2.508123-0.99363-4.962012-0.99363-7.480368 0-2.577708 0.476861-4.962012 0.99363-7.497765 0.272199-1.391696 0.096191-2.929726 0.532119-4.26821 0.177032-0.626263 0.586354-0.896416 0.777713-1.442862 0.272199-0.778736 0.217964-1.717108 0.572028-2.480494 81.219813-185.882548 257.957073-291.130613 444.423929-291.130613 186.482205 0 363.175463 105.030102 444.38095 290.914696 0.410346 0.786922 0.327458 1.633197 0.629333 2.5071 0.189312 0.490164 0.572028 0.845251 0.73678 1.376347 0.435928 1.349741 0.271176 2.862187 0.597611 4.27742 0.491187 2.511193 0.953721 4.948709 0.953721 7.513114C958.927959 342.284923 958.466448 344.695832 957.975261 347.232608zM511.630586 89.002312c-158.14481 0-313.810149 83.358523-390.286937 250.965845C197.099007 506.971729 354.832448 592.484312 513.3743 592.484312c158.485571 0 312.720328-85.606727 388.503315-252.719792C826.149886 172.79881 670.171416 89.002312 511.630586 89.002312z"  horiz-adv-x="1024" />

    
    <glyph glyph-name="yincangmima" unicode="&#58935;" d="M1024.1792 582.7328C1024.2048 582.784 1024.2048 582.8096 1024.2048 582.8608l-0.0256 0c-0.2048 9.2928-10.6496 17.9968-23.8848 17.9968 0 0-14.8992 1.3056-25.7024-13.6704l-4.0448-5.9392c-0.4352-0.5376-0.7936-1.0752-1.152-1.5872l0 0C892.672 464.7168 710.7584 348.2624 512.2048 348.2624c-197.5296 0-378.8032 115.5328-456.4736 230.1184-0.512 0.8704-1.1264 1.7664-1.8688 2.7648l-1.152 1.7152L52.6848 582.8608l-2.8672 4.224c-10.8032 14.976-25.7024 13.6704-25.7024 13.6704-13.184 0-23.6032-8.6272-23.8848-17.8944L0.2048 582.8608c0-0.0512 0.0256-0.1024 0.0256-0.1792S0.2048 582.5536 0.2048 582.4768c0-2.8928 1.0496-5.6064 2.8416-8.0128 0.0256-0.0256 0.0512-0.0768 0.0768-0.128l9.1648-13.7216c33.8944-50.4832 83.7376-98.4832 143.5392-138.9056l-109.3632-55.7312c-10.752-5.4784-14.0288-16.9984-7.296-25.728 6.7072-8.7552 20.8384-11.4176 31.5648-5.9392l123.8784 63.0784c5.5808-3.2256 11.2128-6.4256 16.9216-9.4976 50.56-27.4944 103.552-48.0768 157.312-61.4144L315.0848 191.5392c-3.8912-9.8048 2.6624-20.352 14.72-23.5008 12.032-3.2 24.96 2.1504 28.8768 11.9552l54.6816 137.1904c32.9728-5.6576 66.048-8.5248 98.8416-8.5248s65.8688 2.8672 98.816 8.5248l54.7072-137.1904c3.8912-9.8048 16.8192-15.1552 28.8768-11.9552 12.0576 3.1488 18.6368 13.696 14.72 23.5008l-53.8112 134.9376c53.7856 13.3376 106.752 33.92 157.312 61.4144 5.7088 3.0976 11.3152 6.272 16.896 9.5232l123.904-63.104c10.752-5.4784 24.8832-2.7904 31.5904 5.9392 6.7072 8.7552 3.456 20.2752-7.296 25.728l-109.44 55.7568c59.6992 40.3712 109.3632 88.3456 143.0528 138.7008l9.4976 13.5424c0.3584 0.4864 0.6144 0.9728 0.9216 1.4592C1023.3856 577.6128 1024.2048 580.0192 1024.2048 582.5792 1024.2048 582.6304 1024.1792 582.6816 1024.1792 582.7328L1024.1792 582.7328z"  horiz-adv-x="1025" />

    
    <glyph glyph-name="wodedianping" unicode="&#58976;" d="M146.944 201.216l-51.712-235.008 235.008 51.712 481.792 482.816-182.272 182.272-482.816-481.792zM677.888 504.832l-365.568-365.568-45.056 45.056 365.568 365.568 45.056-45.056zM798.72 801.792c-29.184 0-56.32-9.728-78.336-26.112l-51.712-51.712 182.272-182.272 52.736 51.2c15.872 21.504 26.112 48.64 26.112 78.336-1.024 71.68-58.88 130.56-131.072 130.56z"  horiz-adv-x="1024" />

    
    <glyph glyph-name="shoucang" unicode="&#58950;" d="M589.522824-6.023529C560.067765 9.456941 512.090353 9.366588 482.816-6.023529L275.847529-114.838588C216.967529-145.799529 178.386824-117.488941 189.590588-52.163765L229.104941 178.296471C234.736941 211.124706 219.828706 256.692706 196.126118 279.792941L28.702118 443.000471C-18.944 489.441882-3.915294 534.889412 61.650824 544.406588L293.044706 578.017882C325.993412 582.806588 364.724706 611.087059 379.392 640.752941L482.876235 850.432C512.331294 910.095059 560.188235 909.854118 589.492706 850.432L692.976941 640.752941C707.704471 610.906353 746.586353 582.776471 779.324235 578.017882L1010.718118 544.406588C1076.555294 534.829176 1091.132235 489.261176 1043.666824 443.000471L876.242824 279.792941C852.389647 256.542118 837.662118 210.913882 843.264 178.296471L882.778353-52.163765C894.012235-117.729882 855.160471-145.679059 796.521412-114.838588L589.522824-6.023529 589.522824-6.023529Z"  horiz-adv-x="1085" />

    
    <glyph glyph-name="zantong" unicode="&#58946;" d="M95.093-1.812c-0.019 0-0.041 0-0.063 0-17.695 0-32.041 14.345-32.041 32.041 0 0.025 0 0.051 0 0.076v449.582c0 0.019 0 0.041 0 0.063 0 17.695 14.345 32.041 32.041 32.041 0.022 0 0.044 0 0.067 0 0.015 0 0.038 0 0.060 0 17.695 0 32.041-14.345 32.041-32.039 0-0.022 0-0.044 0-0.067v-449.402c0-0.062 0.001-0.134 0.001-0.207 0-17.715-14.362-32.076-32.076-32.076-0.009 0-0.020 0-0.029 0zM865.879 511.989h-190.026c13.815 32.103 29.692 115.119 20.538 190.71-7.245 60.067-42.624 106.147-94.050 123.75-38.16 12.942-78.543 6.561-100.286-15.533-25.893-26.406-37.98-76.114-50.922-128.753-8.46-34.343-17.082-70.065-27.953-88.533-31.239-53.164-96.651-77.319-109.764-81.63h-90.090c-0.021 0-0.047 0-0.071 0-17.695 0-32.041-14.345-32.041-32.039 0-0.025 0-0.051 0-0.076v-449.403c0-0.019 0-0.041 0-0.063 0-17.695 14.345-32.041 32.041-32.041 0.022 0 0.044 0 0.067 0h86.811c26.928-14.499 126.855-64.206 242.658-64.206h216.612c35.73 0 97.173 13.806 120.123 51.948 23.13 38.665 72.144 390.060 72.144 428.886 0.172 53.505-52.29 96.993-95.786 96.993zM834.811 19.077c-4.833-8.108-36.585-20.708-65.070-20.708h-216.765c-114.606 0-215.91 64.197-216.945 64.197h-80.442v385.227h64.206c2.592 0 5.003 0.855 7.425 1.548 0.513 0.18 1.035 0 1.548 0.18 0.617 0.318 1.343 0.515 2.113 0.542 0.479 0.314 1.343 0.314 2.207 0.836 19.503 6.39 102.861 37.449 145.665 110.286 15.533 26.406 25.020 65.070 34.857 105.795 9.153 37.972 20.718 85.257 34.173 98.892 3.114 2.592 18.126 6.039 36.937-1.377 15.364-6.048 42.121-23.13 47.808-69.903 12.601-102.87-31.59-200.718-31.932-201.753-1.887-3.904-2.989-8.49-2.989-13.334 0-6.338 1.888-12.234 5.132-17.159 5.694-8.665 15.498-14.382 26.637-14.382 0.077 0 0.153 0 0.23 0.001h236.094c8.802 0 31.751-15.022 31.751-32.967 0.18-42.975-49.356-365.543-62.649-395.919z"  horiz-adv-x="1024" />

    
    <glyph glyph-name="duihuakuang2" unicode="&#58913;" d="M152.512325 879.590483C70.324042 879.590483 1.710407 825.364736 1.710407 760.402205v-556.202316c0-64.952552 68.613636-119.174308 150.801918-119.174307h301.847312l-0.244472-169.431636s-3.017475-67.072967 64.081436-34.825696c41.729767 45.800964 134.215783 134.856398 207.108167 204.257332h130.946852c82.184292 0 150.799923 54.221756 150.799923 119.174307V760.403203c0 64.962531-68.615631 119.188277-150.800921 119.188277h-703.738297z"  horiz-adv-x="1024" />

    
    <glyph glyph-name="xiazai" unicode="&#58928;" d="M422.4 515.584l70.656-78.336V778.24c0 31.232 25.088 56.32 56.32 56.32s56.32-25.088 56.32-56.32v-340.992l70.656 78.336c10.24 11.264 25.088 18.432 41.984 18.432 31.232 0 56.32-25.088 56.32-56.32 0-14.336-5.632-27.648-14.336-37.376l-168.96-187.392c-10.24-11.264-25.088-18.432-41.984-18.432-16.384 0-31.744 7.168-41.984 18.432l-168.96 187.392c-9.216 9.728-14.336 23.04-14.336 37.376 0 31.232 25.088 56.32 56.32 56.32 16.896 0 31.744-7.168 41.984-18.432zM980.992-66.048h-862.72c-31.232 0-56.32 25.088-56.32 56.32V271.36c0 31.232 25.088 56.32 56.32 56.32s56.32-25.088 56.32-56.32v-224.768h750.08V271.36c0 31.232 25.088 56.32 56.32 56.32s56.32-25.088 56.32-56.32v-281.088c-0.512-31.232-25.6-56.32-56.32-56.32z"  horiz-adv-x="1110" />

    
    <glyph glyph-name="sousuo" unicode="&#58883;" d="M1005.259682-118.84639 781.242606 105.53089c-4.856611 4.868891-10.435677 8.575306-16.391319 11.147898 56.985876 72.039733 91.012853 163.073052 91.012853 262.050298 0 233.485729-189.288111 422.747233-422.748257 422.747233-233.461169 0-422.747233-189.261505-422.747233-422.747233 0-233.460146 189.286064-422.748257 422.747233-422.748257 99.070366 0 190.18248 34.091446 262.254959 91.176582 2.566452-5.931083 6.254447-11.493775 11.097756-16.349363L930.485675-193.569232c20.588921-20.643156 54.080709-20.643156 74.722842-0.053212C1025.850649-173.030453 1025.850649-139.540711 1005.259682-118.84639zM433.116907 61.667893c-175.094854 0-317.060169 141.964292-317.060169 317.060169 0 175.09383 141.964292 317.060169 317.060169 317.060169 175.095877 0 317.060169-141.965316 317.060169-317.060169C750.178099 203.632185 608.212784 61.667893 433.116907 61.667893z"  horiz-adv-x="1024" />

    
    <glyph glyph-name="zhuanti" unicode="&#58886;" d="M959.972002-127.968002 64.027998-127.968002C28.670208-127.968002 0.031998-99.329792 0.031998-63.972002L0.031998-31.974002C0.031998 3.383789 28.670208 32.021999 64.027998 32.021999L959.972002 32.021999C995.297794 32.021999 1023.968002 3.383789 1023.968002-31.974002L1023.968002-63.972002C1023.968002-99.329792 995.297794-127.968002 959.972002-127.968002ZM959.972002 96.017999 64.027998 96.017999C28.670208 96.017999 0.031998 124.656209 0.031998 160.013999L0.031998 192.011999C0.031998 227.369789 28.670208 256.008 64.027998 256.008L959.972002 256.008C995.297794 256.008 1023.968002 227.369789 1023.968002 192.011999L1023.968002 160.013999C1023.968002 124.656209 995.297794 96.017999 959.972002 96.017999ZM959.972002 320.035998 64.027998 320.035998C28.670208 320.035998 0.031998 348.706206 0.031998 384.031998L0.031998 832.035998C0.031998 867.36179 28.670208 896 64.027998 896L959.972002 896C995.297794 896 1023.968002 867.36179 1023.968002 832.035998L1023.968002 384.031998C1023.968002 348.706206 995.297794 320.035998 959.972002 320.035998Z"  horiz-adv-x="1024" />

    
    <glyph glyph-name="me" unicode="&#58881;" d="M512 142.767027 382.337662 237.714286C173.494857 195.535879 36.571429 48.003152 36.571429-128L987.428571-128C987.428571 48.003152 850.505143 195.535879 641.662336 237.714286L512 142.767027ZM804.571429 603.428571C804.571429 764.993016 673.564445 896 512 896 350.435555 896 219.428571 764.993016 219.428571 603.428571 219.428571 441.864126 350.435555 310.857143 512 310.857143 673.564445 310.857143 804.571429 441.864126 804.571429 603.428571Z"  horiz-adv-x="1024" />

    
    <glyph glyph-name="tuxing1" unicode="&#58882;" d="M1023.772444 384c0-282.661926-229.110519-511.772444-511.772444-511.772444-282.661926 0-511.81037 229.110519-511.81037 511.772444 0 282.661926 229.148444 511.81037 511.81037 511.81037C794.661926 895.81037 1023.772444 666.661926 1023.772444 384zM172.449185 317.022815l205.027556-106.078815 104.903111-205.63437 34.967704-2.958222 289.185185 612.16237-28.444444 27.268741L168.884148 356.16237 172.449185 317.022815zM240.602074 337.199407 658.356148 529.787259 395.264 266.088296 376.301037 269.615407ZM692.754963 491.861333 429.056 228.16237 434.36563 214.509037 497.170963 85.940148 692.754963 488.296296Z"  horiz-adv-x="1024" />

    
    <glyph glyph-name="tiezi-huati-copy" unicode="&#58885;" d="M512.838 891.59c-279.828 0-506.686-198.489-506.686-443.341 0-139.937 74.272-264.533 190.005-345.788v-224.236l221.971 134.691c30.72-5.086 62.307-8.019 94.71-8.019 279.833 0 506.681 198.489 506.681 443.348 0.001 244.852-226.855 443.342-506.686 443.342v0 0zM671.174 289.914h-316.675c-17.491 0-31.666 14.172-31.666 31.663s14.176 31.666 31.666 31.666h316.675c17.487 0 31.67-14.176 31.67-31.666-0.003-17.491-14.183-31.663-31.67-31.663v0 0zM734.514 479.915h-443.348c-17.494 0-31.67 14.18-31.67 31.666 0 17.491 14.176 31.67 31.67 31.67h443.348c17.487 0 31.666-14.18 31.666-31.67-0.003-17.487-14.183-31.666-31.666-31.666v0 0z"  horiz-adv-x="1024" />

    
    <glyph glyph-name="fenlei1" unicode="&#59233;" d="M31.997194 895.937459l63.993986 0c17.654007 0 31.996277-14.375201 31.996277-31.996277l0-63.993986c0-17.689802-14.34227-32.000573-31.996277-32.000573L31.997194 767.946623c-17.656871 0-32.000573 14.313634-32.000573 32.000573l0 63.993986C-0.003379 881.562258 14.340323 895.937459 31.997194 895.937459zM415.968271 895.937459l831.937574 0c17.654007 0 32.000573-14.375201 32.000573-31.996277l0-63.993986c0-17.689802-14.346565-32.000573-32.000573-32.000573L415.968271 767.946623c-17.654007 0-31.996277 14.313634-31.996277 32.000573l0 63.993986C383.970562 881.562258 398.314264 895.937459 415.968271 895.937459zM31.997194 0.003035l63.993986 0c17.654007 0 31.996277-14.375201 31.996277-31.993414l0-64.001145c0-17.682643-14.34227-32.000573-31.996277-32.000573L31.997194-127.992097c-17.656871 0-32.000573 14.31793-32.000573 32.000573l0 64.001145C-0.003379-14.372166 14.340323 0.003035 31.997194 0.003035zM415.968271 0.003035l831.937574 0c17.654007 0 32.000573-14.375201 32.000573-31.993414l0-64.001145c0-17.682643-14.346565-32.000573-32.000573-32.000573L415.968271-127.992097c-17.654007 0-31.996277 14.31793-31.996277 32.000573l0 64.001145C383.970562-14.372166 398.314264 0.003035 415.968271 0.003035zM31.997194 447.970963l63.993986 0c17.654007 0 31.996277-14.375201 31.996277-31.996277l0-64.001145c0-17.682643-14.34227-31.993414-31.996277-31.993414L31.997194 319.980127c-17.656871 0-32.000573 14.310771-32.000573 31.993414l0 64.001145C-0.003379 433.595762 14.340323 447.970963 31.997194 447.970963zM415.968271 447.970963l831.937574 0c17.654007 0 32.000573-14.375201 32.000573-31.996277l0-64.001145c0-17.682643-14.346565-31.993414-32.000573-31.993414L415.968271 319.980127c-17.654007 0-31.996277 14.310771-31.996277 31.993414l0 64.001145C383.970562 433.595762 398.314264 447.970963 415.968271 447.970963z"  horiz-adv-x="1280" />

    
    <glyph glyph-name="sjiantou02-copy-copy" unicode="&#58884;" d="M545.771-3.031l391.828 398.892c16.492 16.869 16.492 44.148 0 61.023-16.571 16.875-43.491 16.875-60.062 0l-364.482-371.197-364.626 371.198c-16.571 16.875-43.357 16.874-59.923 0-16.571-16.875-16.571-44.154 0-61.023l391.685-398.894c9.045-9.283 21.054-13.006 32.864-12.236 11.727-0.771 23.675 2.95 32.715 12.236v0zM513.056 297.3c11.732-0.849 23.675 2.946 32.715 12.090l391.828 398.898c16.492 16.869 16.492 44.148 0 61.163-16.571 16.871-43.491 16.729-60.062 0l-364.481-371.341-364.626 371.341c-16.571 16.729-43.357 16.872-59.923 0-16.571-17.015-16.571-44.292 0-61.163l391.685-398.897c9.045-9.145 21.054-12.939 32.863-12.090v0zM513.056 297.3z"  horiz-adv-x="1024" />

    
    <glyph glyph-name="jiaocheng" unicode="&#58911;" d="M793.682427 613.964532V102.27971H298.512744c-56.539714 0-102.337783 12.241812-102.337783 68.756967 0 56.565297 45.797046 86.346577 102.337783 86.346577h442.303638V768.018164H264.382413c-75.02881 0-136.440485-61.411675-136.440486-136.465045v-494.596631c0-75.054393 61.411675-136.465045 136.440486-136.465045h631.087259V613.964532h-101.787245zM332.61647 205.164962H740.816382v-49.02046H332.61647v49.02046z"  horiz-adv-x="1024" />

    
    <glyph glyph-name="zuo" unicode="&#58904;" d="M742.067 896L281.933 435.865l-51.865-51.864 51.865-51.865L742.067-128l51.865 51.865L333.797 384 793.932 844.135z"  horiz-adv-x="1024" />

    
    <glyph glyph-name="paihangbang" unicode="&#59023;" d="M931.6-7.8h-28.2V327.9c0 31.6-25.3 56.1-56.5 56.1H736c-31.7 0-56.5-25.1-56.5-56.1v-335.6h-56V775.4c0 31.2-25.3 56.4-56.5 56.4H456.1c-31.7 0-56.5-25.2-56.5-56.4v-783.2h-56v560c0 30.8-25.3 55.7-56.5 55.7H176.3c-31.7 0-56.5-25-56.5-55.7v-559.9H91.6c-15.1 0-27.8-12.5-27.8-28 0-15 12.4-28 27.8-28h839.9c15.2 0 27.8 12.5 27.8 28 0 15-12.4 27.9-27.7 27.9"  horiz-adv-x="1024" />

    
    <glyph glyph-name="huodong" unicode="&#58926;" d="M512.512 326.656c-5.12 0-10.752 1.024-15.872 3.072l-471.552 196.096c-14.848 6.144-25.088 20.992-25.088 36.864 0 16.384 9.728 30.72 25.088 36.864l471.552 196.096c9.728 4.096 21.504 4.096 31.232 0l471.552-196.096c15.36-6.144 25.088-20.992 25.088-36.864 0-16.384-9.728-30.72-25.088-36.864l-471.552-196.096c-4.608-2.048-10.24-3.072-15.36-3.072z m0-180.736c-5.12 0-10.752 1.024-15.872 3.072l-471.552 196.096c-20.48 8.704-30.208 32.256-22.016 52.736 8.704 20.48 32.256 30.208 52.736 21.504l455.68-189.44 455.68 189.44c20.48 8.704 44.032-1.024 52.736-21.504 8.704-20.48-1.024-44.032-22.016-52.736l-471.552-196.096c-3.072-2.048-8.704-3.072-13.824-3.072z m0-176.128c-5.12 0-10.752 1.024-15.872 3.072l-471.552 196.096c-20.48 8.704-30.208 32.256-22.016 52.736 8.704 20.48 32.256 30.208 52.736 21.504l455.68-189.44 455.68 189.44c20.48 8.704 44.032-1.024 52.736-21.504 8.704-20.48-1.024-44.032-22.016-52.736l-471.552-196.096c-3.072-2.048-8.704-3.072-13.824-3.072z"  horiz-adv-x="1024" />

    


  </font>
</defs>
</svg>
