<?xml version="1.0" standalone="no"?>
<!DOCTYPE svg PUBLIC "-//W3C//DTD SVG 1.1//EN" "http://www.w3.org/Graphics/SVG/1.1/DTD/svg11.dtd" >
<!--
2013-9-30: Created.
-->
<svg>
<metadata>
Created by iconfont
</metadata>
<defs>

<font id="iconfont" horiz-adv-x="1024" >
  <font-face
    font-family="iconfont"
    font-weight="500"
    font-stretch="normal"
    units-per-em="1024"
    ascent="896"
    descent="-128"
  />
    <missing-glyph />
    
    <glyph glyph-name="liuyan" unicode="&#59204;" d="M511.913993-32.016126c-8.256677 0-16.341341 3.096254-22.705863 9.460776l-95.983874 95.983874c-12.55703 12.55703-12.55703 32.682681 0 45.239711s32.682681 12.55703 45.239711 0l73.450025-73.450025 73.450025 73.450025c6.020494 6.020494 14.105157 9.460776 22.705863 9.460776l223.962372 0c17.717453 0 31.994625 14.277171 31.994625 31.994625L864.026877 672.037628c0 17.545439-14.277171 31.994625-31.994625 31.994625l-639.892491 0c-17.545439 0-31.994625-14.449185-31.994625-31.994625l0-511.913993c0-17.717453 14.449185-31.994625 31.994625-31.994625l95.983874 0c17.717453 0 31.994625-14.277171 31.994625-31.994625s-14.277171-31.994625-31.994625-31.994625l-95.983874 0c-52.980346 0-95.983874 43.003528-95.983874 95.983874L96.155888 672.037628c0 52.980346 43.003528 95.983874 95.983874 95.983874l639.892491 0c52.980346 0 95.983874-43.003528 95.983874-95.983874l0-511.913993c0-52.980346-43.003528-95.983874-95.983874-95.983874L621.142953 64.139761 534.619856-22.55535C528.427348-28.747858 520.17067-32.016126 511.913993-32.016126zM335.943558 384.086007c-26.490173 0-47.991937 21.501764-47.991937 47.991937s21.501764 47.991937 47.991937 47.991937 47.991937-21.501764 47.991937-47.991937S362.433731 384.086007 335.943558 384.086007zM527.911305 384.086007c-26.490173 0-47.991937 21.501764-47.991937 47.991937s21.501764 47.991937 47.991937 47.991937 47.991937-21.501764 47.991937-47.991937S554.401478 384.086007 527.911305 384.086007zM720.051067 384.086007c-26.490173 0-47.991937 21.501764-47.991937 47.991937s21.501764 47.991937 47.991937 47.991937c26.490173 0 47.991937-21.501764 47.991937-47.991937S746.369226 384.086007 720.051067 384.086007z"  horiz-adv-x="1024" />

    
    <glyph glyph-name="shouye" unicode="&#58974;" d="M940.555469 335.073792 534.314496 740.136448l-6.889165 7.276749c0 0-8.859136 10.247373-14.951014 11.184742-0.230298 0.049152-0.459469 0-0.71936 0.049152-0.261939-0.049152-0.523981 0-0.752128-0.049152-6.417408-2.759885-15.10144-11.965542-15.10144-11.965542l-6.709043-6.494925L83.736166 335.843328c-34.625843 9.382707-63.433011 32.582042-79.520973 64.00256L436.77655 833.027891c42.50665 42.587853 111.466701 42.587853 153.974374 0l433.248051-433.91785C1007.192576 366.77161 976.783974 343.541658 940.555469 335.073792zM885.75232 297.112269l0-331.98545c0-36.29353-30.408704-65.721754-67.945984-65.721754L649.346585-100.594935c0.162714 2.044518 0.555725 4.006195 0.555725 6.09792L649.90231 165.573682c0 37.519462-27.794022 67.943322-62.061773 67.943322L444.428082 233.517003c-34.300416 0-62.061773-30.423859-62.061773-67.943322l0-260.069681c0-2.091622 0.361267-4.053299 0.555725-6.09792L212.172989-100.593919c-37.536256 0-67.945984 29.428224-67.945984 65.721754L144.227005 304.094272 511.753933 699.265638 885.75232 297.112269z"  horiz-adv-x="1024" />

    
    <glyph glyph-name="weixin1" unicode="&#58989;" d="M809.092 611.667c10.732 0 24.145 0 34.877-2.682-32.195 147.556-187.798 257.551-370.23 257.551-201.213 0-364.865-136.824-364.865-311.208 0-101.947 53.656-182.432 147.556-246.819l-37.559-109.996 128.776 64.387c45.608-10.732 80.485-18.78 126.093-18.78 13.414 0 24.145 0 34.877 0-5.365 24.145-10.732 50.974-10.732 77.802 0 160.97 136.824 289.746 311.208 289.746zM613.246 710.933c26.828 0 45.608-18.78 45.608-45.608s-18.78-45.608-45.608-45.608c-29.512 0-56.34 18.78-56.34 45.608 0 26.828 26.828 45.608 56.34 45.608zM355.694 619.716c-26.828 0-53.656 18.78-53.656 45.608s26.828 45.608 53.656 45.608c26.828 0 45.608-18.78 45.608-45.608 0-26.828-18.78-45.608-45.608-45.608zM1144.446 327.288c0 144.873-147.556 265.6-311.208 265.6-174.383 0-311.208-120.727-311.208-265.6 0-147.556 136.824-265.6 311.208-265.6 34.877 0 72.437 8.049 109.996 16.097l99.265-53.656-26.828 91.217c72.437 56.34 128.776 128.776 128.776 211.943zM731.292 372.895c-18.78 0-37.559 16.097-37.559 34.877s18.78 37.559 37.559 37.559c26.828 0 45.608-18.78 45.608-37.559 0-18.78-18.78-34.877-45.608-34.877zM932.503 372.895c-18.781 0-34.877 16.097-34.877 34.877s16.097 37.559 34.877 37.559c26.828 0 45.608-18.78 45.608-37.559 0-18.78-18.781-34.877-45.608-34.877z"  horiz-adv-x="1257" />

    
    <glyph glyph-name="dianhua1" unicode="&#59167;" d="M704.512 508.928q21.504-25.6 46.08-52.224 20.48-23.552 45.568-52.224t51.712-58.368q33.792-38.912 55.808-69.632t34.816-56.32 17.408-47.104 4.608-43.008v-66.56q0-30.72-10.24-55.296t-28.16-42.496-40.96-27.648-48.64-9.728H200.704q-27.648 0-52.736 9.216t-44.032 26.112-30.208 40.448-11.264 53.248v78.848q0 24.576 4.608 47.104T83.968 230.4t33.792 52.736 54.272 61.952q26.624 28.672 54.784 57.856t50.688 52.736q26.624 27.648 51.2 53.248h375.808zM512 120.832q26.624 0 50.176 10.24t40.96 27.648 27.648 41.472 10.24 50.688-10.24 50.176-27.648 40.96-40.96 27.648T512 379.904t-50.688-10.24-41.472-27.648-27.648-40.96-10.24-50.176 10.24-50.688 27.648-41.472 41.472-27.648T512 120.832z m513.024 512v-64.512q0-26.624-18.944-45.056t-45.568-18.432h-128q-26.624 0-45.056 18.432t-18.432 45.056v64.512H256v-64.512q0-26.624-18.432-45.056t-45.056-18.432h-128q-26.624 0-45.568 18.432T0 568.32v66.56q0 12.288 6.144 20.992t15.36 15.872 20.48 12.8 22.528 12.8q11.264 6.144 50.688 27.136T214.528 768 350.72 807.936t162.304 17.408q98.304 0 175.616-17.408T822.784 768t91.136-43.52 46.592-27.136q12.288-7.168 23.552-12.8t20.48-12.8 14.848-15.872 5.632-20.992v-2.048z"  horiz-adv-x="1026" />

    
    <glyph glyph-name="qiye" unicode="&#59172;" d="M928 64 896 64 896 512c0 70.4-57.6 128-128 128L576 640 576 704c0 70.4-57.6 128-128 128L192 832C121.6 832 64 774.4 64 704l0-640L32 64C14.08 64 0 49.92 0 32 0 14.08 14.08 0 32 0l896 0c17.92 0 32 14.08 32 32C960 49.92 945.92 64 928 64zM512 640l0-64 0-512L128 64 128 704c0 35.2 28.8 64 64 64l256 0c35.2 0 64-28.8 64-64L512 640zM832 64 576 64 576 576l192 0c35.2 0 64-28.8 64-64L832 64zM416 640l-192 0C206.08 640 192 625.92 192 608 192 590.08 206.08 576 224 576l192 0C433.92 576 448 590.08 448 608 448 625.92 433.92 640 416 640zM416 448l-192 0C206.08 448 192 433.92 192 416 192 398.08 206.08 384 224 384l192 0C433.92 384 448 398.08 448 416 448 433.92 433.92 448 416 448zM416 256l-192 0C206.08 256 192 241.92 192 224S206.08 192 224 192l192 0C433.92 192 448 206.08 448 224S433.92 256 416 256zM736 448l-64 0C654.08 448 640 433.92 640 416 640 398.08 654.08 384 672 384l64 0C753.92 384 768 398.08 768 416 768 433.92 753.92 448 736 448zM736 256l-64 0c-17.92 0-32-14.08-32-32s14.08-32 32-32l64 0c17.92 0 32 14.08 32 32S753.92 256 736 256z"  horiz-adv-x="1024" />

    
    <glyph glyph-name="yonghu1" unicode="&#58973;" d="M102.7328-27.89888c-16.69632 0-30.27968 13.48096-30.27968 30.04416l0 73.63584c0 73.54368 22.2464 144.35328 64.33792 204.75904 41.10336 58.98752 98.16576 104.20224 165.02272 130.7392l11.00288 4.37248-9.33376 7.28576C250.88 463.98976 220.70784 525.3376 220.70784 591.25248c0 118.07232 96.72192 214.12864 215.6032 214.12864 118.87616 0 215.59808-96.06144 215.59808-214.12864 0-65.91488-30.17216-127.26272-82.76992-168.32l-9.33376-7.28576 11.00288-4.37248c66.86208-26.53696 123.92448-71.73632 165.02272-130.71872 42.0864-60.40576 64.3328-131.22048 64.3328-204.77952l0-73.63584c0-16.5632-13.58336-30.03904-30.27968-30.03904L102.7328-27.89888 102.7328-27.89888zM436.352 377.11872c-167.25504 0-303.32928-135.18336-303.32928-301.3376l0-43.60192 606.58688 0 0 43.60192C739.60448 241.93536 603.56608 377.11872 436.352 377.11872L436.352 377.11872zM436.31616 745.30816c-85.48864 0-155.03872-69.10976-155.03872-154.0608 0-84.94592 69.55008-154.05568 155.03872-154.05568 85.48352 0 155.0336 69.10976 155.0336 154.05568C591.34976 676.1984 521.79968 745.30816 436.31616 745.30816L436.31616 745.30816zM858.06592 82.56512c-0.36352 20.15232-2.37056 40.28928-5.96992 60.06272l35.37408 0 0 26.9312c0 104.2944-71.06048 194.95936-172.8 220.47744l-7.0144 1.664c-12.99456 4.4288-21.70368 15.68768-21.70368 28.10368 0 12.1088 8.09984 22.98368 20.6336 27.70432l0.2048 0.0768 0.19456 0.09216c42.09664 18.98496 69.29408 60.8768 69.29408 106.71616 0 49.65888-31.44192 93.48096-78.592 110.11584-7.91552 23.09632-19.49184 44.68736-34.44224 64.24064-0.60928 0.99328-1.22368 1.98144-1.83808 2.9696 97.00864-1.65888 175.43168-80.56832 175.43168-177.32608 0-43.89376-16.49664-86.13376-46.44352-118.9376l-5.97504-6.54848 7.8848-4.06016c96.05632-49.41824 155.7248-147.23584 155.71968-255.28832l0-56.96c0-16.55808-13.57824-30.0288-30.27456-30.0288L858.06592 82.57024 858.06592 82.56512z"  horiz-adv-x="1025" />

    
    <glyph glyph-name="daixiedingzhi" unicode="&#58971;" d="M934.7 546.5h-81.4v236.1c0 36.9-30 66.9-66.9 66.9h-686c-36.9 0-66.9-30-66.9-66.9v-531.7c0-36.9 30-66.9 66.9-66.9h1.7v-158.1L338.7 184h32.1v-87.1c0-30.8 25-55.8 55.8-55.8h291.6l183.4-122.5V41.10000000000002h33.2c30.8 0 55.8 25 55.8 55.8V490.7c-0.1 30.7-25.1 55.8-55.9 55.8zM324.1 232l-174-116.3V232h-49.7c-10.4 0-18.9 8.5-18.9 18.9v531.7c0 10.4 8.5 18.9 18.9 18.9h686c10.4 0 18.9-8.5 18.9-18.9v-531.7c0-10.4-8.5-18.9-18.9-18.9H324.1z m618.4-135.1c0-4.3-3.5-7.7-7.8-7.7h-81.2v-80.7l-120.8 80.7H426.6c-4.3 0-7.8 3.5-7.8 7.7V184h367.6c36.9 0 66.9 30 66.9 66.9V498.4h81.4c4.3 0 7.8-3.5 7.8-7.7v-393.8zM257.6 522.4m-45.7 0a45.7 45.7 0 1 1 91.4 0 45.7 45.7 0 1 1-91.4 0ZM446.3 522.4m-45.7 0a45.7 45.7 0 1 1 91.4 0 45.7 45.7 0 1 1-91.4 0ZM634.9 522.4m-45.7 0a45.7 45.7 0 1 1 91.4 0 45.7 45.7 0 1 1-91.4 0Z"  horiz-adv-x="1024" />

    
    <glyph glyph-name="wendang" unicode="&#58987;" d="M537.152 481.28h-288.64a29.44 29.44 0 0 0-26.24 30.72 29.44 29.44 0 0 0 26.24 32h288.64a29.44 29.44 0 0 0 26.24-32 29.44 29.44 0 0 0-26.24-30.72z m209.92-165.76h-498.56a32.64 32.64 0 0 0 0 64h498.56a32.64 32.64 0 0 0 0-64z m0-165.76h-498.56a32.64 32.64 0 0 0 0 64h498.56a32.64 32.64 0 0 0 0-64zM192.832 896a128 128 0 0 1-128-128v-768a128 128 0 0 1 128-128h640a128 128 0 0 1 128 128l7.04 670.72L748.992 896h-556.16z m512-64l192-192h-160.64a31.36 31.36 0 0 0-31.36 31.36V832z m128-896h-640a64 64 0 0 0-64 64V768a64 64 0 0 0 64 64h448v-192a64 64 0 0 1 64-64h192v-576a64 64 0 0 0-64-64z"  horiz-adv-x="1024" />

    
    <glyph glyph-name="maichu" unicode="&#58978;" d="M511.5 895.319C229.003 895.319 0 666.316 0 383.818c0-282.496 229.004-511.5 511.5-511.5 282.498 0 511.5 229.004 511.5 511.5C1023 666.316 793.998 895.319 511.5 895.319z m0-953.251c-243.943 0-441.75 197.807-441.75 441.75 0 243.989 197.807 441.751 441.75 441.751 243.99 0 441.75-197.762 441.75-441.751 0-243.943-197.76-441.75-441.75-441.75zM330.154 397.782c39.802-13.01 77.743-29.403 113.821-49.111l-24.521-37.372H511.5c4.836 15.984 7.992 31.424 9.49 46.318v90.957h56.355v-90.957c-1.113-16.394-3.338-31.833-6.676-46.318h176.328v-55.265H548.895l-5.584-8.9c69.182-20.116 133.164-43.911 191.971-71.43l-32.922-50.769c-62.508 34.216-126.877 61.734-193.084 82.556-40.188-34.58-106.033-61.372-197.534-80.331L280.5 176.81600000000003c92.251 18.232 154.576 40.732 186.931 67.502l11.716 11.716h-203.12v55.265h127.217c-32.354 18.981-65.845 34.217-100.425 45.751l27.335 40.732z m-47.975 117.182H483.05v37.372H323.457v52.449H483.05v37.963h56.922v-37.963h156.234v-52.449H539.973v-37.372h195.309v-36.283c-8.219-37.917-19.367-75.336-33.512-112.163l-54.674 15.644c10.807 21.57 20.457 48.157 29.016 79.786H282.179v53.016z m94.862-59.148c40.166-10.784 78.65-24.93 115.479-42.413l-28.995-44.07c-37.576 20.071-75.54 35.511-113.82 46.318l27.336 40.165z"  horiz-adv-x="1024" />

    
    <glyph glyph-name="DOC" unicode="&#58899;" d="M64 832v-896h896V832zM120 776h784v-784H120zM420.8 160l92.6 342.9L606.1 160h97.3l111.3 448H722l-69.5-319.8L573.7 608H462.5l-88.1-315.1L304.9 608h-97.3l111.2-448z"  horiz-adv-x="1024" />

    
    <glyph glyph-name="PDF" unicode="&#58895;" d="M64 841.5v-915h896v915zM121.2 784.3h781.6v-800.7H121.2zM203.7 62l16-8.4c9.3-5.2 18.8-6.3 25.1-6.3 43 0 91.4 50.8 156.7 164.6 72.5 23.8 155.4 43.4 228.3 54.1 58.8-32.2 127.5-53.7 171.7-53.7 8.5 0 16.1 0.9 21.9 2.6 10.3 2.8 18.6 8.6 24.1 16.9 8.5 13.2 11.6 31.6 8.9 52.4 0 7.2-4.4 16-10.8 21.4-14.8 14.5-45.4 21.9-91.2 21.9-31.9 0-67.1-2.6-101.9-7.4l-1.5 0.9c-15.3 9-31.1 18.3-42.8 30-35.6 33.4-65.6 79.5-84.5 130 1.2 4.3 1.9 8.4 2.6 12.4 0.9 4.8 21 119.5 15.5 160.3-0.7 5.1-1.4 7.2-2.7 10.7l-2.4 19.7c-6.3 15.4-19.6 43.1-40.5 43.1h-10.8c-22.5 0-41.5-24.8-46.2-42.4-12.6-47.1-0.4-120.5 23.3-213.4l-5.3-15.6c-16.7-40.2-36.8-82.1-56.1-119.9l-2.3-5.4c-16.3-32.6-32-61.1-45.9-85.9l-6.1-11.1-15-7.6c-0.3-0.1-30.4-15.5-36.7-20.4-59.7-35.5-97.7-74.9-104.3-107.8-3.6-15.6 1.4-29.5 12.9-35.7z m550.7 215.1c23.6 0 29.9 0 52.4-6 10.4-2.4 14.4-5.9 15.6-7.7-3.6-1.1-11.3-2.2-17.1-2.2-16.7 0-36.5 5.7-62.3 15.9h11.4z m-259 387.1c4.2-6.7 9.8-24.7 10.5-53.3 0.5-19.4-2.5-34.5-6.5-46.3-3.8 20.5-5.6 44.8-5.6 63.5-0.1 13 0.5 28 1.6 36.1z m-45.4-361c18.4 35.6 32.9 66.8 44.2 94.8 20.6-34.9 46.2-65.1 76.2-90.1l0.8-0.7c-51.4-11.4-97.5-24.3-139.8-39.2 6.7 12.1 12.8 23.7 18.6 35.2zM315.7 180.79999999999995c2.3 2.3 9.3 8.5 15.4 14.7-44.7-72.5-74.8-101-94.8-110.3 7.6 20.1 36.2 60.1 79.4 95.6z"  horiz-adv-x="1024" />

    
    <glyph glyph-name="PPT" unicode="&#58896;" d="M64 832v-896h896V832zM120 776h784v-784H120zM325.3 141.29999999999995v504h188.1c34 0 59.9-2.8 77.9-6 25.1-4.1 46.2-12.5 63.2-24s30.7-28 41-48.8c10.3-20.8 15.5-43.8 15.5-68.7 0-42.7-13.9-78-41.5-107.6-27.7-29.6-77.8-43.6-150.1-43.6h-138v-205.3h-56.1z m56 261.4h139c43.8 0 74.8 8.7 93.2 24.7 18.4 16 27.6 38.8 27.6 67.9 0 21-5.4 39.2-16.2 54.2-10.8 14.9-25.1 27.8-42.8 32.5-11.4 3-32.5 7.4-63.2 7.4H381.3v-186.7zM400 141.29999999999995h-93.3v504h206.7c34.1 0 60.7 0.6 79.1-2.7 25.9-4.2 48.1-11.3 65.9-23.4 17.9-12.2 32.5-28.8 43.3-50.6 10.8-21.7 16.3-45.5 16.3-71.3 0-44.3-14.6-77.8-43.4-108.6-28.9-30.9-81.1-42.1-155.2-42.1H400v-205.3z m0 261.4h120.4c41.9 0 71.7 11.7 88.7 26.5s25.2 37.2 25.2 64.4c0 19.4-5 37.3-14.9 51-10 13.8-22.7 20.1-39 24.5-10.7 2.8-31.4 1.7-61.4 1.7H400v-168.1z"  horiz-adv-x="1024" />

    
    <glyph glyph-name="RTF" unicode="&#58900;" d="M64 832v-896h896V832zM120 776h784v-784H120zM176 608h392v-56H176zM176 496h280v-56H176zM176 384h168v-56H176zM390.6 104l53.4 56h236v-56h112V552H665.4L235.9 104h154.7zM680 419v-147H548.6L680 419z"  horiz-adv-x="1024" />

    
    <glyph glyph-name="XLS" unicode="&#58897;" d="M912.2 832H64v-896h896V832zM120 776h784v-784H120zM512 104v56h-50.5l49.9 91.7L622.3 104h139.9L580 369.4 741.5 608H606.8l-95.3-139.8L416.1 608H281.4l161.5-238.6L260.7 104z"  horiz-adv-x="1024" />

    
    <glyph glyph-name="zuji" unicode="&#58966;" d="M612.9 715.1c14.5 3 26.3 13.4 30.9 27.4 4.7 14 1.5 29.5-8.3 40.5-9.8 11.1-24.7 16-39.2 13.1-14.5-3-26.2-13.4-30.9-27.4-4.7-14-1.5-29.5 8.3-40.5s24.7-16 39.2-13.1zM472 665.2c-64.1-13.1-121.3-60-149.4-129.1-11.3-30.5-18.6-63.6-22.5-96.1 0.8-20.9 0.9-38.5 1.6-59.5 2.2-27.7 3.6-52-1.7-77.7-7.3-33.1-29.5-44.7-54.4-60.4-9.4-5.4-15.5-10.2-24.9-15.7-27.6-19.7-46.4-48.2-51-77.3-10.6-51.4 6.5-100.7 41.8-135.7 35.3-35 84-49.6 131.2-40 31.1 2.8 56 18.5 78.8 44.3 5.4 8.1 75.1 113.9 128.4 128.3l27 5.5C695 176 769.3 310.8 740.3 452.6 711.4 594.6 590 689.3 472 665.2zM563.2 202l-16.9-3.5s-68.2-10.4-129.9-104c-2-7.4-13.4-20.3-25.5-29.9-6.1-4.8-8.7-8.8-12.1-9.5-14.1-17-33-27.9-53.2-32-26.3-8.9-56.7 2.5-78.5 22.6-13.6 14.8-23.8 30.3-27.2 47.2-2.8 13.5-2.2 27.7-1.5 41.9 3.3 18.3 14 34.5 29.5 44.7 9.4 5.4 15.5 10.2 24.9 15.7 31 20.4 65.3 41.5 80 90.2 7.3 33.1 4.4 64.2 1.6 95.3-0.1 17.6-3.5 34.5-3.6 52 1.2 28.4 6.5 54.1 18.5 81.2 20.7 53.5 62.4 90.2 109.6 99.8 91.1 18.6 184-57.3 207.5-172.1 23.5-114.7-32.1-221-123.2-239.6z m293.4 298.6c-21.3 83.1-62.4 147.7-119.5 194.6-11.3 9.3-28.2 7.2-36.9-4.7-8-11-6.1-26.4 4.5-34.9 51.7-42 85.4-95.4 102.3-167.2 3.5-14.7 18.9-23.2 33.1-18.2 12.6 4.3 19.8 17.5 16.5 30.4z"  horiz-adv-x="1024" />

    
    <glyph glyph-name="zuojiantou" unicode="&#58967;" d="M689.2-2.6c8.2 0 16.4 3.1 22.7 9.4 12.6 12.5 12.6 32.9 0 45.4L380.2 384l331.7 331.7c12.6 12.5 12.6 32.9 0 45.4-12.6 12.6-32.9 12.6-45.4 0L312.1 406.7c-12.6-12.5-12.6-32.9 0-45.4l354.4-354.4c6.3-6.3 14.5-9.5 22.7-9.5z"  horiz-adv-x="1024" />

    
    <glyph glyph-name="youjiantou" unicode="&#58968;" d="M334.8-2.6c-8.2 0-16.4 3.1-22.7 9.4-12.6 12.5-12.6 32.9 0 45.4L643.8 384 312.1 715.7c-12.6 12.5-12.6 32.9 0 45.4 12.6 12.6 32.9 12.6 45.4 0l354.4-354.4c12.6-12.5 12.6-32.9 0-45.4L357.5 6.8c-6.3-6.2-14.5-9.4-22.7-9.4z"  horiz-adv-x="1024" />

    
    <glyph glyph-name="huanyihuan" unicode="&#58965;" d="M139.5712 488.07936l3.26144 0c47.57504 166.57408 198.33856 288.62976 376.83712 288.62976 177.88416 0 328.29952-121.43104 376.36096-287.24224l0.62464 0.20992c3.95264-8.73984 12.41088-14.90944 22.26176-14.90944 13.66528 0 24.68864 11.65312 24.68864 25.9328 0 2.6368-0.55808 5.13024-1.24928 7.49056l0 0c-0.07168 0.07168-0.13824 0.20992-0.13824 0.34816-0.20992 0.90112-0.41472 1.59744-0.75776 2.49856-56.10496 183.14752-223.7184 316.16-421.9136 316.16-201.74336 0-371.78368-137.86624-424.83712-326.28736L32.3584 518.9376l49.58208-150.8352 126.2848 100.28032L139.5712 488.07936 139.5712 488.07936 139.5712 488.07936zM1003.24352 229.82656l-49.5872 150.8352-126.14656-100.352 67.6864-19.48672c-48.75264-164.36224-198.54336-284.68224-375.53152-284.68224-176.55808 0-325.93408 119.76704-375.10656 283.63776l-0.2048 0c-2.98496 10.60864-12.416 18.72384-23.78752 18.72384-13.66016 0-24.76032-11.58656-24.76032-25.87136 0-1.53088 0.13824-3.05664 0.4864-4.37248l-0.4864-0.27648c54.23104-186.48064 223.37024-322.33472 423.6544-322.33472 200.1408 0 369.0752 135.57248 423.51616 321.50016L1003.24352 229.82656 1003.24352 229.82656 1003.24352 229.82656z"  horiz-adv-x="1024" />

    
    <glyph glyph-name="jubaowendang" unicode="&#58963;" d="M919.1 690.5l-7 0.7c-100.5 9.8-252.7 60-339.3 112l-32 19.2c-17.9 10.8-47.2 9.3-63.8-3.2-81.1-60.8-229.1-117.2-330-125.8l-40.4-3.5h-0.2c-19.6-1.8-35.7-19.2-36-38.8l-0.9-90.6c-2.4-245.6 181-519.5 408.8-610.6l28.8-11.5 28.8 11.5C763.8 41 951.2 315 953.6 560.7l0.9 90.4v0.4c0 19.7-15.9 37.1-35.4 39z m-35.7-129.1c-2.1-216-173.3-466.1-373.6-546.3l-2.7-1.1-2.7 1.1C304.6 95 137.6 344.4 139.7 559.8l0.6 62.6 12.7 1.1c110.9 9.4 266.4 67.9 359 134.4l24.7-14.8c89.8-53.9 237.7-104.2 347.4-119.2l-0.7-62.5zM472.8 184.5h71.6v-70.9h-71.6zM470 508.3l19.1-268.8h40.1l18 268.8V620.7H470z"  horiz-adv-x="1024" />

    
    <glyph glyph-name="zhucenew" unicode="&#58959;" d="M785 465.4v63c0 148.5-124.5 269.4-273 269.4S239 676.9 239 528.4v-63c-41-15.8-82-60.1-82-112.2v-139.6c0-18.8 15.7-34.1 34.5-34.1s34.5 15.3 34.5 34.1V353.1c0 27.7 26.6 52.9 54.3 52.9h463.4c27.7 0 54.3-25.2 54.3-52.9v-265.5c0-27.7-26.6-49.6-54.3-49.6H280.3c-27.7 0-50.2 22.2-50.2 49.9 0 18.8-15.3 34-34.1 34s-34.1-14.9-34.1-33.8c0-65.3 53.2-118.1 118.5-118.1h463.4C809-30 867 22.2 867 87.6V353.1c0 52.2-41 96.5-82 112.3zM512 729.5c110.9 0 205-90.2 205-201.1V474H307v54.4c0 110.9 94.1 201.1 205 201.1z"  horiz-adv-x="1024" />

    
    <glyph glyph-name="vip" unicode="&#58961;" d="M63.8 509h896.4L522.4 8.8zM230.6 759.2h562.8L960.2 509H63.8zM63.8 509h208.5l250.1-500.2zM960.2 509L522.4 8.8 773.9 509zM230.6 759.2l157.1-134.7 134.7 134.7zM793.4 759.2h-271l130.1-130.1zM272.3 509h250.1L387.7 624.5zM522.4 509h250.2L652.5 629.1zM522.4 759.2L387.7 624.5 522.4 509l130.1 120.1zM518.9 178.7l213.3 360.4H782l-0.1 49.7H682L549.5 368.6 411.1 589l-173 0.2 0.1-48.9 55-0.2 225.7-361.4z m0 0"  horiz-adv-x="1024" />

    
    <glyph glyph-name="zhuce" unicode="&#58962;" d="M787.1 521.8c-47.3 46.3-94.6 92.6-142 138.9-6.6 6.6-6.6 6.6-13.5-0.3C523.8 552.8 416 445.2 308.1 337.6c-5.2-5.2-8.4-10.8-10.4-17.8-16.6-61.7-33.5-123.3-50.3-184.9-1.5-5.4-3-10.8-4.5-16.5 0.3-6.3 4.7-2.9 7-2.3 66.8 18.5 133.6 37.1 200.4 55.6 5 1.4 8.9 3.9 12.5 7.5 108 108 216.1 215.9 324.2 323.8 9.6 9.5 9.6 9.5 0.1 18.8z m-79.5-0.1c-40.8-40.7-81.5-81.6-122.2-122.4-59.9-59.9-119.8-119.9-179.6-179.9-4.2-4.3-8.7-7-14.5-8.6-21.9-5.9-43.5-12.1-65.3-18.1-2.9-0.8-6.8-3.1-6.6 2.6 5.4 19.9 11.3 39 15.7 58.5 3.1 13.5 9.8 23.4 19.5 33 89.5 89 178.6 178.4 267.8 267.7 8.9 8.9 18.2 17.4 27.1 26.4 3.2 3.3 5.5 3.1 8.9 0 17.3-15.6 33.2-32.8 50.1-48.8 4.7-4.5 2.5-7-0.9-10.4z m250.8 208.9c-4.5 54.6-49.9 100.6-110.6 100.8-29.8 0.1-56-11.1-77.4-32.3-26.7-26.4-53.1-53.1-79.8-79.6-4.3-4.2-4.5-6.8-0.1-11 17.2-16 34-32.3 50.8-48.6 32.7-31.6 65.2-63.3 97.7-95.1 3.9-3.8 6-4.1 10-0.1 26.1 26.5 52.6 52.5 78.7 79 20.8 21.1 30.4 47 31.6 78-0.2 1.9-0.6 5.4-0.9 8.9z m-73.1-51c-13-13.2-26.2-26.2-39.2-39.4-2-1.9-3.1-1.8-5 0.1-16.2 15.9-32.4 31.7-48.8 47.5-8.4 8-16.9 16.2-25.3 24.2-2.2 2.1-2.1 3.4 0 5.4 13.3 13.2 26.5 26.5 39.9 39.7 10.7 10.5 23.7 16.1 38.5 16.1 30.3-0.1 52.9-23 55.2-50.3 0.2-1.7 0.4-3.5 0.5-4.4-0.6-15.5-5.4-28.4-15.8-38.9z m71.6-169.3c-2.3-0.7-3.7-2.7-5.2-4.2-18.9-18.9-37.8-37.7-56.7-56.6 0.1-101.6 0.2-203.3-0.1-304.9-0.1-43.2-16-80.2-48.7-109.1-26.1-23.1-57-35.6-92.2-35.6-162.2-0.2-324.6-0.2-486.8 0-33.6 0.1-63.4 11.9-89 33.8-34 29.2-50.6 66.5-50.6 111.2 0.1 158.9 0.1 317.7 0 476.5-0.1 44.1 16.1 80.9 48.8 110.1 24.1 21.5 52.7 33.4 85.3 34.9 42 2 84 0.7 126 0.8 63 0.2 126 0.1 189 0.1 18.9 18.8 37.7 37.6 56.4 56.4 1.6 1.6 5.1 3.1 3.9 5.7-1 2-4.2 0.9-6.5 0.9-87.8 0.1-175.4 0.2-263.2 0-48.9-0.1-97.8 1.3-146.7-1-37.9-1.8-71.2-15.6-99.2-40.7-38-33.9-56.9-76.8-56.8-128.1 0.1-184.9 0.1-369.9 0.1-554.8 0-52.1 19.2-95.5 58.8-129.5 29.7-25.5 64.4-39.3 103.6-39.3 188.9-0.4 377.9-0.3 566.8-0.1 40.9 0 76.9 14.6 107.3 41.5 38 33.6 56.5 76.6 56.7 127.1 0.4 132.6 0.1 265.4 0.1 398.1 0 2.1 0.8 4.6-1.1 6.8z m0 0"  horiz-adv-x="1024" />

    
    <glyph glyph-name="naozhong" unicode="&#58951;" d="M512 684c-247.424 0-448-200.576-448-448s200.576-448 448-448 448 200.576 448 448-200.576 448-448 448zM512-124c-198.816 0-360 161.184-360 360s161.184 360 360 360c198.816 0 360-161.184 360-360 0-198.816-161.184-360-360-360zM934.784 524.832c16.032 28.064 25.216 60.544 25.216 95.168 0 106.048-85.952 192-192 192-61.824 0-116.8-29.216-151.904-74.592 131.872-27.232 245.216-105.184 318.72-212.576zM407.936 737.408c-35.104 45.376-90.112 74.592-151.936 74.592-106.048 0-192-85.952-192-192 0-34.624 9.184-67.136 25.216-95.168 73.504 107.392 186.816 185.344 318.72 212.576zM448 492l64 0 0-320-64 0 0 320zM512 236l192 0 0-64-192 0 0 64z"  horiz-adv-x="1024" />

    
    <glyph glyph-name="QQ" unicode="&#58927;" d="M971.464704 143.341312 968.998912 160.979712 965.843968 178.185984 963.337216 187.0272 960.917504 196.430592 957.71648 205.401856 954.430464 215.387904 950.668288 224.791296 946.562048 234.454784 939.254784 250.234624 932.769792 264.1344 926.285824 276.562688 920.62208 288.151296 914.138112 298.698496 909.382656 308.383488 899.309568 322.84544 886.64064 342.105856 883.70176 346.861312 882.707456 348.892928 882.707456 350.49344 884.825088 356.999936 887.763968 362.792704 890.314752 374.227712 891.742208 380.130048 891.742208 386.22592 892.478464 391.132928 892.478464 396.06144 891.742208 401.72416 890.92096 406.350592 889.061376 415.73248 886.64064 424.854272 884.435968 433.220352 880.97792 441.348864 877.08672 448.135936 874.015744 454.512384 870.601728 460.586752 865.240064 469.536512 863.25248 472.71296 862.646272 475.479808 860.182528 492.838656 858.58304 504.274688 856.767488 518.432512 853.957632 533.06752 849.547264 549.841664 847.040512 559.245056 845.049856 567.200512 842.284032 576.452352 839.171072 586.287872 836.058112 595.409664 832.079872 605.22368 823.953408 624.182016 819.15392 633.15328 813.359104 643.442432 807.913472 652.26112 802.465792 662.248192 794.769408 671.501056 788.286464 680.47232 780.374016 689.72416 772.332544 698.11072 764.203008 706.216704 754.562048 714.626816 749.504512 717.651712 744.706048 721.846016 734.329856 729.216768 722.312192 737.193728 710.032384 744.413952 697.365504 750.920448 683.531264 756.864768 670.560256 762.507008 657.027072 767.43552 642.24256 771.478272 628.7104 775.087872 614.31296 778.24384 600.694784 781.572864 585.996288 783.172352 571.597824 784.923392 557.246464 786.80448 542.416896 786.80448 528.106496 786.80448 514.271232 786.80448 499.70176 785.960704 486.040576 784.059136 472.421376 782.178048 458.587136 779.864832 444.88192 777.249536 431.911936 774.072064 418.941952 769.878784 406.880256 765.68448 394.81856 761.642752 382.712832 755.698432 371.299328 750.920448 361.182208 745.126656 350.63296 738.62016 340.90496 731.832064 331.308032 724.180736 323.396608 717.069056 310.9888 705.373952 300.698624 694.50112 290.8416 683.951872 281.8048 673.229568 273.332224 662.248192 265.895936 651.548416 258.676736 640.84864 255.304704 636.070656 252.191744 630.277888 245.446656 620.139264 240.086016 610.022144 235.33056 600.469248 231.179264 590.351104 227.115008 581.100288 223.742976 572.4096 220.63104 563.158784 217.474048 554.619648 213.279744 539.141888 210.210816 524.246784 208.525312 511.796992 206.795776 501.074688 206.795776 492.838656 206.795776 486.181632 206.795776 480.258816 203.855872 477.058816 201.17504 472.71296 199.057408 468.822784 197.240832 464.629504 194.950144 455.506688 192.442368 447.119104 191.62112 439.618304 191.058944 434.106112 191.058944 428.183296 185.265152 419.774208 181.157888 411.386624 178.045952 403.302144 175.75424 396.06144 173.98272 389.121792 172.296192 382.594816 172.296192 377.124608 172.296192 371.028736 172.296192 365.9712 173.290496 361.928448 174.716928 354.535168 176.489472 348.892928 173.290496 346.429184 164.210688 339.641088 152.236032 328.660736 144.88576 322.153216 137.709568 315.776768 132.781056 310.696704 128.7168 306.221824 119.983104 296.819456 111.68256 287.416064 105.197568 279.309056 97.415168 267.592448 89.979904 257.045248 82.629632 245.306112 76.447744 234.454784 71.303168 222.910208 65.855488 212.189952 61.877248 201.63968 57.683968 190.637824 54.571008 179.938048 51.501056 168.935168 48.77824 159.380224 47.263744 149.111552 45.57824 139.578112 44.150784 130.304768 43.287552 112.233216 43.287552 95.459072 43.287552 87.936768 44.150784 80.543488 46.44352 67.9616 47.263744 62.427904 48.77824 56.809216 50.6368 51.489536 52.366336 47.730432 55.133184 40.76928 57.25184 39.341824 58.548224 36.402944 60.191744 35.711744 61.186048 35.711744 61.877248 35.711744 69.097472 36.402944 76.447744 38.303488 82.629632 40.76928 89.114624 44.96256 95.03744 48.85376 100.39808 53.955328 106.191872 59.27296 111.077376 64.764672 115.745792 70.989568 119.983104 76.611328 123.961344 81.277696 126.425088 86.63936 131.267584 95.459072 132.781056 99.069696 133.645312 101.230336 134.076416 103.695104 135.201792 105.72672 136.066048 106.158848 137.709568 107.025152 138.74688 107.025152 139.179008 106.158848 140.000256 106.158848 140.822528 105.72672 143.545344 93.729536 146.485248 84.044544 150.419456 73.88544 154.396672 64.764672 157.72672 55.68384 162.871296 47.730432 166.631424 39.341824 170.86976 31.647488 175.75424 24.990464 179.472384 18.590464 189.329408 6.745856 197.933056-3.804416 206.2336-12.018944 214.40512-19.412224 221.495296-25.204992 232.044544-34.58688 236.281856-36.661504 237.707264-38.650112 237.707264-39.644416 236.713984-40.552704 236.281856-40.552704 234.1632-41.244928 226.250752-41.850112 218.901504-42.844416 212.718592-43.709696 206.2336-45.135104 200.569856-46.907648 194.950144-48.637184 190.021632-51.275008 186.131456-53.696768 181.157888-55.296256 178.045952-57.890048 174.716928-59.921664 171.127808-62.816512 166.631424-68.438272 164.94592-71.076096 162.871296-73.366784 160.017408-79.290624 158.461952-84.22016 156.601344-89.146624 156.212224-93.470976 156.212224-99.133696 156.212224-101.598464 155.390976-105.618688 155.390976-109.726976 154.396672-113.7472 154.396672-117.33632 155.390976-121.269504 156.212224-124.77056 158.461952-131.516672 160.017408-134.715648 162.006016-137.9136 164.210688-141.069568 166.631424-143.838464 169.875456-146.993408 172.296192-149.5872 179.472384-154.948864 186.692608-159.444224 194.950144-163.50848 203.855872-167.139584 213.279744-171.02976 223.742976-173.452544 234.1632-176.9536 245.446656-179.289344 256.688128-180.974848 268.273664-182.748416 280.249344-184.477952 303.855616-186.940672 328.195072-187.3728 350.63296-187.3728 361.182208-187.3728 371.299328-187.3728 381.847552-186.940672 390.884352-185.905408 399.617024-185.213184 407.788544-184.477952 420.931584-181.883136 430.398464-179.289344 439.392256-176.9536 455.993344-169.994496 463.516672-167.139584 470.69184-163.50848 482.53952-156.85248 493.216768-151.489792 501.129216-146.43328 506.921984-141.069568 515.95776-142.063872 522.96192-142.843136 536.79616-143.838464 543.281152-143.838464 548.770816-143.838464 552.96512-144.70272 557.246464-146.43328 564.033536-148.893952 571.597824-151.489792 585.996288-155.986176 600.694784-161.345792 615.005184-165.496064 629.445632-168.438016 644.187136-172.155136 659.448832-174.359808 673.931264-175.959296 688.458752-177.990912 702.03392-179.289344 716.560384-180.108544 730.481664-180.108544 744.013824-180.108544 756.854784-180.108544 769.823744-178.554112 782.534656-177.990912 794.769408-175.959296 806.052864-173.452544 817.337344-171.02976 828.147712-168.438016 832.641024-167.139584 837.6576-165.496064 847.040512-161.778944 855.384064-157.887744 863.25248-153.823488 870.601728-149.5872 877.08672-144.70272 879.637504-142.063872 882.707456-138.4768 886.64064-133.677312 890.92096-127.754496 892.478464-124.77056 893.169664-122.264832 894.984192-119.064832 895.676416-115.60576 895.676416-112.275712 896.54272-108.947712 895.676416-104.063232 894.984192-99.868928 893.169664-94.940416 891.742208-90.87616 889.061376-85.946624 885.820416-81.452288 882.707456-77.561088 878.513152-74.275072 869.866496-66.751744 860.182528-59.488512 850.41152-53.696768 840.121344-47.772928 816.603136-36.186368 810.9824-32.727296 809.426944-31.127808 808.430592-30.090496 819.759104-18.675968 824.644608-13.056256 828.70784-7.867648 836.619264 3.588864 844.09856 15.305472 850.41152 25.724672 856.377344 35.711744 864.375808 55.68384 870.601728 72.285952 874.707968 84.044544 877.08672 87.936768 878.513152 91.092736 880.97792 92.995328 882.015232 92.995328 882.707456 92.561152 888.759296 80.543488 894.163968 68.957952 897.968128 62.427904 901.901312 56.809216 905.793536 49.892096 910.808064 43.058944 915.001344 38.303488 917.552128 35.711744 920.059904 33.374976 922.351616 31.647488 924.557312 30.046976 929.398784 27.582208 931.90656 26.717952 933.593088 26.717952 935.839744 26.717952 938.391552 27.582208 941.548544 29.18272 945.050624 30.783232 947.945472 33.374976 950.668288 36.402944 953.73824 40.164096 956.158976 43.058944 958.88384 47.730432 960.917504 51.489536 963.337216 56.809216 964.6336 61.304576 968.136704 72.285952 970.426368 84.434688 972.068864 97.902336 973.193216 105.72672 973.193216 112.233216 973.193216 119.194368 973.193216 127.712Z"  horiz-adv-x="1024" />

    
    <glyph glyph-name="14052218" unicode="&#58983;" d="M512 698.593024c-219.789312 0-398.601216-178.816-398.601216-398.61248 0-219.773952 178.811904-398.573568 398.601216-398.573568s398.601216 178.799616 398.601216 398.573568C910.601216 519.776 731.789312 698.593024 512 698.593024zM552.2176 8.905472l-80.04608 0 0 80.04608 80.04608 0L552.2176 8.905472zM679.120896 365.794048c-11.713536-21.086208-34.623488-46.728192-68.722688-76.92288-22.908928-20.303872-37.874688-35.275776-44.904448-44.904448-7.027712-9.632768-12.237824-20.694016-15.618048-33.188864-3.386368-12.494848-5.339136-32.799744-5.85728-60.913664L476.4672 149.864192c-0.262144 9.371648-0.390144 16.400384-0.390144 21.086208 0 27.588608 3.904512 51.406848 11.713536 71.455744 5.723136 15.09376 14.96576 30.321664 27.722752 45.683712 9.371648 11.190272 26.222592 27.529216 50.566144 49.00352 24.337408 21.476352 40.15104 38.590464 47.44192 51.347456 7.284736 12.750848 10.933248 26.68032 10.933248 41.780224 0 27.332608-10.677248 51.347456-32.018432 72.042496-21.348352 20.69504-47.509504 31.041536-78.485504 31.041536-29.937664 0-54.928384-9.370624-74.970112-28.11392-20.047872-18.742272-33.188864-48.026624-39.437312-87.855104l-72.237056 8.590336c6.504448 53.359616 25.832448 94.230528 57.985024 122.606592 32.146432 28.36992 74.641408 42.560512 127.488 42.560512 55.964672 0 100.606976-15.227904 133.931008-45.683712 33.317888-30.456832 49.980416-67.295232 49.980416-110.502912C696.691712 409.917184 690.835456 386.879232 679.120896 365.794048z"  horiz-adv-x="1024" />

    
    <glyph glyph-name="shizhong" unicode="&#58909;" d="M512.77637 806.572653c-279.087053 0-505.330756-226.557166-505.330756-506.025727 0-279.468561 226.247888-506.021536 505.330756-506.021536 279.091238 0 505.334941 226.557166 505.334941 506.021536C1018.11131 580.015487 791.867608 806.572653 512.77637 806.572653zM512.77637-107.409363c-225.000674 0-407.39938 182.648042-407.39938 407.956289 0 225.312438 182.398705 407.96048 407.39938 407.96048s407.395194-182.648042 407.395194-407.96048C920.171564 75.234487 737.777044-107.409363 512.77637-107.409363zM554.821696 323.82794 554.821696 638.308129 460.422697 638.308129 460.422697 225.104705 856.325111 225.104705 856.325111 323.82794Z"  horiz-adv-x="1024" />

    
    <glyph glyph-name="mima" unicode="&#59190;" d="M760.384 370.624l0 103.616c0 0-0.032 241.728-241.728 241.728-241.696 0-241.728-241.728-241.728-241.728l0-103.616L173.312 370.624l0-483.488L864-112.864 864 370.624 760.384 370.624zM553.184 103.936l0-113.184-69.056 0 0 113.184c-20.544 11.968-34.528 34.016-34.528 59.488 0 38.176 30.944 69.088 69.056 69.088 38.112 0 69.056-30.912 69.056-69.088C587.744 137.952 573.76 115.904 553.184 103.936M691.328 370.656 345.984 370.656l0 103.136c0.384 28.928 10.56 173.12 172.672 173.12s172.288-144.192 172.672-172.672L691.328 370.656z"  horiz-adv-x="1024" />

    
    <glyph glyph-name="tubiaozitihua03" unicode="&#59290;" d="M604.032 300 908.8 605.088c25.408 25.408 25.408 66.624 0 92.096-25.408 25.408-66.56 25.408-92.032 0L512 392.096 207.168 697.184c-25.408 25.408-66.624 25.408-92.032 0-25.344-25.472-25.344-66.688 0-92.096L420.032 300l-304.896-305.152c-25.344-25.344-25.344-66.624 0-92.032 12.736-12.736 29.376-19.136 46.08-19.136 16.64 0 33.28 6.4 46.016 19.136L512 207.968l304.832-305.088c12.672-12.736 29.376-19.136 46.016-19.136s33.344 6.4 46.016 19.136c25.408 25.344 25.408 66.624 0 92.032L604.032 300z"  horiz-adv-x="1024" />

    
    <glyph glyph-name="msnui-rmb" unicode="&#58952;" d="M413.247 129.032h-199.226q-27.871 2.065-42.839 23.226t-18.065 46.968q3.097 25.806 18.065 42.323t42.839 18.581h199.226v65.032l-199.226 1.032q-27.871 2.065-42.839 19.613t-18.065 44.387q3.097 25.806 18.065 42.323t42.839 18.581h148.645l-138.323 243.613q-10.323 12.387-19.613 31.484t-8.258 41.806q5.161 28.903 20.645 46.968t57.806 23.226q24.774-2.065 44.387-17.032t32-32.516l156.903-286.968 172.387 289.032q12.387 17.548 32 30.968t44.387 16.516q15.484-1.032 28.387-4.129t22.71-10.323 16.516-20.645 9.806-35.097q0-29.935-20.645-56.774l-160-260.129h151.742q26.839-2.065 42.323-18.581t17.548-42.323q-2.065-26.839-18.065-45.419t-42.839-20.645l-197.161-1.032v-62.968h198.194q26.839-2.065 42.323-20.645t17.548-44.387q-2.065-26.839-17.548-44.903t-42.323-20.129l-198.194 1.032v-109.419q-4.129-87.742-96-87.742-45.419 0-70.71 21.677t-27.355 66.065v107.355z"  horiz-adv-x="1024" />

    
    <glyph glyph-name="icglobaltitlebar48iconfontmap" unicode="&#58898;" d="M511.872 41.610667c-0.042667 0-0.085333 0-0.128 0-9.258667 0.021333-18.090667 4.074667-24.128 11.114667-9.216 10.730667-19.285333 22.208-29.909333 34.325333-94.698667 107.946667-222.506667 248.661333-222.506667 381.056 0 153.621333 124.970667 278.592 278.592 278.592s278.570667-124.970667 278.570667-278.592c0-135.061333-134.549333-277.781333-231.381333-387.2-8.789333-9.92-17.173333-19.413333-25.002667-28.373333C529.898667 45.578667 521.109333 41.610667 511.872 41.610667zM513.792 682.698667c-118.314667 0-214.592-96.256-214.592-214.592 0-146.282667 151.957333-271.573333 214.826667-349.290667 62.336 81.258667 214.314667 202.325333 214.314667 349.290667C728.362667 586.442667 632.106667 682.698667 513.792 682.698667zM513.792 362.421333c-67.050667 0-121.578667 54.549333-121.578667 121.6s54.549333 121.6 121.578667 121.6c67.072 0 121.6-54.549333 121.6-121.6S580.864 362.421333 513.792 362.421333zM513.792 541.621333c-31.744 0-57.578667-25.834667-57.578667-57.6s25.834667-57.578667 57.578667-57.578667c31.765333 0 57.6 25.813333 57.6 57.578667S545.557333 541.621333 513.792 541.621333zM930.538667-128.416 93.461333-128.416c-11.029333 0-21.269333 5.696-27.114667 15.018667-5.845333 9.344-6.485333 21.034667-1.664 30.954667l123.52 255.637333c5.354667 11.029333 16.533333 18.026667 28.8 18.026667l71.786667 0c17.664 0 32-14.336 32-32 0-17.685333-14.336-32-32-32L237.013333 127.221333l-92.437333-191.637333 736.96 0-83.626667 191.658667-62.208 0c-17.664 0-32 14.314667-32 32 0 17.664 14.336 32 32 32l83.114667 0c12.693333 0 24.192-7.530667 29.290667-19.114667l111.722667-255.658667c4.352-9.898667 3.413333-21.312-2.496-30.357333C951.445333-122.954667 941.354667-128.416 930.538667-128.416z"  horiz-adv-x="1024" />

    
    <glyph glyph-name="wenjianjia03" unicode="&#58912;" d="M1058.040706 4.054274c3.195658-19.451832-0.83365-37.097422-12.226866-52.658887-11.393216-15.561465-26.815739-25.009498-46.267571-28.344098L882.557395-95.427951C863.800271-98.623609 846.293623-94.594301 830.454274-83.201085 814.475984-71.80787 804.889009-56.385346 801.693351-36.794573L702.211126 593.027951c-1.250475 9.725916-0.83365 19.035007 1.528358 27.788331C705.962551 629.569607 709.713976 637.767164 714.854817 645.270014c5.140841 7.502849 11.810041 13.616282 20.007598 18.47924 8.058616 4.862958 17.089824 8.336499 26.815739 10.281682L877.694437 692.510176c19.451832 3.195658 37.097422-0.972592 52.658887-12.643691C945.91479 668.195387 955.362822 652.49498 958.697422 633.043148L1058.040706 4.054274zM567.715604 696.400543c19.451832 0 36.12483-6.808141 49.741113-20.424423 13.616282-13.616282 20.424423-30.289281 20.424423-49.741113l0-651.35848c0-19.451832-6.808141-36.12483-20.424423-49.741113C603.701493-88.480868 587.167436-95.427951 567.715604-95.427951l-101.427408 0c-19.451832 0-36.12483 6.808141-49.741113 20.424423C402.930801-61.248304 396.122659-44.714247 396.122659-25.123474L396.122659 626.235007c0 19.451832 5.140841 36.12483 15.561465 49.741113 10.420624 13.616282 25.704206 20.424423 45.850746 20.424423L567.715604 696.400543 567.715604 696.400543zM567.715604 204.963908c6.530258 0 12.087924 3.056716 16.534057 9.309091 4.585075 6.113433 6.808141 13.477341 6.808141 21.952782 0 9.170149-2.223066 16.534057-6.808141 22.369607C579.664586 264.430936 574.10692 267.348711 567.715604 267.348711l-101.427408 0c-6.530258 0-12.087924-2.917775-16.534057-8.753324C445.169064 252.759837 442.807056 245.256988 442.807056 236.22578c0-8.475441 2.223066-15.700407 6.808141-21.952782 4.585075-6.113433 10.142741-9.309091 16.534057-9.309091L567.715604 204.963908 567.715604 204.963908zM567.715604 328.760923c6.530258 0 12.087924 3.056716 16.534057 9.309091 4.585075 6.113433 6.808141 13.755224 6.808141 22.925373 0 9.170149-2.223066 16.534057-6.808141 22.369607C579.664586 389.339484 574.10692 392.257259 567.715604 392.257259l-101.427408 0c-6.530258 0-12.087924-2.917775-16.534057-8.753324C445.169064 377.529444 442.807056 370.026594 442.807056 360.995387c0-9.031208 2.223066-16.672999 6.808141-22.925373 4.585075-6.113433 10.142741-9.309091 16.534057-9.309091L567.715604 328.760923 567.715604 328.760923zM261.488195 696.400543c19.451832 0 36.263772-6.808141 50.157938-20.424423 14.033107-13.616282 20.98019-30.289281 20.98019-49.741113l0-651.35848c0-19.451832-6.947083-36.12483-20.98019-49.741113C297.751967-88.480868 281.078969-95.427951 261.488195-95.427951l-101.427408 0c-19.451832 0-36.263772 6.808141-50.157938 20.424423C95.869742-61.248304 88.922659-44.714247 88.922659-25.123474L88.922659 626.235007c0 19.451832 6.947083 36.12483 20.98019 49.741113 14.033107 13.616282 30.706106 20.424423 50.157938 20.424423L261.488195 696.400543 261.488195 696.400543zM164.090095 452.696879c-7.086024 0-13.060516-2.917775-17.506649-8.753324C141.85943 437.969064 139.636364 430.605156 139.636364 421.435007c0-8.475441 2.223066-15.700407 6.808141-21.952782 4.585075-6.113433 10.420624-9.309091 17.506649-9.309091l93.646676 0c7.086024 0 12.782632 3.056716 17.089824 9.309091 4.16825 6.113433 6.391316 13.477341 6.391316 21.952782 0 9.170149-2.084125 16.534057-6.391316 22.369607-4.16825 5.83555-9.864858 8.753324-17.089824 8.753324L164.090095 452.557938 164.090095 452.696879zM261.488195 146.469471c7.086024 0 12.782632 2.917775 17.089824 8.753324 4.16825 5.83555 6.391316 13.060516 6.391316 21.397015 0 9.031208-2.084125 16.395115-6.391316 21.952782-4.16825 5.557666-9.864858 8.336499-17.089824 8.336499L164.090095 206.909091c-7.086024 0-13.060516-2.778833-17.506649-8.336499-4.585075-5.557666-6.808141-12.782632-6.808141-21.952782 0-8.475441 2.223066-15.561465 6.808141-21.397015C151.029579 149.387246 156.865129 146.469471 164.090095 146.469471L261.488195 146.469471 261.488195 146.469471zM261.488195 266.376119c7.086024 0 12.782632 2.917775 17.089824 8.753324 4.16825 5.83555 6.391316 13.338399 6.391316 22.369607 0 9.170149-2.084125 16.534057-6.391316 22.369607-4.16825 5.83555-9.864858 8.753324-17.089824 8.753324L164.090095 328.621981c-7.086024 0-13.060516-2.917775-17.506649-8.753324C141.85943 314.172049 139.636364 306.669199 139.636364 297.637992c0-9.031208 2.223066-16.534057 6.808141-22.369607 4.585075-5.83555 10.420624-8.753324 17.506649-8.753324L261.488195 266.515061 261.488195 266.376119z"  horiz-adv-x="1149" />

    
    <glyph glyph-name="duigou" unicode="&#58972;" d="M355.680257 321.242813 450.514135 137.429391c0 0 154.103774 373.570207 397.098064 498.089176-5.907547-88.942705-29.623691-166.029384 11.868305-260.907265-106.685811-23.716144-325.982376-290.549376-397.11546-421.00352-100.759845 124.519991-219.311915 219.397872-302.280558 249.049193L355.680257 321.242813z"  horiz-adv-x="1024" />

    
    <glyph glyph-name="sousuo" unicode="&#58881;" d="M1005.259682-118.84639 781.242606 105.53089c-4.856611 4.868891-10.435677 8.575306-16.391319 11.147898 56.985876 72.039733 91.012853 163.073052 91.012853 262.050298 0 233.485729-189.288111 422.747233-422.748257 422.747233-233.461169 0-422.747233-189.261505-422.747233-422.747233 0-233.460146 189.286064-422.748257 422.747233-422.748257 99.070366 0 190.18248 34.091446 262.254959 91.176582 2.566452-5.931083 6.254447-11.493775 11.097756-16.349363L930.485675-193.569232c20.588921-20.643156 54.080709-20.643156 74.722842-0.053212C1025.850649-173.030453 1025.850649-139.540711 1005.259682-118.84639zM433.116907 61.667893c-175.094854 0-317.060169 141.964292-317.060169 317.060169 0 175.09383 141.964292 317.060169 317.060169 317.060169 175.095877 0 317.060169-141.965316 317.060169-317.060169C750.178099 203.632185 608.212784 61.667893 433.116907 61.667893z"  horiz-adv-x="1024" />

    
    <glyph glyph-name="zhifu" unicode="&#58940;" d="M933.875 120.231v415.398c0 89.578-72.64 162.247-162.247 162.247h-519.257c-89.578 0-162.247-72.64-162.247-162.247v-519.257c0-89.578 72.64-162.247 162.247-162.247h519.257c79.833 0 146.234 57.694 159.739 133.674-43.010 18.503-229.54 99.030-326.659 145.483-73.909-89.539-151.342-143.264-268.058-143.264-116.716 0-194.602 71.798-185.212 159.831 6.163 57.78 45.78 152.112 217.775 135.887 90.651-8.552 132.162-25.462 206.163-49.822 19.016 35.045 34.979 73.643 46.962 114.726h-327.761v32.452h162.143v58.413h-197.819v35.697h197.819v84.151c0 0 1.864 13.205 16.339 13.205h81.13v-97.356h210.937v-35.697h-210.938v-58.413h171.995c-15.769-64.437-39.718-123.547-69.793-175.278 50.030-18.048 277.485-87.583 277.485-87.583 0 0 0 0 0 0zM323.779 45.593c-123.318 0-142.788 77.885-136.298 110.337s42.188 74.64 110.743 74.64c78.833 0 149.316-20.114 234.033-61.377-59.424-77.44-132.575-123.6-208.477-123.6z"  horiz-adv-x="1025" />

    
    <glyph glyph-name="shangchuan" unicode="&#58934;" d="M511.695055 715.96476c-15.241123 0-28.932959-6.602372-38.389332-17.10354l-0.00307 0.005117-154.98177-172.201967 0.00307-0.004093c-8.246825-9.153474-13.265118-21.267373-13.265118-34.55705 0-28.529777 23.127743-51.66059 51.65752-51.66059 15.244192 0 28.939099 6.605442 38.395472 17.105586l0.00307-0.002047 64.925708 72.133877 0-338.929246c0-0.002047 0-0.002047 0-0.002047 0-28.5308 23.127743-51.66059 51.65445-51.66059 28.538987 0 51.662637 23.128767 51.662637 51.66059 0 0 0 0 0 0.002047L563.357691 529.681076l64.922638-72.133877 0.00614 0.002047c9.454326-10.500145 23.149233-17.105586 38.392402-17.105586 28.532847 0 51.66059 23.130813 51.66059 51.66059 0 13.289678-5.02034 25.403576-13.265118 34.55705l0.00307 0.004093L550.096666 698.866337l-0.00307-0.005117C540.640294 709.362388 526.942317 715.96476 511.695055 715.96476zM856.102059 193.995711l0-206.641337L167.29726-12.645626 167.29726 193.995711c0 28.532847-23.130813 51.66059-51.66059 51.66059s-51.66059-23.127743-51.66059-51.66059l0-258.301927c0-28.5308 23.130813-51.658544 51.66059-51.658544l792.125979 0c28.535917 0 51.662637 23.127743 51.662637 51.658544L959.425286 193.995711c0 28.532847-23.127743 51.66059-51.662637 51.66059C879.232872 245.656301 856.102059 222.528558 856.102059 193.995711z"  horiz-adv-x="1024" />

    
    <glyph glyph-name="2" unicode="&#58953;" d="M512.036126 807.737096c-280.448474 0-507.75516-227.342812-507.75516-507.773223 0-280.412348 227.306685-507.75516 507.75516-507.75516 280.430411 0 507.737096 227.342812 507.737096 507.75516C1019.773223 580.376222 792.466537 807.737096 512.036126 807.737096zM654.608573 55.479132 360.630799 55.479132l0 11.650732c1.896631 29.099735 15.498183 55.309367 40.750467 78.592768 25.216158 23.283401 57.224061 59.680649 96.059834 109.155618 38.781584 49.493032 64.015805 87.786911 75.666537 114.990016 11.650732 27.148915 16.022014 50.432316 13.113847 69.850203-2.908167 19.38176-12.1565 35.385712-27.654683 48.029917-15.552373 12.590016-33.489081 17.918645-53.846252 16.003951-20.375234-1.95082-39.79312-9.736038-58.217534-23.283401-18.46054-13.601552-32.513671-33.976786-42.213583-61.125701l-55.309367 8.724502c15.498183 44.615982 35.385712 77.147716 59.680649 97.504886 24.240748 20.375234 52.852778 31.520198 85.872217 33.471018 19.363697 1.914694 36.830764 1.463115 52.383136-1.463115 15.498183-2.908167 31.520198-9.736038 48.029917-20.375234 16.45553-10.693385 30.057082-26.697336 40.750467-48.029917 10.639196-21.38677 14.558899-47.07257 11.650732-77.147716-2.908167-30.111272-17.972835-65.984689-45.12175-107.692503-27.203105-41.762004-79.586241-107.240924-157.185535-196.454824L654.608573 107.880332 654.608573 55.479132z"  horiz-adv-x="1024" />

    
    <glyph glyph-name="3" unicode="&#58954;" d="M512.036126 807.737096c-280.448474 0-507.75516-227.342812-507.75516-507.75516 0-280.412348 227.306685-507.75516 507.75516-507.75516 280.430411 0 507.737096 227.342812 507.737096 507.75516C1019.773223 580.376222 792.466537 807.737096 512.036126 807.737096zM653.163521 173.395378c-4.877051-37.860363-21.838349-68.405151-50.938084-91.688552s-62.119174-34.464491-98.949938-33.489081c-36.884953 0.957347-68.892856 12.590016-96.059834 34.934133-27.185041 22.289928-44.670171 54.803599-52.383136 97.504886l52.383136 8.724502c7.749092-25.234221 20.375234-46.133286 37.8423-62.570753 17.48513-16.50972 39.305415-24.313001 65.496984-23.283401 26.191568 0.957347 47.018381 11.650732 62.570753 31.989839 15.498183 20.393297 22.271865 43.676698 20.375234 69.850203-1.95082 26.209631-12.138437 46.584865-30.562851 61.143764-18.442477 14.558899-48.011854 24.746516-88.762321 30.562851l0 37.8423c40.750467 3.865514 70.301782 14.558899 88.762321 32.025966 18.442477 17.467067 26.66121 40.244699 24.746516 68.405151-1.95082 28.106262-14.558899 48.481496-37.8423 61.125701-23.283401 12.590016-48.029917 14.053131-74.221485 4.371282-26.191568-9.736038-47.054507-36.884953-62.588816-81.500935l-52.383136 8.724502c11.650732 34.934133 27.654683 64.033868 48.029917 87.317269s48.029917 36.848827 82.96405 40.750467c34.91607 3.865514 65.47892-0.487705 91.688552-13.095784 26.191568-12.644205 44.615982-32.007903 55.309367-58.217534 10.639196-26.209631 12.102311-54.857788 4.353219-85.872217-7.785218-31.068619-30.111272-58.217534-66.942036-81.500935 27.148915-11.650732 48.029917-29.099735 62.588816-52.383136C653.163521 241.800529 657.986382 211.201552 653.163521 173.395378z"  horiz-adv-x="1024" />

    
    <glyph glyph-name="changjianwenti" unicode="&#58943;" d="M409.827556 402.013156m-24.689778 0a1.085 1.085 0 1 0 49.379556 0 1.085 1.085 0 1 0-49.379556 0ZM518.781156 220.651378m-24.507733 0a1.077 1.077 0 1 0 49.015467 0 1.077 1.077 0 1 0-49.015467 0ZM477.866667 152.111644l68.266667 0 0-68.266667-68.266667 0 0 68.266667ZM773.688889 720.977778 250.311111 720.977778C200.044089 720.977778 159.288889 680.222578 159.288889 629.9328l0-659.911111C159.288889-80.245333 200.044089-120.977778 250.311111-120.977778l523.377778 0c50.267022 0 91.022222 40.732444 91.022222 90.999467l0 659.911111C864.711111 680.222578 823.955911 720.977778 773.688889 720.977778zM819.2-29.955556c0-25.122133-20.366222-45.533867-45.511111-45.533867L250.311111-75.489422c-25.122133 0-45.511111 20.388978-45.511111 45.533867L204.8 629.955556c0 25.122133 20.366222 45.511111 45.511111 45.511111l523.377778 0c25.144889 0 45.511111-20.388978 45.511111-45.511111L819.2-29.955556zM522.490311 518.203022c-75.844267 0-137.375289-50.312533-137.375289-112.366933 0-1.297067 0.182044-2.525867 0.227556-3.822933l49.038222 0c-0.091022 1.297067-0.477867 2.503111-0.477867 3.822933 0 40.868978 40.527644 74.023822 90.5216 74.023822 49.993956 0 93.184-33.427911 93.184-74.296889 0-1.319822-0.068267-2.2528-0.136533-3.527111l42.143289-0.022756c0.091022 1.297067 0.273067 2.525867 0.273067 3.822933C659.8656 467.890489 598.380089 518.203022 522.490311 518.203022zM618.996622 482.272c-27.2384 22.619022-63.943111 33.928533-110.068622 33.928533-43.849956 0-59.710578-14.017422-82.352356-33.518933-23.802311-20.502756-37.751467-44.350578-41.984-72.112356l44.532622 0c0.2048 1.388089 0.386844 2.821689 0.568889 3.982222 2.002489 4.278044 5.006222 8.965689 8.419556 13.698844 6.303289 13.038933 17.567289 23.938844 31.880533 31.288889 13.767111 8.078222 34.178844 13.266489 57.1392 13.266489 26.760533 0 50.084978-7.008711 63.442489-17.476267 0.455111-0.318578 0.955733-0.546133 1.365333-0.864711 2.389333-1.820444 4.5056-4.187022 6.508089-6.690133 11.6736-10.376533 19.160178-25.349689 19.160178-42.1888 0-21.367467-11.992178-39.708444-29.468444-49.402311-13.653333-6.7584-31.561956-20.2752-49.288533-38.206578-21.321956-21.549511-36.295111-43.303822-40.7552-57.412267-0.4096-0.841956-1.001244-1.524622-1.342578-2.389333-0.568889-1.206044-1.001244-2.503111-1.365333-3.959467-0.113778-0.455111-0.250311-0.887467-0.364089-1.388089-0.341333-1.911467-0.591644-4.004978-0.682667-6.303289-0.022756-0.455111-0.136533-0.8192-0.136533-1.297067 0-1.706667-0.136533-8.8064-0.091022-16.657067-0.091022-3.936711-0.250311-7.623111-0.250311-11.036444l46.421333 0c0.477867 1.001244 1.206044 1.865956 1.570133 2.912711l1.6384-0.045511c-0.045511 3.049244 0.045511 5.666133 0.068267 8.442311 0.022756 0.113778 0.045511 0.2048 0.068267 0.318578l0 5.757156c0.568889 13.084444 2.366578 22.641778 5.415822 28.672 4.118756 8.055467 14.654578 18.682311 31.630222 31.903289 32.768 25.577244 54.180978 45.784178 64.193422 60.6208C654.882133 370.906311 659.911111 386.675911 659.911111 403.287467 659.911111 433.302044 646.280533 459.675733 618.996622 482.272z"  horiz-adv-x="1024" />

    
    <glyph glyph-name="youxiang" unicode="&#58930;" d="M860.417-34.919l-28.649-0.184c10.758 0 20.249 0.014 28.649 0.184zM196.642-35.103l-37.463 0.241c10.4-0.288 22.76-0.241 37.463-0.241zM1014.972 420.817c0 25.14-20.361 45.523-45.523 45.523-25.117 0-45.523-20.383-45.523-45.523l0.324-366.313-0.014 1.438c0-79.523-0.741-89.594-63.82-90.863l63.911 0.41 0.001-0.614-819.415-0.36-0.001 0.969 54.266-0.348c-42.089 1.162-51.972 7.824-54.292 45.359l-0.31 536.514c1.688 44.59 10.454 53.202 55.743 54.859l691.034 0.319-338.071-303.372-240.386 199.4c-17.783 17.783-46.601 17.783-64.384 0-17.782-17.782-17.782-46.612 0-64.372l264.231-219.193c1.99-3.541 4.477-6.877 7.487-9.891 11.673-11.657 28.105-15.662 43.048-12.016 9.12 1.467 17.878 5.703 24.903 12.727 2.601 2.601 4.81 5.443 6.649 8.447l445.676 399.953c0.114 0.103 0.229 0.204 0.342 0.308l1.165 1.045c0.823 0.824 1.595 1.679 2.342 2.548 2.738 3.122 5.049 6.625 6.859 10.413-11.024 37.144-45.107 64.37-85.658 65.084l-829.626-0.384c-45.439-4.248-81.182-41.888-82.434-88.133l0.376-648.481c4.357-46.224 43.272-82.4 90.635-82.4h48.368v-0.379l771.050 0.379c50.281 0 91.047 40.767 91.047 91.047v45.523h0.363l-0.363 410.375zM104.546 601.843l28.328 0.013-28.328-0.182v0.169z"  horiz-adv-x="1024" />

    
    <glyph glyph-name="dianzan" unicode="&#58908;" d="M856.384 409.12c-67.712 26.944-128.384 22.08-158.464 10.112-3.072 32.704-2.816 96.96 9.152 168.512 15.36 59.712-19.392 119.68-57.088 170.048C630.528 783.648 592.192 812 550.848 812 550.784 812 550.784 812 550.72 812 503.36 812 492.8 760.288 476.8 662.496 467.712 607.2 457.472 552.096 440.896 514.912 418.56 465.12 382.976 432.48 328.832 404.064c-53.824-28.224-89.728-16.064-98.88-63.36-8.704-45.12-47.936-475.712 30.976-512.704 38.784-18.176 210.048-39.168 349.632-39.168 186.752 0 222.08 89.28 271.744 236.416 4.8 14.208 10.816 35.328 21.696 57.664 23.68 48.832 51.008 109.632 57.344 164.288C973.184 349.024 913.92 386.208 856.384 409.12zM899.328 254.56c-5.12-43.968-32-99.392-53.568-144-12.224-25.216-22.784-47.104-28.864-65.024-45.568-134.976-37.632-194.624-188.48-194.624-108.416 0-279.104 24.512-312.576 38.272-33.472 13.824-22.656 385.28-6.912 411.2S350.72 331.488 390.72 352.48c66.88 35.072 93.952 80.832 122.24 144 20.032 44.736 21.888 108.8 32 170.816C550.912 703.776 549.696 742.432 568.64 748c6.592 1.92 25.792-17.664 41.344-38.976 30.784-42.304 46.592-78.784 39.168-108.032-0.384-2.176-35.712-217.472 13.824-247.616 4.672-2.816 13.12-5.184 18.496-5.184 10.176 0 18.176 3.84 26.752 7.936 11.584 5.504 25.856 12.288 49.984 12.288 21.952 0 47.552-5.824 76.288-17.28C890.944 328.736 905.408 307.04 899.328 254.56zM160 364C81.92 364 64 320.48 64 266.464l0-165.568 0-54.912 0-120.384c0-54.08 18.304-97.536 96-97.536 78.08 0 96 43.52 96 97.536L256 45.92l0 54.912L256 266.464C256 320.48 237.696 364 160 364zM192 45.92l0-122.112c0-27.456-9.088-40.896-32-40.896-19.392 0-32 13.44-32 40.896L128 45.92l0 54.912L128 268.192c0 27.456 9.088 40.896 32 40.896 19.392 0 32-13.44 32-40.896l0-167.296L192 45.92z"  horiz-adv-x="1024" />

    
    <glyph glyph-name="dianhua" unicode="&#59056;" d="M825.6-212c-70.4 0-160 32-256 83.2-89.6 51.2-185.6 128-275.2 217.6C204.8 184.8 134.4 274.4 83.2 370.4c-25.6 44.8-44.8 89.6-64 134.4C6.4 543.2 0 581.6 0 613.6c0 19.2 6.4 38.4 19.2 51.2C25.6 677.6 44.8 703.2 64 716c19.2 19.2 70.4 64 89.6 76.8l19.2 12.8C179.2 812 192 812 204.8 805.6c0 0 0 0 6.4-6.4 6.4-6.4 19.2-12.8 25.6-25.6C256 754.4 275.2 728.8 294.4 696.8c32-51.2 57.6-102.4 70.4-128 0-6.4 0-12.8 0-12.8 0-6.4-6.4-12.8-25.6-38.4C326.4 504.8 313.6 492 313.6 485.6c-6.4-12.8-6.4-25.6 0-44.8l0-6.4c6.4-32 12.8-64 44.8-102.4C377.6 300 403.2 268 435.2 236c32-32 64-57.6 89.6-83.2C569.6 120.8 595.2 108 620.8 108c38.4 0 70.4 19.2 96 32 19.2 6.4 32 19.2 51.2 19.2 6.4 0 6.4 0 12.8 0 19.2-6.4 64-32 134.4-76.8 70.4-51.2 102.4-83.2 108.8-89.6C1024-13.6 1024-20 1024-32.8c-6.4-38.4-64-108.8-89.6-128-19.2-19.2-38.4-32-57.6-38.4C857.6-205.6 844.8-212 825.6-212zM185.6 754.4 185.6 754.4C166.4 741.6 115.2 696.8 102.4 677.6 83.2 664.8 70.4 652 64 632.8 57.6 620 51.2 613.6 51.2 613.6c0-25.6 6.4-57.6 19.2-89.6C83.2 479.2 102.4 440.8 128 396c51.2-89.6 121.6-179.2 204.8-262.4 83.2-89.6 172.8-160 262.4-211.2 89.6-51.2 166.4-76.8 230.4-76.8 6.4 0 19.2 0 32 6.4 12.8 6.4 25.6 19.2 38.4 25.6 25.6 19.2 57.6 64 70.4 89.6-12.8 12.8-44.8 38.4-89.6 70.4-57.6 38.4-96 57.6-108.8 70.4-6.4 0-19.2-6.4-25.6-12.8-32-12.8-70.4-38.4-121.6-38.4-38.4 0-76.8 19.2-128 57.6-32 25.6-64 51.2-96 89.6-32 32-64 70.4-83.2 96C275.2 344.8 268.8 383.2 262.4 421.6L256 428C249.6 453.6 243.2 479.2 262.4 511.2c6.4 6.4 12.8 19.2 25.6 38.4C294.4 556 300.8 562.4 307.2 562.4 294.4 588 275.2 626.4 249.6 671.2 230.4 696.8 211.2 722.4 192 741.6 192 741.6 185.6 748 185.6 754.4z"  horiz-adv-x="1024" />

    
    <glyph glyph-name="alarm" unicode="&#58883;" d="M860.16 38.8288c-58.5728 43.9808-92.16 111.2064-92.16 184.3712l0 153.6c0 128.6656-86.7328 237.4656-204.8 270.9504l0 36.2496c0 42.3424-34.4576 76.8-76.8 76.8s-76.8-34.4576-76.8-76.8l0-36.2496c-118.0672-33.536-204.8-142.2848-204.8-270.9504l0-153.6c0-73.1648-33.5872-140.3392-92.16-184.3712-8.8064-6.6048-12.3904-18.1248-8.9088-28.5696s13.2608-17.5104 24.2688-17.5104l232.96 0c-1.6896-8.3968-2.6112-16.9472-2.6112-25.6 0-70.5536 57.4464-128 128-128s128 57.4464 128 128c0 8.6016-0.8704 17.2032-2.56 25.6l232.96 0c11.008 0 20.7872 7.0656 24.2688 17.5104s-0.1024 21.9648-8.9088 28.5696zM460.8 684c0 14.1312 11.4688 25.6 25.6 25.6s25.6-11.4688 25.6-25.6l0-26.7776c-8.448 0.768-16.9472 1.1776-25.6 1.1776s-17.152-0.4096-25.6-1.1776l0 26.7776zM563.2-32.8c0-42.3424-34.4576-76.8-76.8-76.8s-76.8 34.4576-76.8 76.8c0 8.7552 1.536 17.408 4.4032 25.6l144.7936 0c2.8672-8.192 4.4032-16.8448 4.4032-25.6zM191.5904 44c13.056 15.8208 24.4224 33.0752 33.7408 51.2512 20.3776 39.8336 30.6688 82.8928 30.6688 127.9488l0 153.6c0 127.0272 103.3728 230.4 230.4 230.4s230.4-103.3728 230.4-230.4l0-153.6c0-45.056 10.3424-88.1152 30.6688-127.9488 9.3184-18.2272 20.6848-35.4304 33.7408-51.2512l-589.6704 0z"  horiz-adv-x="1024" />

    
    <glyph glyph-name="iconfontdianhua" unicode="&#58949;" d="M433.946 221.988C333.372 322.499 237.242 438.943 283.337 484.974c65.842 65.907 123.24 106.479 6.543 251.753C173.179 881.998 95.336 770.441 31.461 706.567c-73.59-73.655-3.872-348.199 267.496-619.627 271.373-271.307 545.978-341.148 619.627-267.437 63.875 63.815 175.367 141.592 30.165 258.353-145.208 116.768-185.845 59.367-251.755-6.536C650.9 25.414 534.516 121.478 433.946 221.988L433.946 221.988 433.946 221.988z"  horiz-adv-x="1024" />

    
    <glyph glyph-name="r" unicode="&#58960;" d="M512 832C264.576 832 64 631.423 64 384s200.576-448 448-448 448 200.576 448 448S759.424 832 512 832zM512 0c-212.078 0-384 171.923-384 384 0 212.077 171.922 384 384 384 212.077 0 384-171.923 384-384C896 171.923 724.077 0 512 0zM703.001 179 592.013 327.588l1.164 0.124C657.479 348.461 704 408.793 704 480c0 88.366-71.634 160-160 160L416 640c-17.673 0-32-14.327-32-32l0-448c0-17.673 14.327-32 32-32s32 14.327 32 32L448 320l68.889 0 134.912-179.399c10.604-14.139 30.661-17.004 44.799-6.4C710.739 144.804 713.604 164.862 703.001 179zM448 384 448 576l96 0c53.02 0 96-42.98 96-96s-42.98-96-96-96L448 384z"  horiz-adv-x="1024" />

    
    <glyph glyph-name="1" unicode="&#59121;" d="M512 812C229.233778 812 0 582.766222 0 300c0-282.766222 229.233778-512 512-512 282.766222 0 512 229.233778 512 512C1024 582.766222 794.766222 812 512 812zM624.810667 119.832889l-222.008889 0 0 42.268444 86.755556 0L489.557333 456.103111l-89.002667-25.742222 0 44.999111 137.756444 39.992889 0-353.223111 86.499556 0L624.810667 119.832889z"  horiz-adv-x="1024" />

    
    <glyph glyph-name="qiandao" unicode="&#58933;" d="M843.007232 452.188393c-0.361263-0.361263-2.167578 0.722526-3.973893 2.528841L584.523549 709.046393c-1.806315 1.806315-2.890104 3.61263-2.528841 3.973893l57.260187 57.260187c0.361263 0.361263 2.167578-0.722526 3.973893-2.528841L897.738578 513.422473c1.806315-1.806315 2.890104-3.61263 2.528841-3.973893L843.007232 452.188393 843.007232 452.188393zM843.007232 452.188393M968.365497 721.871229l-117.952373 117.952373c-29.623567 29.623567-72.433233 37.029458-104.585641 20.591992-6.683366-3.431999-13.005468-7.947786-18.605045-13.547363l-35.223143-35.223143c-2.528841-2.528841-4.877051-5.238314-6.863997-8.128418 0.361263-0.541895 0.903158-1.083789 1.445052-1.625684l243.852531-243.852531c0.541895-0.541895 1.083789-1.083789 1.625684-1.445052 2.890104 2.167578 5.599577 4.335156 8.128418 6.863997l35.223143 35.223143c5.599577 5.599577 10.115364 11.921679 13.547363 18.605045C1005.394955 649.437996 998.169695 692.247663 968.365497 721.871229L968.365497 721.871229zM968.365497 721.871229M386.370788-3.002999c-1.625684-5.780208 412.381725 408.949727 412.381725 408.949727 2.890104 2.890104 5.057682 5.599577 4.696419 5.96084L749.620744 465.916387c-0.361263 0.361263-3.070736-1.625684-5.96084-4.696419L337.600282 54.799083c-0.180632-0.180632-9.212207-5.418945-9.392838-5.599577 0 0-156.246252-45.338508-160.220145-45.699771-3.251367-0.180632-19.869466 18.605045-19.869466 18.605045s-15.534309 13.908626-15.534309 17.159993c0 3.431999 49.673664 170.51614 49.673664 170.51614l404.072676 406.601517c2.890104 2.890104 5.057682 5.599577 4.696419 5.96084l-50.39619 50.39619c-0.361263 0.361263-3.070736-1.806315-5.96084-4.696419L123.371318 256.745105c-0.361263-0.361263-5.780208-5.780208-6.322103-7.947786L30.526724-42.74193c-3.793262-5.96084-6.141471-13.1861-6.141471-20.953255 0-21.675781 17.521256-39.197037 39.197037-39.197037 7.405892 0 14.089257 1.986947 20.050097 5.599577 0.722526-0.180632 1.986947 0 3.431999 0.541895 0 0 279.436938 81.826072 283.952725 85.438702M702.29529 513.06121l-67.014288 67.014288c-0.541895 0.541895-3.251367-1.445052-6.141471-4.335156L223.079908 169.500088c-2.34821-2.34821-3.973893-4.515788-4.335156-5.599577l54.911977-12.282942c2.709473-1.083789 4.877051-3.431999 5.599577-6.502734 0-0.361263 0.180632-0.722526 0.180632-1.264421l7.22526-47.325454c1.083789 0.541895 3.070736 2.167578 5.057682 4.154525l406.059623 406.059623C700.850238 509.809843 702.837185 512.519316 702.29529 513.06121L702.29529 513.06121zM702.29529 513.06121"  horiz-adv-x="1024" />

    
    <glyph glyph-name="qq-copy" unicode="&#58906;" d="M959.221 716.348c0 75.345-61.017 136.207-136.207 136.207h-622.027c-75.192 0-136.208-60.863-136.208-136.207v-622.027c0-75.192 61.017-136.207 136.208-136.207h622.027c75.192 0 136.207 61.017 136.207 136.207v622.027zM794.509 292.007v-8.474l3.697-4.93 1.080-8.321-0.31-7.704-1.695-6.933-0.616-2.773-1.387-3.39-1.233-2.312-1.695-2.928-1.541-1.849-2.003-2.312-1.695-2.003-2.003-1.541-2.156-1.079-2.005 2.311-1.695 2.928h-2.464l-1.695-2.928h-3.082l-1.387 0.155-1.543 0.616-1.541 1.233-1.695 1.541-2.772 2.927-3.236 4.314-2.466 4.315-2.464 3.544-2.466 4.006-3.544 7.396-3.852 1.849-0.462-5.547h-0.772l-1.541 4.623-0.923 0.771-1.541-0.924-2.621-6.78-4.005-10.015-5.085-12.327-4.007-6.162-4.005-6.626-4.777-7.242-5.085-7.242-2.621-3.235-3.236-3.545-7.241-7.087 0.616-0.771 1.080-0.924 3.544-2.157 15.253-7.242 6.471-3.852 6.471-3.545 6.163-4.622 5.546-4.623 2.774-2.156 2.003-2.465 2.003-2.774 1.849-3.081 0.925-2.621 1.080-3.081 0.462-2.62-2.466-3.082-3.544-2.157v-2.003l2.621-2.157 0.308-2.003 0.308-1.541-0.616-1.849-2.621-3.853-2.464-2.927-2.003-2.312-1.541-1.695-4.161-3.082-4.777-2.62-5.085-2.465-5.393-2.465-6.010-2.312-3.236-1.079-2.772-0.771-7.089-1.695-14.482-3.082-8.012-1.232-8.012-2.621-8.474-3.39h-26.040l-9.244 2.928-8.784 1.849-9.398 1.849-9.246 1.387-9.862 1.387-9.554 2.465-9.244 1.849-9.246 2.62-9.554 3.39-9.244 2.928-4.93 1.541-4.315 1.54-2.772-0.77-2.621-1.387h-7.859l-8.936 2.62-4.469 1.387-5.854 1.079-3.699-3.082-5.084-3.081-6.933-3.39-7.55-4.161-4.623-2.156-4.93-1.849-10.632-4.315-5.855-1.54-6.009-1.541-8.63-1.695-5.238-0.463-5.546-0.462-5.856-0.617-6.779-0.309h-27.888l-15.562 0.309-15.254 1.541-7.703 1.079-7.55 1.079-7.242 1.080-7.241 1.54-6.78 2.157-6.626 1.541-6.009 2.465-5.855 2.312-5.238 2.465-4.777 2.927-4.468 3.236-5.393 5.393-1.387 2.003-1.232 2.003-1.079 2.004-1.387 4.314v19.569l0.308 2.773 2.158 6.163 1.849 3.698 2.465 3.082 2.773 3.544 2.312 1.849 2.312 1.233 1.849 1.695 3.236 0.924 2.465 1.541 3.236 1.695 3.698 1.079 3.544 1.079 4.16 0.924 4.006 0.617 4.776 0.617 5.086 1.232 1.386 1.387h0.309l-4.93-1.233v0.617l1.849 1.233-1.387 1.232-6.162 6.010-4.16 3.544-5.085 4.622-5.239 5.239-5.546 6.626-6.318 7.396-2.312 4.005-3.236 4.16-2.62 4.93-2.465 5.239-3.39 4.93-2.157 5.701-2.465 5.7-2.464 6.471-2.004 6.010-1.695 9.553-0.617 2.157h-1.541l-0.924-2.157-0.617-1.079-0.616-1.695-0.463-1.85-0.462-1.386-0.924-2.312-3.082-5.547-1.695-3.39-2.62-2.927-2.774-3.545-2.773-4.005-3.39-3.39-3.698-3.39-3.39-3.081-3.697-2.465-4.314-2.774-4.006-1.541-4.623-0.616-4.776 0.153h-1.080l-0.924-0.153-0.924 1.541-1.387 0.771-1.849 4.314-1.079 2.312-1.233 3.39-0.924 3.544-0.617 3.39-0.308 8.012 0.617 4.622v15.255l-0.617 11.247 0.308 5.855 0.924 6.010 0.925 6.47 1.541 6.010 2.003 6.933 2.003 6.626 2.621 6.933 2.62 6.626 3.544 6.779 3.236 7.242 4.006 6.779 4.776 7.396 4.777 6.626 4.93 7.396 4.16 5.085 5.394 5.855 5.701 6.010 2.62 2.773 3.236 3.236 4.622 4.006 4.777 4.006 7.55 6.933 6.009 4.314 2.004 1.541-1.233 3.544-6.009 4.623-5.855 2.465v10.478l6.317 4.16 3.698 4.314 2.773 4.623 2.621 4.93 3.544 5.394 4.622 5.238v3.697l-0.153 3.545 0.153 4.622 1.541 5.238 1.387 5.701 1.232 2.774 1.233 2.465-2.774 2.62-2.62 2.003v13.097l5.547 6.779 3.544 7.704 3.082 9.399 3.236 9.707 2.312 5.393 2.003 5.855 2.312 5.394 2.62 5.855 2.773 6.317 3.082 6.010 3.39 6.47 4.469 6.318 2.003 3.544 2.157 3.082 4.622 6.779 4.777 6.626 5.393 6.934 6.010 6.779 6.162 6.626 6.779 6.779 7.859 7.396 5.085 4.468 6.162 4.777 6.318 4.314 6.933 4.006 6.471 3.697 7.396 2.928 7.703 3.697 7.859 2.621 7.703 2.62 8.475 2.62 8.321 2.003 8.782 1.695 8.937 1.387 8.783 1.233 8.783 1.079 9.398 0.617h27.735l9.246-1.233 9.244-1.079 9.554-0.924 8.782-2.157 9.246-2.003 8.782-2.157 9.554-2.62 8.629-3.082 8.474-3.544 8.784-3.698 8.166-4.16 7.857-4.468 7.859-5.085 6.779-4.623 3.082-2.62 3.236-1.849 6.163-5.394 5.238-5.085 5.238-5.238 5.085-5.855 4.161-5.547 4.93-5.855 3.544-6.317 3.544-5.547 3.697-6.471 3.082-5.547 5.238-11.864 2.621-6.162 2.003-5.855 1.849-6.163 1.849-5.855 1.233-4.93 1.695-5.855 2.928-10.632 1.695-9.091 1.231-8.937 1.080-7.087 1.541-10.939 0.308-1.695 1.387-2.004 3.39-5.701 2.311-3.852 1.851-4.006 2.464-4.16 2.311-5.085 1.387-5.394 1.541-5.701 1.233-5.855-1.387-2.927-1.541-3.545v-10.016l0.772-3.697-0.772-7.242v-8.627l-0.462-1.387 1.233-2.927 8.012-12.173 6.161-8.937 3.082-6.162 4.161-6.626 3.544-7.242 4.159-7.858 4.161-8.783 4.777-9.862 2.619-6.009 2.466-6.009 2.156-6.318 2.003-5.547 1.541-5.855 1.695-5.546 2.003-10.94-2.926-10.939-3.236-9.862v-5.398h-0.002zM794.509 292.007z"  horiz-adv-x="1024" />

    
    <glyph glyph-name="jiahao" unicode="&#58926;" d="M452.546422 831.905216l120.664174 0 0-386.717645 386.718669 0 0-120.614032L573.210595 324.573539 573.210595-63.905216 452.546422-63.905216 452.546422 324.573539 64.068689 324.573539 64.068689 445.187571l388.477732 0L452.546422 831.905216z"  horiz-adv-x="1024" />

    
    <glyph glyph-name="pingjia" unicode="&#58994;" d="M867.408057 662.858102l-77.691453 77.792761c-12.583596 12.655228-30.639834 19.894096-49.587372 19.894096-18.917862 0-36.989449-7.238868-49.572022-19.894096-0.052189-0.025583-0.105401-0.084934-0.158612-0.125867l-63.320141-74.629721L289.086559 341.75792c-0.384763-0.35918-0.649799-0.861624-0.676405-1.391696l-22.314215-194.292078c-0.079818-0.73678 0.226151-1.477654 0.782829-1.955538l10.738575-9.400091c0.398066-0.360204 0.941442-0.550539 1.484817-0.550539 0.105401 0 0.212848 0 0.318248 0.026606l188.92893 25.753547c0.530073 0.079818 0.980327 0.311085 1.339508 0.687662l323.168284 339.008041 74.393337 60.860113c0.051165 0.054235 0.105401 0.105401 0.170892 0.158612 13.006222 13.065574 20.497846 31.6877 20.497846 51.098795C887.92023 631.170402 880.428605 649.784342 867.408057 662.858102M832.195068 598.654848l-43.406602-43.513026L682.324712 661.796934l43.393299 43.539632c3.846608 3.818979 8.934486 5.933129 14.386662 5.933129 5.489014 0 10.605545-2.114151 14.410198-5.933129l77.639265-77.745688C840.098062 619.629555 840.123644 606.635613 832.195068 598.654848M324.698638 193.060273l5.076622 83.268472 76.739778-76.818573L324.698638 193.060273zM352.645131 323.950346l299.014164 298.018487 97.420797-97.607038-297.117978-299.818483L352.645131 323.950346zM797.512151 436.222385c-13.617136 0-24.301476-11.084453-24.301476-25.242917l0-303.216883c0-29.566386-22.99062-53.647851-51.257407-53.647851L245.758752 54.114734c-14.226003 0-30.082132 6.052856-42.49279 16.127306-13.019525 10.5728-20.497846 24.26259-20.497846 37.520545L182.768115 585.344704c0 28.138874 33.556257 60.225663 62.990636 60.225663l256.412904 0c14.134929 0 25.204032 10.711969 25.204032 24.367991 0 13.657045-11.069103 24.343431-25.204032 24.343431L245.758752 694.281789c-62.579267 0-111.594611-47.869241-111.594611-108.936061l0-477.582119c0-29.333072 11.655458-55.763025 32.82664-74.430176 20.418029-18.006096 48.393173-27.921933 78.767971-27.921933l476.194516 0c30.042223 0 55.31277 9.698896 73.025177 28.054963 17.582447 18.163685 26.863834 43.852764 26.863834 74.297147L821.842279 410.978445C821.842279 425.137932 811.179428 436.222385 797.512151 436.222385"  horiz-adv-x="1024" />

    
    <glyph glyph-name="qq" unicode="&#58902;" d="M537.407-2.774v0c-12.725 0-19.065 0-25.407 0-6.298 0-12.681 0-19.024 0h-6.342c-6.342 0-19.024 0-25.365-6.298-25.365-25.407-69.753-38.090-126.825-38.090-38.047 0-69.753 6.383-101.462 19.024-25.365 12.681-38.047 25.407-38.047 44.39 0 19.024 12.681 31.705 44.39 44.432 19.024 6.298 25.365 12.639 25.365 25.407 0 12.639 0 25.323-6.342 31.705-12.681 12.556-19.024 31.622-31.705 44.262-6.342 12.681-19.024 19.065-31.705 19.065v0c-12.681 0-19.024-6.383-31.705-12.768-12.681-12.639-19.024-18.939-25.365-18.939v0c-6.342 0-12.639 18.939-12.639 50.646s6.299 69.796 12.598 107.887c12.681 38.005 31.705 69.711 63.412 101.418 6.342 6.298 12.681 19.024 12.681 31.705 0 6.298 0 6.298 0 12.639 0 19.065 6.342 38.047 19.024 57.072 6.342 6.342 6.342 12.681 6.342 19.024v6.342c0.042 76.138 25.365 139.55 82.479 196.622 50.731 57.114 114.142 82.437 190.238 82.437 76.095 0 139.508-25.365 196.579-82.437 50.772-57.072 82.479-120.484 82.479-196.537 0 0 0 0 0-6.342 0-6.342 0-12.681 6.298-19.024 12.681-19.024 19.024-38.005 19.024-57.072 0-6.342 0-6.342 0-12.639 0-12.681 0-25.407 12.681-31.705 31.705-31.705 50.731-63.412 63.412-101.418 12.681-38.090 19.024-76.179 12.681-107.887 0-31.705-6.342-44.345-18.983-50.646-6.342 0-12.725 6.299-25.407 18.939-6.299 6.342-19.024 12.768-31.705 12.768h-6.299c-12.725 0-25.407-6.383-31.705-19.065-6.342-19.024-19.065-31.705-31.705-44.345-6.342-6.383-12.725-19.065-6.342-31.705 0-12.768 12.681-19.065 18.983-25.407 31.665-12.768 44.39-25.45 44.39-44.473 0-18.982-12.725-31.705-38.047-44.39-25.365-12.639-63.412-19.024-101.462-19.024-57.072 0-95.119 12.725-126.825 38.090 6.342 0-6.342 6.342-12.639 6.342v0zM683.215-123.301c63.412 0 114.142 12.681 152.19 38.005 38.047 25.407 63.412 57.114 63.412 101.462 0 25.365-6.299 44.432-18.982 63.412 6.342 0 18.982 0 25.365 6.383 38.047 12.639 57.072 44.345 63.412 95.119 6.342 44.345 0 95.119-18.982 152.149-12.725 44.432-38.047 82.437-69.753 120.484v0c0 31.705-6.342 57.072-19.024 88.777 0 95.119-31.705 177.556-101.418 247.352-69.882 69.753-152.317 101.462-247.435 101.462-95.119 0-177.556-31.705-247.31-101.418-63.455-69.796-101.462-152.233-101.462-247.352-12.681-25.365-19.024-57.072-19.024-88.777v-6.342c-38.047-31.705-57.072-76.095-69.753-114.142-19.024-57.029-25.365-107.802-19.024-152.149 6.342-50.772 31.705-82.479 63.412-95.119 6.342 0 19.024-6.383 25.365-6.383-12.681-18.982-19.024-38.047-19.024-63.412 0-38.047 19.024-76.095 63.412-101.462 38.047-25.365 88.777-38.047 145.848-38.047 63.412 0 120.484 12.681 158.532 44.39h31.705c44.432-31.705 95.119-44.39 158.532-44.39v0z"  horiz-adv-x="1024" />

    
    <glyph glyph-name="icon" unicode="&#58939;" d="M722.461 609.777c-75.593 0-144.114-20.252-186.266-52.126v199.295c0 76.403-99.449 136.246-229.69 136.246-130.243 0-231.782-59.842-231.782-136.246 0 283.925 0-588.574 0-588.574 0-0.022 0-0.022 0-0.047 0-0.028 0-0.050 0-0.073v-4.72h0.403c4.201-74.077 103.9-131.469 231.38-131.469 0 0 0.035 0 0.058 0l0.116 31.453-0.19-52.287c0-0.050 0-0.099 0-0.169 0-0.073 0-0.119 0-0.19v-4.601h0.382c4.22-74.081 104.413-131.466 231.879-131.466 128.965 0 230.057 58.703 232.097 134.004h0.19v37.074c104.911 12.623 176.292 65.556 178.047 131.084h0.19v296.564c-0.001 76.406-96.548 136.243-226.816 136.243zM538.753 21.959c-105.55 0-179.65 43.663-183.349 84.070l0.047 6.107c0.239 3.065 0.903 6.131 1.898 9.195 42.268-30.847 107.212-50.322 181.405-50.322 74.268 0 139.309 19.523 181.527 50.42 1.33-3.884 2.181-7.98 2.181-12.266 0-41.243-75.476-87.206-183.708-87.206zM722.461 207.27c0-41.247-75.476-87.211-183.708-87.211-102.939 0-176.045 41.535-183.019 81.053l0.047 6.157h-0.71c0 41.241 75.428 87.205 183.683 87.205 108.23 0 183.707-45.963 183.707-87.205zM306.507 277.326c-106.384 0-180.897 44.383-183.457 85.050l0.012 4.454c0.212 3.282 0.901 6.589 2.014 9.897 42.233-30.875 107.214-50.351 181.433-50.351s139.196 19.476 181.429 50.351c1.377-4.076 2.265-8.123 2.265-12.197 0-8.355-3.25-16.908-9.095-25.243-59.796-8.67-109.646-30.511-140.561-60.309-10.96-1.005-22.26-1.652-34.036-1.652zM510.030 342.425c-0.735-0.047-1.446-0.119-2.181-0.192 0.735 0.071 1.446 0.146 2.181 0.192zM125.101 572.909c42.228-30.836 107.197-50.31 181.405-50.31 74.205 0 139.159 19.459 181.394 50.31 1.364-4.049 2.3-8.11 2.3-12.171 0-41.241-75.439-87.195-183.694-87.195-104.547 0-178.265 42.853-183.222 82.933l0.012 8.574c0.319 2.622 0.912 5.243 1.806 7.857zM123.402 653.524l0.012 10.144c0.332 2.454 0.868 4.897 1.7 7.341 42.228-30.847 107.185-50.31 181.394-50.31 74.276 0 139.291 19.509 181.525 50.405 1.338-3.881 2.169-7.975 2.169-12.26 0-41.245-75.439-87.195-183.694-87.195-103.631 0-176.995 42.096-183.105 81.875zM125.028 474.861c42.233-30.871 107.223-50.368 181.479-50.368 74.205 0 139.173 19.473 181.405 50.31 1.361-4.034 2.288-8.095 2.288-12.165 0-41.245-75.439-87.207-183.694-87.207-105.459 0-179.57 43.617-183.342 83.995l0.015 6.961c0.295 2.826 0.887 5.649 1.849 8.475zM306.507 844.144c108.255 0 183.694-45.953 183.694-87.195 0-41.241-75.439-87.195-183.694-87.195-102.707 0-175.75 41.355-182.986 80.823l0.012 6.372h-0.722c0 41.244 75.441 87.195 183.696 87.195zM306.491 109.166c0-1.413 0.289-2.804 0.332-4.192l-0.082-23.858c-0.082 0-0.155 0-0.237 0-108.21 0-183.623 45.914-183.696 87.161v0.073c0.012 4.288 0.878 8.334 2.206 12.21 42.233-30.892 107.235-50.393 181.49-50.393 0.143 0 0.284 0.028 0.427 0.028l-0.058-17.678c-0.049-1.126-0.382-2.228-0.382-3.353zM306.959 138.29l0.126 40.959c-0.187 0-0.377-0.022-0.578-0.022-107.296 0-182.249 45.151-183.577 86.103l0.012 2.111c0.093 3.71 0.912 7.447 2.171 11.159 42.228-30.847 107.185-50.322 181.394-50.322 0.994 0 1.945 0.093 2.928 0.093 0 0.028 0.012 0.028 0.012 0.050-1.763-6.897-2.953-13.915-2.953-21.147 0-2.754 0.429-5.462 0.667-8.194l-0.202-60.789zM329.741 267.295v0 0zM320.89 254.958c0-0.028-0.012-0.028-0.022-0.047 0.012 0.019 0.022 0.019 0.022 0.047zM538.753-76.142c-108.158 0-183.493 45.841-183.683 87.061v0.311c0.050 3.974 0.95 7.997 2.276 11.999 42.223-30.847 107.212-50.322 181.405-50.322 74.221 0 139.165 19.473 181.386 50.322 1.372-4.049 2.324-8.123 2.324-12.169 0-41.248-75.476-87.205-183.708-87.205zM771.039 95.369v48.742c53.697 6.468 100.145 23.399 132.85 47.278 1.353-4.046 2.281-8.095 2.281-12.165-0.001-34.732-53.607-72.693-135.131-83.856zM771.039 193.5v13.772c0 11.879-2.73 23.28-7.378 34.202 56.811 5.773 106.004 23.065 140.208 48.021 1.372-4.046 2.3-8.099 2.3-12.169 0-34.729-53.606-72.667-135.13-83.826zM726.329 288.345c-39.161 31.396-100.81 52.139-172.334 54.753-8.326 9.148-13.604 18.706-14.745 28.166l0.022 8.022c0.286 2.779 0.878 5.531 1.802 8.31 42.246-30.822 107.191-50.301 181.386-50.301 74.29 0 139.309 19.5 181.549 50.395 1.33-3.877 2.16-7.973 2.16-12.26-0.001-40.74-73.698-85.983-179.841-87.085zM722.461 386.353c-102.847 0-175.948 41.459-182.994 80.978l0.022 6.203h-0.711c0 41.247 75.428 87.193 183.683 87.193s183.708-45.947 183.708-87.193c0-41.243-75.453-87.181-183.708-87.181z"  horiz-adv-x="1024" />

    
    <glyph glyph-name="chenggonggou" unicode="&#59021;" d="M512 830.650643c-246.678192 0-446.650643-199.972451-446.650643-446.650643s199.972451-446.650643 446.650643-446.650643 446.650643 199.972451 446.650643 446.650643S758.678192 830.650643 512 830.650643zM512 6.065392c-208.726835 0-377.935632 169.208796-377.935632 377.935632s169.208796 377.935632 377.935632 377.935632 377.935632-169.208796 377.935632-377.935632S720.726835 6.065392 512 6.065392zM779.24153 525.598972c-13.420661 13.416568-35.172057 13.416568-48.588625 0L463.412398 258.358465 293.347095 428.421722c-13.416568 13.416568-35.168987 13.416568-48.588625 0-13.416568-13.420661-13.416568-35.172057 0-48.588625L439.117063 185.474504c13.416568-13.420661 35.172057-13.420661 48.591695 0L779.24153 477.010347C792.658098 490.426915 792.658098 512.182404 779.24153 525.598972z"  horiz-adv-x="1024" />

    
    <glyph glyph-name="suoxiao1" unicode="&#58894;" d="M662.621579 564.705882l240.941176 0c15.751529 0 30.117647-14.366118 30.117647-30.117647s-15.932235-30.117647-31.713882-30.117647l-240.941176 0C645.273814 504.470588 632.503932 518.836706 632.503932 534.588235S646.870049 564.705882 662.621579 564.705882zM662.621579 835.764706c15.751529 0 30.117647-14.366118 30.117647-30.117647l0-271.058824c0-15.751529-15.932235-30.117647-31.713882-30.117647S632.503932 517.240471 632.503932 532.992L632.503932 805.014588C632.503932 820.796235 646.870049 835.764706 662.621579 835.764706zM662.621579 504.470588c-7.228235 0-14.456471 2.590118-20.269176 7.830588-12.318118 11.203765-13.191529 30.238118-2.017882 42.556235l301.176471 331.294118c11.173647 12.288 30.238118 13.191529 42.556235 2.017882 12.318118-11.203765 13.191529-30.238118 2.017882-42.556235l-301.176471-331.294118C678.975461 507.783529 670.783461 504.470588 662.621579 504.470588zM331.327461 564.705882 90.386285 564.705882c-15.751529 0-30.117647-14.366118-30.117647-30.117647s15.962353-30.117647 31.713882-30.117647l240.941176 0C348.675226 504.470588 361.445108 518.836706 361.445108 534.588235S347.078991 564.705882 331.327461 564.705882zM331.327461 835.764706c-15.751529 0-30.117647-14.366118-30.117647-30.117647l0-271.058824c0-15.751529 15.962353-30.117647 31.713882-30.117647S361.445108 517.240471 361.445108 532.992L361.445108 805.014588C361.445108 820.796235 347.078991 835.764706 331.327461 835.764706zM331.327461 504.470588c7.228235 0 14.456471 2.590118 20.239059 7.830588 12.318118 11.203765 13.191529 30.238118 2.017882 42.556235l-301.176471 331.294118C41.264402 898.439529 22.199932 899.343059 9.881814 888.169412-2.436303 876.965647-3.309715 857.931294 7.863932 845.613176l301.176471-331.294118C315.003697 507.783529 323.165579 504.470588 331.327461 504.470588zM662.621579 203.294118l240.941176 0c15.751529 0 30.117647 14.366118 30.117647 30.117647s-15.932235 30.117647-31.713882 30.117647l-240.941176 0C645.273814 263.529412 632.503932 249.163294 632.503932 233.411765S646.870049 203.294118 662.621579 203.294118zM662.621579-67.764706c15.751529 0 30.117647 14.366118 30.117647 30.117647l0 271.058824c0 15.751529-15.932235 30.117647-31.713882 30.117647S632.503932 250.759529 632.503932 235.008l0-272.022588C632.503932-52.796235 646.870049-67.764706 662.621579-67.764706zM662.621579 263.529412c-7.228235 0-14.456471-2.590118-20.269176-7.830588-12.318118-11.203765-13.191529-30.238118-2.017882-42.556235l301.176471-331.294118c11.173647-12.288 30.238118-13.191529 42.556235-2.017882 12.318118 11.203765 13.191529 30.238118 2.017882 42.556235l-301.176471 331.294118C678.975461 260.216471 670.783461 263.529412 662.621579 263.529412zM331.327461 203.294118 90.386285 203.294118c-15.751529 0-30.117647 14.366118-30.117647 30.117647s15.962353 30.117647 31.713882 30.117647l240.941176 0C348.675226 263.529412 361.445108 249.163294 361.445108 233.411765S347.078991 203.294118 331.327461 203.294118zM331.327461-67.764706c-15.751529 0-30.117647 14.366118-30.117647 30.117647l0 271.058824c0 15.751529 15.962353 30.117647 31.713882 30.117647S361.445108 250.759529 361.445108 235.008l0-272.022588C361.445108-52.796235 347.078991-67.764706 331.327461-67.764706zM331.327461 263.529412c7.228235 0 14.456471-2.590118 20.239059-7.830588 12.318118-11.203765 13.191529-30.238118 2.017882-42.556235l-301.176471-331.294118c-11.173647-12.288-30.208-13.191529-42.556235-2.017882-12.318118 11.203765-13.191529 30.238118-2.017882 42.556235l301.176471 331.294118C315.003697 260.216471 323.165579 263.529412 331.327461 263.529412z"  horiz-adv-x="1025" />

    
    <glyph glyph-name="xin" unicode="&#58944;" d="M700.856275 740.457458c-74.768891 0-144.295384-72.696696-190.046381-127.260405C465.073224 667.773042 395.563104 740.457458 320.754305 740.457458c-134.789892 0-244.443291-105.780185-244.443291-235.799424 0-77.56968 39.277562-131.98808 70.844511-175.712931 91.752704-126.998439 322.464249-285.038872 332.234777-291.701618 9.410324-6.414083 20.424168-9.629311 31.401174-9.629311 11.005658 0 21.998013 3.215228 31.397081 9.629311 9.782807 6.662747 240.514819 164.703179 332.23887 291.701618 31.586392 43.723827 70.873164 98.143251 70.873164 175.712931C945.299567 634.678296 835.645145 740.457458 700.856275 740.457458L700.856275 740.457458zM700.856275 740.457458"  horiz-adv-x="1024" />

    
    <glyph glyph-name="triangle-copy" unicode="&#58958;" d="M166.692 661.205h692.46l-343.068-593.65z"  horiz-adv-x="1024" />

    
    <glyph glyph-name="wodedianping" unicode="&#58976;" d="M146.944 201.216l-51.712-235.008 235.008 51.712 481.792 482.816-182.272 182.272-482.816-481.792zM677.888 504.832l-365.568-365.568-45.056 45.056 365.568 365.568 45.056-45.056zM798.72 801.792c-29.184 0-56.32-9.728-78.336-26.112l-51.712-51.712 182.272-182.272 52.736 51.2c15.872 21.504 26.112 48.64 26.112 78.336-1.024 71.68-58.88 130.56-131.072 130.56z"  horiz-adv-x="1024" />

    
    <glyph glyph-name="zhuyi" unicode="&#59046;" d="M1002.444 126.172 614.787 749.714c-27.428 49.372-60.343 73.143-102.399 73.143-42.058 0-76.8-23.771-102.4-71.314L22.331 126.172C-5.098 78.629-6.927 36.571 15.016 0s60.343-54.857 113.372-54.857l768 0c53.028 0 91.429 18.286 113.371 54.857C1029.873 36.571 1028.045 78.629 1002.444 126.172zM512.388 54.857c-31.086 0-54.857 25.6-54.857 54.856 0 31.086 25.601 54.857 54.857 54.857 31.086 0 54.856-25.6 54.856-54.857C569.073 80.457 543.474 54.857 512.388 54.857zM558.102 272.457c0-71.314-91.429-71.314-91.429 0l-18.285 232.229c0 34.743 29.257 62.171 64 62.171 34.742 0 64-27.428 64-62.171L558.102 272.457z"  horiz-adv-x="1025" />

    
    <glyph glyph-name="shoucang" unicode="&#58950;" d="M589.522824-6.023529C560.067765 9.456941 512.090353 9.366588 482.816-6.023529L275.847529-114.838588C216.967529-145.799529 178.386824-117.488941 189.590588-52.163765L229.104941 178.296471C234.736941 211.124706 219.828706 256.692706 196.126118 279.792941L28.702118 443.000471C-18.944 489.441882-3.915294 534.889412 61.650824 544.406588L293.044706 578.017882C325.993412 582.806588 364.724706 611.087059 379.392 640.752941L482.876235 850.432C512.331294 910.095059 560.188235 909.854118 589.492706 850.432L692.976941 640.752941C707.704471 610.906353 746.586353 582.776471 779.324235 578.017882L1010.718118 544.406588C1076.555294 534.829176 1091.132235 489.261176 1043.666824 443.000471L876.242824 279.792941C852.389647 256.542118 837.662118 210.913882 843.264 178.296471L882.778353-52.163765C894.012235-117.729882 855.160471-145.679059 796.521412-114.838588L589.522824-6.023529 589.522824-6.023529Z"  horiz-adv-x="1085" />

    
    <glyph glyph-name="microblog" unicode="&#59052;" d="M433.783 426.198c-134.621-6.21-243.457-78.341-243.457-168.289 0-89.816 108.836-157.359 243.457-151.072 134.73 6.163 243.794 90.473 243.794 180.321 0 89.713-109.070 145.249-243.794 139.039v0zM525.511 199.933c-41.236-53.202-122.812-79.174-202.017-36.272-37.699 20.441-36.323 60.619-36.323 60.619s-15.649 126.829 119.758 142.685c135.612 15.727 159.813-113.775 118.582-167.032v0zM434.699 284.879c-8.673-6.293-10.444-18.295-5.74-25.791 4.537-7.679 15.071-8.57 23.613-2.172 8.392 6.632 11.637 18.134 7.106 25.812-4.537 7.468-14.939 9.619-24.979 2.15v0zM370.512 267.422c-25.302-2.62-43.388-24.634-43.388-45.731 0-21.128 20.364-35.724 45.644-32.766 25.187 2.886 45.685 22.331 45.685 43.403-0 21.149-18.9 37.876-47.94 35.094v0zM844.505 862.055h-665.004c-80.399 0-145.565-65.155-145.565-145.565v-664.977c0-80.408 65.166-145.565 145.565-145.565h665.004c80.399 0 145.555 65.155 145.555 145.565v664.977c0 80.408-65.157 145.565-145.555 145.565v0zM797.92 227.504c-55.536-117.883-238.555-175.257-374.176-164.642-128.897 10.143-294.616 52.994-311.743 208.967 0 0-9.059 70.631 59.442 162.046 0 0 98.505 137.574 213.223 176.837 114.847 39.048 128.239-27.046 128.239-66.126-6.089-33.156-17.534-52.655 25.566-39.262 0 0 112.914 52.338 159.338 5.923 37.506-37.506 6.189-89.113 6.189-89.113s-15.519-17.191 16.47-23.38c32.079-6.416 132.918-53.148 77.451-171.251v0zM686.61 553.234c-12.294 0-22.16 9.934-22.16 22.151 0 12.392 9.866 22.352 22.16 22.352 0 0 138.397 25.556 121.832-123.129 0-0.864-0.109-1.546-0.302-2.334-1.568-10.532-10.826-18.633-21.727-18.633-12.33 0-22.353 9.855-22.353 22.176-0.005-0.006 21.92 99.352-77.449 77.417v0zM920.512 434.324h-0.166c-3.646-25.133-16.132-27.155-31.019-27.155-17.784 0-32.198 11.168-32.198 28.988 0 15.41 6.391 31.084 6.391 31.084 1.916 6.501 16.956 46.861-9.934 107.194-49.18 82.664-148.3 83.867-159.99 79.128-11.808-4.59-29.24-6.944-29.24-6.944-17.899 0-32.25 14.569-32.25 32.287 0 14.861 9.934 27.442 23.483 31.296 0 0 0.303 0.494 0.797 0.599 0.973 0.214 1.969 1.183 3.042 1.261 13.814 2.673 63.005 12.319 110.825 1.125 85.603-20 203.096-102.741 150.259-278.864v0z"  horiz-adv-x="1024" />

    
    <glyph glyph-name="youqinglianjie" unicode="&#59030;" d="M965.342 837.342C926.236 876.447 874.982 896 823.728 896S721.22 876.447 682.114 837.342l-270.025-270.26c-78.211-78.211-78.211-205.016 0-283.228 28.844-28.844 64.301-47.037 101.489-54.606l35.958 35.99c0.975 0.975 1.922 1.969 2.855 2.973-41.518 0.337-80.501 16.653-109.896 46.048-29.705 29.705-46.064 69.199-46.064 111.208s16.359 81.503 46.077 111.221L712.52 806.936C742.225 836.641 781.719 853 823.728 853s81.503-16.359 111.208-46.064C964.641 777.231 981 737.737 981 695.728c0-42.009-16.359-81.503-46.077-111.221L719.212 368.608c0.893-8.606 1.357-17.305 1.357-26.076 0-12.153-0.876-24.171-2.582-35.987l247.354 247.569C1043.553 632.325 1043.553 759.131 965.342 837.342zM512.422 538.752l-35.958-35.99c-0.975-0.975-1.922-1.97-2.855-2.974 41.519-0.337 80.502-16.653 109.897-46.048 29.705-29.705 46.064-69.199 46.064-111.208 0-42.009-16.359-81.503-46.077-111.221L313.48-38.936C283.775-68.641 244.281-85 202.272-85s-81.503 16.359-111.208 46.064C61.359-9.231 45 30.263 45 72.272s16.359 81.503 46.077 111.221l215.714 215.901c-0.893 8.605-1.36 17.302-1.36 26.073 0 12.153 0.876 24.171 2.581 35.987L60.658 213.886c-78.211-78.211-78.211-205.016 0-283.228 39.105-39.105 90.36-58.658 141.614-58.658 51.254 0 102.508 19.553 141.614 58.658l270.025 270.26c78.211 78.211 78.211 205.016 0 283.227C585.067 512.991 549.61 531.184 512.422 538.752z"  horiz-adv-x="1024" />

    
    <glyph glyph-name="jiaguanzhu" unicode="&#58957;" d="M515.208065-60.862927c-119.772874 0-232.367255 46.421262-317.065286 130.699738-84.727707 84.346013-131.402749 196.461487-131.402749 315.78513 0 119.29499 46.675042 231.444233 131.367957 315.756477 84.699054 84.282568 197.297528 130.698714 317.071426 130.698714s232.372372-46.416146 317.036633-130.698714c84.762499-84.312244 131.402749-196.461487 131.402749-315.722708 0.028653-119.323643-46.64025-231.472885-131.402749-315.78513C747.58146-14.410965 634.981962-60.862927 515.208065-60.862927L515.208065-60.862927zM515.208065 768.039653c-102.728686 0-199.280696-39.783075-271.866874-112.051005-72.557526-72.204485-112.536053-168.242795-112.536053-270.366707 0-102.118795 39.949874-198.157105 112.500237-270.327822 72.591295-72.26793 169.137165-112.056122 271.873014-112.056122 102.700033 0 199.281719 39.788192 271.867898 112.056122 72.556503 72.233138 112.534006 168.237679 112.500237 270.361591 0 102.124935-39.944757 198.128453-112.500237 270.299169C714.489784 728.222809 617.909122 768.039653 515.208065 768.039653L515.208065 768.039653zM515.208065 768.039653M739.448222 417.657564 547.243689 417.657564 547.243689 609.861074c0 17.679661-14.350846 32.031531-32.036647 32.031531-17.678638 0-32.029484-14.350846-32.029484-32.031531l0-192.204533L290.974048 417.656541c-17.679661 0-32.029484-14.349823-32.029484-32.034601 0-17.679661 14.349823-32.031531 32.029484-32.031531L483.178581 353.59041l0-192.20351c0-17.714454 14.350846-32.031531 32.029484-32.031531 17.684778 0 32.036647 14.316054 32.036647 32.031531L547.244712 353.591433l192.204533 0c17.71343 0 32.029484 14.350846 32.029484 32.031531C771.477706 403.307741 757.161652 417.657564 739.448222 417.657564L739.448222 417.657564zM739.448222 417.657564"  horiz-adv-x="1024" />

    
    <glyph glyph-name="guanyuwomen" unicode="&#59838;" d="M512.007675 831.696462c-247.25636 0-447.704648-200.448288-447.704648-447.703625s200.448288-447.689299 447.704648-447.689299c247.255337 0 447.688275 200.433962 447.688275 447.689299S759.263012 831.696462 512.007675 831.696462zM512.007675 15.93518c-203.290009 0-368.087333 164.781974-368.087333 368.071983 0 203.27466 164.797323 368.07096 368.087333 368.07096 203.288986 0 368.07096-164.7963 368.07096-368.07096C880.078635 180.718177 715.296661 15.93518 512.007675 15.93518zM467.053834 468.621283l89.87596 0 0-382.010437-89.87596 0 0 382.010437ZM467.024158 638.829849l89.87596 0 0-91.929736-89.87596 0 0 91.929736Z"  horiz-adv-x="1024" />

    
    <glyph glyph-name="fanhui1" unicode="&#58907;" d="M512.56979 515.225126 870.850827 172.254345C892.871703 151.17448 928.574589 151.17448 950.595459 172.254345 972.616329 193.334204 972.616329 227.511415 950.595459 248.59128L512 668.444444 73.404542 248.59128C51.383671 227.511415 51.383671 193.334204 73.404542 172.254345 95.425413 151.17448 131.1283 151.17448 153.149171 172.254345L512.56979 515.225126Z"  horiz-adv-x="1024" />

    
    <glyph glyph-name="yingxiaojianyi" unicode="&#58945;" d="M883.203372 88.916011c0-97.660586-1.660874-99.279489-89.300254-99.279489l-571.302657 0c-99.227923 0-99.053042-2.615227-99.053042 88.551762l-0.174881 579.421152c0 92.056386 0 90.387517 99.227923 90.387517l346.93238 0L569.532841 801.108744 219.816948 801.108744c-123.845233 0-149.250008-16.739051-149.250008-143.339416l0-577.956146c0-143.09758 25.404776-143.280456 149.250008-143.280456l576.884272 0c123.887804 0 139.614941 26.513024 139.614941 153.14177L936.316162 418.467575l-53.11279 0L883.203372 88.916011 883.203372 88.916011 883.203372 88.916011zM931.287771 734.813892l-75.906336 77.19746c-24.765209 25.185324-47.267952 25.185324-72.045953 0L345.702198 367.848095c-0.655955-0.66355-1.25355-1.334095-1.822364-2.041616-3.978702-3.227812-7.039627-7.715769-8.482649-13.109112l-19.253346-123.896598c-3.6875-13.547815 4.139194-27.575304 17.475552-31.307773 2.900034-0.808452 5.757097-1.07727 8.555599-0.852422 2.069597-0.151897 4.168174-0.064956 6.266751 0.313787l136.627567 16.243987c6.17981 1.13623 11.412862 4.466971 15.114752 9.080843 0.728506 0.57461 1.443022 1.22417 2.099576 1.9167l429.047906 437.348877C956.065771 686.701113 956.065771 709.627968 931.287771 734.813892L931.287771 734.813892zM458.921635 255.698532l-81.795343-13.45188c0 0-9.284705-2.222493-13.044556 2.033621-2.842473 3.271782 0.772476 11.558164 0.772476 11.558164l20.390175 73.072257 73.721817-73.138212L458.921635 255.698532 458.921635 255.698532zM496.394029 293.71056l-74.959577 74.348392 306.514383 309.146599 73.940668-73.342074L496.394029 293.71056 496.394029 293.71056zM887.109724 690.395608l-47.878338-48.592854-73.794767 73.232548 48.900645 49.300374c5.247442 5.320393 13.641751 5.320393 18.889193 0l53.883267-54.802244C892.314195 704.25661 892.314195 695.679625 887.109724 690.395608L887.109724 690.395608z"  horiz-adv-x="1024" />

    
    <glyph glyph-name="lingdang" unicode="&#58936;" d="M901.813754 101.300614c-3.231809 74.966972-40.642444 141.491669-96.97705 184.332622L804.836705 489.078701c0 117.501934-84.079794 216.35671-195.14809 239.705879l0 4.643851c0 53.612451-43.961194 97.471714-97.704556 97.471714l0 0c-53.714382 0-97.676575-43.859064-97.676575-97.471714l0-4.643851c-111.096477-23.349169-195.14709-122.203746-195.14709-239.705879l0-203.445464c-56.334605-42.840754-93.74624-109.36545-96.978049-184.332622l96.978049 0 0-0.654556 585.676311 0 0 0.654556L901.813754 101.300614 901.813754 101.300614zM491.371034-63.467273l24.251557 0c63.58469 0 116.425863 47.9353 124.111652 109.36565L384.524676 45.898377c7.685789-61.43015 60.526763-109.36565 124.110653-109.36565L491.371034-63.467273z"  horiz-adv-x="1024" />

    
    <glyph glyph-name="lingdai" unicode="&#59061;" d="M893.456828 186.944995M491.889987 558.060291M568.154951 557.006286M709.039655 103.587496c-20.708648 174.401052-107.328447 464.491986-126.550231 527.540951 62.075801 67.906599 83.463923 175.224814 84.384899 179.975001 2.174526 11.244089-5.068436 22.170952-16.271592 24.539906-2.729158 0.584308-67.332525 14.147208-122.711809 14.147208-55.359842 0-120.362298-13.542434-123.101689-14.116509-11.213389-2.359744-18.466584-13.265118-16.302291-24.529673 0.910743-4.739954 22.167882-112.090914 84.238566-180.010817-19.271926-63.060221-106.016569-352.901469-126.722146-527.289218-0.677429-5.714142 1.026376-11.460006 4.699022-15.891945 2.298346-2.77009 57.565067-68.62496 164.40642-133.402289 3.241834-1.969864 6.883781-2.913353 10.535961-2.913353 2.034333 0 4.052293 0.35918 6.027274 0.937348 2.359744 0.431835 4.678556 1.119497 6.817266 2.365884 1.609661 0.938372 3.009544 2.142803 4.300956 3.450589 113.421212 63.967894 160.426783 127.675868 162.402787 130.402979C708.290595 93.072001 709.654662 98.355331 709.039655 103.587496zM527.889899 807.768493c32.584116 0 69.907163-4.090155 92.713588-7.988951-8.966209-32.93204-30.634718-97.476055-70.625524-139.431609L505.237993 660.347932c-39.980573 41.955554-61.576427 106.47808-70.502727 139.421376C457.665511 803.668105 495.245408 807.768493 527.889899 807.768493zM526.084787-2.842489c-75.077929 47.192835-121.593336 95.489818-137.187499 112.38665 21.626553 167.042457 102.963023 435.171194 123.091456 508.84924l31.229259 0c20.128433-73.678046 101.516068-342.770737 123.019825-509.772262C652.499941 92.339314 609.185436 44.689061 526.084787-2.842489z"  horiz-adv-x="1024" />

    
    <glyph glyph-name="gantanhao-copy" unicode="&#58915;" d="M512.601 773.785c-215.978 0-391.058-175.082-391.058-391.058 0-215.978 175.087-391.065 391.058-391.065 215.978 0 391.065 175.087 391.065 391.065 0 215.978-175.087 391.058-391.065 391.058v0zM578.411 643.515l-18.848-369.43h-94.247l-18.849 369.43h131.943zM510.164 98.525c-41.29 0-65.524 29.789-65.524 65.54 0 38.308 27.823 66.398 66.42 66.398 39.492 0 65.517-28.089 65.517-66.398-0.002-37.45-26.026-65.54-66.413-65.54v0z"  horiz-adv-x="1024" />

    
    <glyph glyph-name="fasixin" unicode="&#58997;" d="M903.094326 172.642245 671.494551 381.469364l231.600799 203.161073L903.095349 172.642245zM159.841451 134.828011l232.587266 206.393697 38.090527-33.406854c22.11774-19.35072 49.433876-29.284977 81.477686-29.284977 32.240285 0 59.367109 9.934257 81.619926 29.284977l38.046524 33.406854 232.538147-206.393697L159.841451 134.828011zM120.953769 172.642245 120.953769 584.63146 352.553545 381.469364 120.953769 172.642245zM866.078271 633.219061 569.444317 370.272347c-25.91216-23.103184-45.073568-34.532491-57.447387-34.532491-12.367679 0-31.529087 11.434423-57.392128 34.532491L157.921729 633.219061 866.078271 633.219061zM883.931894 686.773791 140.066059 686.773791c-41.229007 0-74.776054-33.547047-74.776054-74.782194l0-455.983195c0-41.371246 33.547047-74.78117 74.776054-74.78117l743.864812 0c41.371246 0 74.777077 33.409924 74.777077 74.78117L958.707948 611.991598C958.708971 653.226744 925.30314 686.773791 883.931894 686.773791z"  horiz-adv-x="1024" />

    
    <glyph glyph-name="laba" unicode="&#59070;" d="M527.808 792.288l-255.808-164.288-127.616 0c-70.912 0-128.384-56.768-128.384-127.872l0-256.256c0-70.656 56.768-127.872 128.384-127.872l127.616 0 255.808-164.16c36.16-15.68 64.192 1.088 64.192 36.672l0 767.104c0 35.648-28.736 51.968-64.192 36.672zM743.36 585.824c-12.032 12.928-32.32 13.632-45.184 1.536-12.928-12.096-13.568-32.32-1.536-45.248 5.952-6.4 16.128-20.544 26.624-41.92 17.92-36.48 28.736-79.296 28.736-128.192s-10.816-91.776-28.736-128.192c-10.496-21.376-20.672-35.52-26.624-41.92-12.096-12.928-11.392-33.152 1.536-45.248 12.928-12.096 33.152-11.392 45.248 1.536 10.048 10.752 23.872 29.952 37.312 57.408 22.08 44.928 35.264 97.28 35.264 156.48s-13.184 111.552-35.264 156.48c-13.504 27.328-27.328 46.592-37.376 57.28zM939.584 625.44c-25.856 43.776-51.968 74.112-70.272 90.432-13.184 11.776-33.408 10.624-45.184-2.624s-10.624-33.408 2.624-45.184c3.008-2.688 9.024-8.704 17.088-18.048 13.824-16 27.648-35.072 40.64-57.088 37.184-63.104 59.52-136.896 59.52-220.928s-22.336-157.824-59.584-220.992c-12.992-22.016-26.88-41.088-40.64-57.088-8.064-9.344-14.08-15.36-17.088-18.048-13.184-11.776-14.336-32-2.624-45.184s32-14.336 45.184-2.624c18.304 16.32 44.416 46.592 70.272 90.432 42.752 72.512 68.416 157.312 68.416 253.504 0.064 96.128-25.6 180.928-68.352 253.44z"  horiz-adv-x="1024" />

    
    <glyph glyph-name="gou" unicode="&#58955;" d="M512-128C229.694578-128 0 101.694578 0 384 0 666.305422 229.694578 896 512 896 794.373689 896 1024 666.305422 1024 384 1024 101.694578 794.373689-128 512-128ZM512 805.7856C279.438222 805.7856 90.2144 616.561778 90.2144 384 90.2144 151.506489 279.438222-37.728711 512-37.728711 744.630044-37.728711 933.7856 151.438222 933.7856 384 933.7856 616.561778 744.561778 805.7856 512 805.7856ZM483.931022 152.758044C475.693511 141.5168 462.711467 134.747022 448.8192 134.405689L447.840711 134.405689C434.289778 134.405689 421.512533 140.549689 412.933689 151.085511L262.257778 338.056533C246.692978 357.330489 249.764978 385.536 269.038933 401.1008 288.301511 416.676978 316.575289 413.604978 332.0832 394.331022L446.236444 252.745956 690.801778 585.352533C705.467733 605.320533 733.604978 609.5872 753.504711 594.921244 773.404444 580.255289 777.728 552.118044 762.993778 532.218311L483.931022 152.758044Z"  horiz-adv-x="1024" />

    
    <glyph glyph-name="shangchuan1" unicode="&#58911;" d="M676.438 552.619l-70.688 78.544v-340.913c0-31.069-25.181-56.25-56.25-56.25s-56.25 25.181-56.25 56.25v340.913l-70.688-78.544c-10.294-11.419-25.219-18.619-41.813-18.619-31.069 0-56.25 25.181-56.25 56.25 0 14.475 5.475 27.656 14.438 37.631l168.75 187.5c10.294 11.419 25.219 18.619 41.813 18.619s31.519-7.2 41.813-18.619l168.75-187.5c8.963-9.975 14.437-23.156 14.437-37.631 0-31.069-25.181-56.25-56.25-56.25-16.594 0-31.519 7.2-41.813 18.619zM980.75-66h-862.5c-31.069 0-56.25 25.181-56.25 56.25v281.25c0 31.069 25.181 56.25 56.25 56.25s56.25-25.181 56.25-56.25v-225h750v225c0 31.069 25.181 56.25 56.25 56.25s56.25-25.181 56.25-56.25v-281.25c0-31.069-25.181-56.25-56.25-56.25z"  horiz-adv-x="1110" />

    
    <glyph glyph-name="fangda" unicode="&#59237;" d="M945.159 28.39l-206.543 206.538c49.578 63.772 79.108 143.903 79.108 230.953 0 207.97-168.58 376.547-376.639 376.547-207.97 0-376.547-168.577-376.547-376.547 0-208.038 168.577-376.614 376.547-376.614 87.059 0 167.197 29.532 230.973 79.108l206.543-206.544c9.171-9.17 21.227-13.802 33.278-13.802s24.106 4.629 33.28 13.802c18.431 18.43 18.431 48.215 0 66.559v0zM158.701 465.881c0 155.737 126.65 282.39 282.39 282.39 155.826 0 282.477-126.65 282.477-282.39 0-155.805-126.65-282.458-282.477-282.458-155.739 0-282.39 126.65-282.39 282.458v0zM579.708 506.147h-98.352v98.352c0 22.272-17.991 40.268-40.268 40.352-22.185-0.086-40.267-18.078-40.267-40.352v-98.352h-98.352c-22.272 0-40.268-17.991-40.268-40.179 0-22.272 17.991-40.352 40.268-40.352h98.352v-98.352c0-22.252 18.080-40.246 40.267-40.333 22.274 0.086 40.268 18.080 40.268 40.333v98.352h98.352c22.272 0 40.355 18.079 40.267 40.352 0 22.187-17.991 40.179-40.267 40.179v0z"  horiz-adv-x="1024" />

    
    </font>
</defs>
</svg>
